<?xml version="1.0" encoding="utf-8"?>
<!-- Generator: Adobe Illustrator 16.0.3, SVG Export Plug-In . SVG Version: 6.00 Build 0)  -->
<!DOCTYPE svg PUBLIC "-//W3C//DTD SVG 1.1//EN" "http://www.w3.org/Graphics/SVG/1.1/DTD/svg11.dtd">
<svg version="1.1" id="Layer_1" xmlns="http://www.w3.org/2000/svg" xmlns:xlink="http://www.w3.org/1999/xlink" x="0px" y="0px"
	 width="500px" height="500px" viewBox="0 0 500 500" enable-background="new 0 0 500 500" xml:space="preserve">

	
		<path fill="#BAC0C0" d="M379.409,204.304c-0.897,0-1.791,0.029-2.702,0.086c-22.352,1.365-40.707,11.001-54.565,28.642
			c-0.997,1.068-2.007,2.158-3.009,3.29c-10.414-10.732-23.133-18.804-37.28-23.667c4.501-14.969,9.153-26.749,12.054-34.075
			l0.743-1.89l0.268-0.661c20.716-52.6,7.203-94.402-40.178-142.974l-3.909-4.006l-3.913,4.006
			c-47.378,48.572-60.891,90.374-40.168,142.974l0.263,0.654l0.742,1.891c2.892,7.331,7.542,19.106,12.04,34.086
			c-14.103,4.847-26.793,12.901-37.206,23.606c-8.904-9.938-20.559-20.917-31.556-25.081l-0.035-0.016
			c-3.14-1.449-6.387-2.691-9.751-3.694l-3.274-1.242l0.194,0.396c-4.7-1.183-9.577-1.928-14.631-2.237
			c-0.902-0.057-1.806-0.086-2.693-0.086c-32.589,0-55.107,36.226-55.684,70.056c-0.479,27.587,13.754,57.583,55.127,59.007
			l7.81,0.274l-2.438-7.435c-0.05-0.159-5.639-17.742,0.36-29.024c2.18-4.092,5.646-6.798,10.589-8.265
			c2.158-0.426,4.294-0.635,6.359-0.635c6.496,0,11.049,2.05,13.323,3.384c-0.49,3.949-0.723,7.501-0.723,10.995
			c0,42,28.196,79.303,67.957,91.225c-4.178,6.951-9.881,11.677-16.996,14.104l-8.475,2.886l6.444,6.208
			c1.541,1.48,14.085,13.348,26.338,17.488c1.144,10.061,5.186,32.296,18.625,35.81l1.37,0.354l1.38-0.354
			c13.427-3.514,17.471-25.749,18.618-35.81c12.249-4.141,24.804-16.008,26.341-17.488l6.438-6.208l-8.48-2.886
			c-7.112-2.428-12.813-7.153-16.983-14.104c39.75-11.922,67.945-49.225,67.945-91.225c0-3.473-0.232-7.024-0.721-10.986
			c2.124-1.226,6.669-3.291,13.229-3.291c1.352,0,2.749,0.088,4.152,0.27c1.265,0.321,2.473,0.74,3.604,1.232
			c0.264,0.179,0.526,0.339,0.815,0.483c0.803,0.41,1.645,0.837,2.188,1.228c0.255,0.244,0.466,0.426,0.682,0.598
			c0.635,0.503,1.27,1.021,1.675,1.436c0.203,0.276,0.35,0.477,0.518,0.678c0.467,0.543,0.984,1.165,1.316,1.679
			c0.151,0.3,0.251,0.496,0.358,0.69c0.384,0.665,0.756,1.329,1.058,2.02l0.229,0.683c0.307,0.776,0.578,1.536,0.777,2.321
			l0.142,0.622c0.216,0.894,0.397,1.761,0.522,2.624l0.057,0.596c0.116,0.915,0.216,1.847,0.254,2.771l0.009,0.021v0.455
			c0.043,1.01,0.052,1.971,0.018,2.907v0.015l-0.018,0.376c-0.043,1.017-0.099,1.979-0.189,2.902l2.693,0.446
			c-0.005,0.065-0.005,0.117-0.021,0.18l0,0l-2.711-0.272c-0.091,0.937-0.203,1.848-0.332,2.706l2.671,0.555
			c-0.008,0.052-0.017,0.095-0.021,0.153c0,0,0,0,0,0.009l-2.692-0.421c-0.139,0.853-0.276,1.668-0.428,2.41
			c-0.194,1.004-0.346,1.688-0.492,2.312c-0.177,0.772-0.311,1.269-0.423,1.688l-0.298,1.062l-2.33,7.369l7.583,0.182
			c41.363-1.424,55.598-31.411,55.127-59.007C434.511,240.53,411.99,204.304,379.409,204.304z"/>
	
	
		<path fill="#00559C" d="M265.75,372.277h-14.919h-14.914c0,0-1.66,32.039-27.63,40.883c0,0,15.477,14.918,27.63,17.127
			c0,0,2.208,31.491,14.914,34.804c12.709-3.313,14.919-34.804,14.919-34.804c12.153-2.209,27.621-17.127,27.621-17.127
			C267.402,404.316,265.75,372.277,265.75,372.277z"/>
	
	
		<path fill="#00559C" d="M340.635,302.662c0,49.603-40.202,89.797-89.804,89.797c-49.594,0-89.808-40.194-89.808-89.797
			c0-49.607,40.213-89.805,89.808-89.805C300.433,212.857,340.635,253.055,340.635,302.662z"/>
	
	
		<path fill="#BAC0C0" d="M325.447,299.131c0,40.399-33.405,73.146-74.617,73.146c-41.215,0-74.62-32.747-74.62-73.146
			c0-40.396,33.405-73.145,74.62-73.145C292.042,225.986,325.447,258.734,325.447,299.131z"/>
	
	
		<path fill="#FFFFFF" d="M315.603,294.817c0,34.868-28.998,63.127-64.772,63.127c-35.774,0-64.771-28.259-64.771-63.127
			c0-34.864,28.997-63.119,64.771-63.119C286.604,231.698,315.603,259.953,315.603,294.817z"/>
	
	<path fill="#00559C" d="M118.766,246.774c-23.886,7.765-32.415,47.012,1.709,81.136c0,0-11.996-36.602,14.836-44.297
		c16.418-3.327,26.09,4.938,26.142,4.98l11.079,9.318l24.728-15.419C184.702,267.569,153.146,238.213,118.766,246.774z"/>
	<path fill="#BAC0C0" d="M149.1,216.29l0.017,0.026c-7.639-3.617-16.226-5.883-25.913-6.476
		c-55.966-3.413-81.901,115.34-2.73,118.071c-34.124-34.124-25.595-73.371-1.709-81.136c34.381-8.561,65.937,20.795,78.494,35.719
		l-7.028-28.286C190.231,254.207,167.941,223.424,149.1,216.29z"/>
	<path fill="#00559C" d="M120.844,216.588c0.646,0,1.291,0.021,1.942,0.066c8.453,0.511,16.325,2.476,23.401,5.833l4.894,2.309
		c12.501,7.196,26.979,24.496,32.853,32.365l5.509,22.167l-16.306,10.168l-7.32-6.15c-0.894-0.751-9.187-7.346-22.851-7.346
		c-2.948,0-5.986,0.309-9.007,0.924l-0.274,0.059l-0.264,0.07c-8.321,2.383-14.462,7.231-18.265,14.407
		c-4.968,9.361-4.601,20.742-3.395,28.714c-32.313-5.775-34.493-35.874-34.32-45.603C77.914,247.143,95.851,216.588,120.844,216.588
		L120.844,216.588 M120.844,209.759c-54.313,0-78.42,115.459-0.369,118.151c0,0-11.996-36.602,14.836-44.297
		c2.75-0.555,5.309-0.785,7.657-0.785c11.73,0,18.442,5.729,18.485,5.766l11.079,9.318l24.728-15.419l-7.028-28.286
		c0,0-22.29-30.783-41.131-37.917l0.017,0.026c-7.639-3.617-16.226-5.883-25.913-6.476
		C122.408,209.79,121.625,209.759,120.844,209.759L120.844,209.759z"/>
	<path fill="#00559C" d="M381.355,246.774c-34.367-8.561-64.264,20.795-76.823,35.719l24.726,15.419l12.021-10.112
		c2.667-1.834,10.574-6.129,22.481-4.525c27.544,6.727,16.746,42.312,16.081,44.435
		C413.738,293.631,405.197,254.524,381.355,246.774z"/>
	<path fill="#BAC0C0" d="M377.04,209.839c-22.206,1.35-38.787,11.435-50.751,26.759c-8.58,9.099-14.756,17.609-14.756,17.609
		l0.013,0.054l-7.014,28.232c12.56-14.924,42.456-44.28,76.823-35.719c23.842,7.75,32.383,46.857-1.515,80.935
		c-0.026,0.064-0.064,0.201-0.064,0.201C458.951,325.18,433.009,206.427,377.04,209.839z"/>
	<path fill="#00559C" d="M379.409,216.588c24.989,0,42.926,30.561,43.393,57.983c0.172,9.729-2.003,39.819-34.312,45.603
		c1.229-8.127,1.601-19.802-3.669-29.262c-4.057-7.305-10.596-12.106-19.443-14.265l-0.345-0.086l-0.358-0.05
		c-2.042-0.274-4.079-0.412-6.077-0.412c-11.135,0-18.523,4.244-21.183,6.076l-0.276,0.19l-0.25,0.216l-8.23,6.914l-16.314-10.168
		l5.524-22.204c1.912-2.526,6.966-9.028,13.389-15.85l0.216-0.231l0.198-0.246c11.605-14.876,27.021-23.003,45.787-24.143
		C378.114,216.61,378.762,216.588,379.409,216.588 M379.409,209.759c-0.79,0-1.566,0.03-2.369,0.08
		c-22.206,1.35-38.787,11.435-50.751,26.759c-8.58,9.099-14.756,17.609-14.756,17.609l0.013,0.054l-7.014,28.232l24.726,15.419
		l12.021-10.112c2.262-1.552,8.282-4.873,17.319-4.873c1.627,0,3.345,0.102,5.162,0.348c28.39,6.936,16.017,44.636,16.017,44.636
		C457.82,325.219,433.717,209.759,379.409,209.759L379.409,209.759z"/>
	<path fill="#00559C" d="M212.1,174.689c3.515,8.958,10.79,26.829,16.746,50.092l-1.586,4.865l23.571,17.128V36.868
		C180.99,108.473,205.632,158.254,212.1,174.689z"/>
	<path fill="#BAC0C0" d="M272.814,224.759c5.956-23.255,13.241-41.123,16.75-50.07c6.466-16.435,31.105-66.217-38.734-137.821
		v209.906l23.577-17.128L272.814,224.759z"/>
	<path fill="#00559C" d="M250.831,46.79c59.891,65.101,39.476,107.41,32.649,124.732l-0.264,0.671l-0.742,1.883
		c-3.703,9.383-10.608,26.859-16.271,48.988l-0.488,1.921l0.604,1.883l0.061,0.173l-15.549,11.296l-15.548-11.296l0.054-0.145
		l0.608-1.884l-0.488-1.92c-5.673-22.166-12.574-39.646-16.284-49.045l-0.723-1.854l-0.268-0.671
		C211.366,154.2,190.943,111.891,250.831,46.79 M250.831,36.868c-69.84,71.604-45.198,121.386-38.731,137.821
		c3.515,8.958,10.79,26.829,16.746,50.092l-1.586,4.865l23.571,17.128l23.577-17.128l-1.593-4.887
		c5.956-23.255,13.241-41.123,16.75-50.07C296.03,158.254,320.67,108.473,250.831,36.868L250.831,36.868z"/>
	
		<polygon fill="#00559C" points="250.831,276.872 223.727,296.569 234.076,328.437 250.831,328.437 267.588,328.437 
			277.938,296.569 		"/>
	
	
		<path fill="#00559C" d="M185.79,356.095c11.778,10.555,24.167,17.012,38.341,23.819c1.814,0.863,3.056,2.158,3.882,3.646
			l1.683-1.229l-10.349-31.873h-33.505l-1.487,4.577C184.836,355.359,185.319,355.679,185.79,356.095z"/>
	
	
		<path fill="#00559C" d="M312.686,356.095c1.704-1.32,3.814-2.114,5.981-2.43l-1.044-3.207h-33.505l-10.35,31.873l1.597,1.163
			C288.624,376.02,300.67,365.415,312.686,356.095z"/>
	

</svg>
