<?xml version="1.0" encoding="utf-8"?>
<!-- Generator: Adobe Illustrator 16.0.3, SVG Export Plug-In . SVG Version: 6.00 Build 0)  -->
<!DOCTYPE svg PUBLIC "-//W3C//DTD SVG 1.1//EN" "http://www.w3.org/Graphics/SVG/1.1/DTD/svg11.dtd">
<svg version="1.1" id="Layer_1" xmlns="http://www.w3.org/2000/svg" xmlns:xlink="http://www.w3.org/1999/xlink" x="0px" y="0px"
	 width="500px" height="500px" viewBox="0 0 500 500" enable-background="new 0 0 500 500" xml:space="preserve">
<path fill="#00483A" d="M304,145v-11.1l-0.93-0.589c-4.594-2.913-9.137-4.389-13.503-4.389c-4.414,0-8.703,1.502-12.749,4.464
	l-0.818,0.6V145h-98.665c0.072-17.159,2.357-35.16,6.798-53.557H228V109h14V91.443h41V109h14V91.443h41V109h14V91.443h40.702
	L363.209,145H304z"/>
<path fill="#1A1A1A" d="M389.317,93.443L362.027,143H306v-8v-2.2l-1.858-1.178c-4.92-3.119-9.822-4.7-14.574-4.7
	c-4.849,0-9.535,1.632-13.931,4.851L274,132.971V135v8h-94.646c0.227-15.922,2.362-32.559,6.359-49.557H226V107v4h4h10h4v-4V93.443
	h37V107v4h4h10h4v-4V93.443h37V107v4h4h10h4v-4V93.443H389.317 M396.087,89.443H350V107h-10V89.443h-45V107h-10V89.443h-45V107h-10
	V89.443h-47.437c-5.221,21.086-7.328,40.243-7.227,57.557H278v-12c3.687-2.699,7.541-4.078,11.567-4.078
	c3.973,0,8.113,1.34,12.433,4.078v12h62.391L396.087,89.443L396.087,89.443z"/>
<path fill="#00483A" d="M235.12,273.606c-1.759-1.267-14.619-10.845-27.634-29.163c-12.638-17.787-27.978-47.646-29.942-89.444
	h180.159l-74.677,135.605L235.12,273.606z"/>
<path fill="#1A1A1A" d="M354.317,157l-72.224,131.152l-46.037-16.336c-2.32-1.693-14.429-10.963-26.838-28.385
	c-12.315-17.29-27.218-46.131-29.568-86.431H354.317 M361.087,153H175.458c3.033,84.14,58.731,122.398,58.731,122.398l49.769,17.66
	L361.087,153L361.087,153z"/>
<path fill="#FDBA31" d="M87.908,383c-11.071,0-20.042-1.397-26.329-2.712c10.778-2.347,28.979-7.222,51.958-16.565
	c33.785-13.736,84.477-40.284,135.067-88.801l10.378,11.029c-30.383,36.194-62.784,62.803-96.326,78.889
	C137.681,376.818,112.531,383,87.911,383C87.91,383,87.91,383,87.908,383z"/>
<path fill="#1A1A1A" d="M248.508,278.439l7.131,7.587c-29.738,35.054-61.367,60.76-94.063,76.44
	c-24.637,11.815-49.421,17.807-73.667,17.807c-4.955,0-9.479-0.262-13.516-0.668c10.524-2.839,24.179-7.158,40.085-13.625
	C148.059,352.326,198.24,326.122,248.508,278.439 M248.692,271.339c-98.551,95.553-198.28,108.36-198.28,108.36
	s14.073,5.57,37.496,5.57c39.265,0,104.807-15.65,174.411-99.431L248.692,271.339L248.692,271.339z"/>
<path fill="#FDBA31" d="M199.469,338.446c-4.225,0-8.398-0.589-12.457-1.755l56.017-44.131l17.542,10.381
	C253.778,310.983,228.458,338.446,199.469,338.446z"/>
<path fill="#1A1A1A" d="M243.229,295.583l13.498,7.987c-8.618,9.709-31.503,32.377-57.259,32.377c-2.281,0-4.547-0.182-6.786-0.543
	L243.229,295.583 M242.827,289.539l-60.97,48.032c5.963,2.358,11.866,3.373,17.611,3.373c35.464,0,64.872-38.675,64.872-38.675
	L242.827,289.539L242.827,289.539z"/>
<path fill="#FDBA31" d="M430,116.948V92h1.789c1.065,1,2.981,3.161,5.181,5.289c4.3,4.161,11.479,11.141,10.877,12.891
	c-1.462,2.328-11.711,5.953-15.804,7.21L430,116.948z"/>
<path fill="#1A1A1A" d="M431.537,93c1.107,0,2.948,2.881,5.047,4.911c2.496,2.415,5.326,5.076,7.473,7.469
	c2.972,3.314,3.24,4.41,3.255,4.672c-1.363,1.843-9.798,5.019-15.572,6.802L430,116.497V93h2 M432.048,92H429v25.4l2.848,0.58
	c0,0,14.664-4.258,16.469-7.312C449.541,107.729,435.342,96,432.048,92L432.048,92z"/>
<path fill="#1A1A1A" d="M332.84,343.386c-0.85-0.188-1.588-0.529-2.216-0.979c-0.941-0.152-1.918-0.276-2.941-0.357
	c0,0-7.236-1.73-15.416-15.889l-25.25-40.351l-5.309,2.714l29.93,50.851c0,0,2.517,2.203,0,7.237c-1.038,2.076-1.978,1.764-3.03,2.6
	c0.9,0.589,1.579,1.342,2.053,2.187c3.264-2.543,7.321-3.198,11.254-2.514c2.108-2.372,5.479-2.684,8.383-1.308
	c0.933,0.441,1.863,0.885,2.794,1.33c-0.437-1.419-0.399-2.966,0.225-4.436C333.122,344.128,332.972,343.761,332.84,343.386z"/>
<path fill="#FDBA31" d="M322.957,406.529c-0.32,6.129-2.197,12.129-5.631,17.965c-19.855-0.281-36.422-14.402-40.465-33.132
	c4.422,5.027,11.082,9.172,19.287,11.922c6.8,2.275,14.435,3.49,21.49,3.49C319.459,406.774,321.239,406.693,322.957,406.529z
	 M280.457,363.512c-2.9,5.706-4.54,12.156-4.54,18.982c0,1.257,0.059,2.505,0.169,3.735c7.832,13.023,30.054,19.594,46.917,17.859
	c-0.103-6.676-2.03-13.5-5.787-20.432C300.729,383.265,288.377,376.494,280.457,363.512z M336.322,366.035
	c4.883,7.023,8.723,16.48,10.349,25.569c1.519,8.483,1.089,16.284-1.179,22.562c8.844-7.707,14.442-19.047,14.442-31.672
	c0-7.464-1.961-14.478-5.386-20.558C347.829,361.901,341.746,363.274,336.322,366.035z M319.346,382.503
	c7.869,14.509,8.133,28.604,0.798,41.939c7.828-0.41,15.097-2.97,21.22-7.104c7.711-13.269,2.629-36.221-7.174-50.127
	C328.436,370.645,323.478,375.751,319.346,382.503z M296.639,376.071c5.85,3.248,12.743,4.978,20.642,5.165
	c8.594-14.052,20.634-21.347,35.801-21.71c-4.22-6.439-10.161-11.655-17.162-14.987C320.66,344.734,303.644,360.638,296.639,376.071
	z M281.817,361.051c3.344,5.854,7.597,10.447,12.729,13.766c3.566-7.713,9.692-15.742,16.614-21.722
	c6.508-5.619,13.427-9.223,19.971-10.48c-4.155-1.379-8.594-2.128-13.204-2.128C302.59,340.486,289.152,348.746,281.817,361.051z"/>
<path fill="#1A1A1A" d="M349.743,350.675c-3.734-3.734-8.024-6.748-12.751-8.958c-0.1-0.063-0.196-0.107-0.29-0.133
	c-5.888-2.705-12.204-4.076-18.775-4.076c-12.025,0-23.325,4.676-31.819,13.167c-8.492,8.495-13.17,19.796-13.17,31.819
	c0,1.369,0.063,2.763,0.188,4.146l0.051,0.517c1.058,10.363,5.527,19.751,12.932,27.154c8.492,8.493,19.792,13.17,31.819,13.17
	c9.04,0,17.719-2.644,25.124-7.647l0.492-0.335c2.213-1.54,4.299-3.285,6.2-5.188c8.493-8.489,13.17-19.788,13.17-31.816
	C362.913,370.468,358.236,359.168,349.743,350.675z M295.973,403.811c6.781,2.27,14.476,3.519,21.666,3.519
	c1.616,0,3.202-0.063,4.725-0.189c-0.402,5.707-2.202,11.353-5.353,16.793c-18.276-0.403-34.375-13.13-39.114-30.662
	C282.356,397.703,288.558,401.325,295.973,403.811z M310.797,352.675c-6.734,5.817-12.856,13.747-16.48,21.325
	c-4.728-3.18-8.713-7.529-11.855-12.943c7.498-12.354,21.057-20.015,35.466-20.015c3.75,0,7.455,0.502,11.041,1.494
	C322.915,344.124,316.676,347.599,310.797,352.675z M316.975,380.673c-7.438-0.218-14.032-1.846-19.614-4.841
	c6.858-14.683,23.338-30.454,38.437-30.735c6.538,3.136,12.141,7.931,16.265,13.909
	C337.265,359.662,325.465,366.949,316.975,380.673z M321.105,423.824c6.894-13.16,6.52-27.049-1.118-41.303
	c3.928-6.342,8.649-11.238,14.045-14.564c9.261,13.449,14.49,35.782,6.915,48.992C335.033,420.915,328.195,423.281,321.105,423.824z
	 M322.437,403.683c-1.593,0.146-3.249,0.317-4.933,0.317c-0.001,0-0.002,0-0.002,0c-14.96,0-33.771-6.195-40.874-17.852
	c-0.104-1.196-0.156-2.44-0.156-3.606c0-6.249,1.359-12.271,4.042-17.866c7.984,12.51,20.213,19.121,36.366,19.589
	C320.381,390.81,322.248,397.361,322.437,403.683z M347.218,391.507c-1.585-8.857-5.336-18.246-10.076-25.26
	c5.105-2.482,10.847-3.746,17.08-3.756c3.375,6.104,5.157,13.012,5.157,20.003c0,11.272-4.608,22.034-12.713,29.843
	C348.395,406.317,348.59,399.168,347.218,391.507z"/>

	<path fill="#1A1A1A" d="M270.335,285.811l25.249,40.351c8.18,14.158,15.469,18.363,15.469,18.363
		c18.721,1.472,21.765,17.574,21.765,17.574c-1.905-1.009-3.667-2.152-5.184-3.534c2.629,4.412,4.654,8.221,3.744,9.093
		c-2.101-0.83-4.146-2.117-6.15-3.744c3.932,5.19,6.36,9.381,4.813,10.932c-6.367-6.375-19.455-18.614-22.465-18.954
		c-2.32-0.577-5.758-1.87-9.211,0c-3.595,2.674-8.477,12.396-8.477,12.396c3.744-23.267,5.386-15.604,7.525-19.884
		c2.141-4.279,0-6.151,0-6.151l-32.389-53.727L270.335,285.811z"/>

<polygon fill="#1A1A1A" points="433.287,97.689 432.322,112.546 430.371,103.589 "/>
<path fill="#FDBA31" d="M308.736,314c-23.457,0-49.796-8.386-78.33-25.064c29.109-29.402,114.636-118.946,145.555-186.07
	c0.138-0.309,12.633-27.771,35.487-27.771c10.664,0,19.34,10.013,19.34,22.31c0,1.746-0.182,3.508-0.541,5.231l-0.044,0.217
	l-0.008,0.22c-0.869,28.366-3.918,55.189-9.063,79.723c-5.433,25.907-13.087,48.639-22.752,67.562
	c-10.303,20.174-22.813,35.757-37.184,46.448C345.803,308.26,328.152,314,308.739,314C308.737,314,308.737,314,308.736,314z"/>
<path fill="#1A1A1A" d="M411.448,77.609c9.286,0,16.842,8.884,16.842,19.803c0,1.575-0.164,3.162-0.488,4.718l-0.09,0.429
	l-0.014,0.438c-0.864,28.22-3.896,54.895-9.011,79.286c-5.387,25.691-12.968,48.212-22.531,66.938
	c-10.127,19.829-22.391,35.188-36.45,45.647c-14.955,11.127-32.104,16.769-50.97,16.769c-22.244,0-47.209-7.795-74.278-23.181
	c31.135-31.621,113.456-118.694,143.773-184.511l0.015-0.033l0.015-0.033C378.377,103.615,390.146,77.609,411.448,77.609
	 M411.448,72.612c-24.8,0-37.756,29.241-37.756,29.241c-30.429,66.059-115.863,156.078-147.318,187.665
	c31.333,18.8,58.699,27.114,82.362,27.114c83.11,0,120.559-102.546,123.957-213.483c0.384-1.842,0.594-3.761,0.594-5.737
	C433.287,83.716,423.51,72.612,411.448,72.612L411.448,72.612z"/>
<path fill="#FDBA31" d="M144.598,342.37c-8.021,0-16.307-0.794-24.732-2.364c10.713-3.461,29.721-10.275,51.952-21.24
	c28.61-14.111,68.041-37.915,100.668-73.582c-5.035,10.785-13.322,26.28-25.208,41.646c-12.505,16.169-26.492,29.039-41.574,38.255
	C186.931,336.555,166.372,342.37,144.598,342.37z"/>
<path fill="#1A1A1A" d="M262.68,258.859c-4.58,8.204-10.377,17.404-17.466,26.555c-12.314,15.898-26.069,28.543-40.882,37.58
	c-18.355,11.199-38.453,16.878-59.734,16.878c-4.632,0-9.355-0.271-14.146-0.808c10.893-3.893,25.679-9.775,42.471-18.059
	C198.401,308.439,232.408,288.232,262.68,258.859 M280.868,231.62c-65.839,81.39-170.934,108.767-170.934,108.767
	c12.3,3.092,23.841,4.482,34.663,4.482C242.224,344.869,280.868,231.62,280.868,231.62L280.868,231.62z"/>
<path fill="#1A1A1A" d="M447.963,109.063l-13.497-2.397l11.637,5.335C447.818,111.059,448.278,110.031,447.963,109.063z"/>
<path fill="#1A1A1A" d="M428.697,104.51l-0.118,0.56c-3.064,14.524-13.079,16.092-17.243,16.092
	c-9.177,0-17.297-6.561-17.382-14.095c-1.047-9.423,3.445-12.308,6.531-13.141c2.39,5.303,5.749,7.927,9.99,7.927
	c0.001,0,0.001,0,0.001,0c4.87,0,9.029-3.565,9.204-3.72l0.203-0.147l-0.017-0.254c-0.006-0.092-0.742-9.197-15.754-9.197
	c-1.485,0-3.085,0.094-4.754,0.27l-0.104,0.024c-7.693,2.354-11.837,9.61-10.557,18.168c1.397,9.341,9.264,19.003,21.593,19.003
	h0.004h0.005c15.73-1,20.373-11.444,22.056-17.023c0.21-0.694,0.065-3.479,0.065-3.479L428.697,104.51z"/>
<path fill="#FFFFFF" d="M404.648,92.03c0,0,11.803,1.481,12.263,4.719C417.371,99.988,405.308,93.974,404.648,92.03z"/>
<path fill="#1A1A1A" d="M433,97.366c0,0,10.567,6.954,13.898,12.199c0,0-11.898,6.124-15.898,4.551v3.285l4.891-1.203l5.522-2.221
	l5.283-2.776l0.93-1.636l-0.831-1.695l-4.591-4.905l-3.433-3.794l-3.5-3.424L433,93.155V97.366z"/>
<path fill="#1A1A1A" d="M128.126,336.408c16.255,3.135,55.304,9.037,102.782-30.788l-21.099,17.489l-17.489,9.994l-26.929,7.841
	l-24.43,2.708l-24.152-2.708L128.126,336.408z M184.708,335.325l4.28,2.775l13.019,2.778l13.643-2.5l13.593-8.606
	c-19.46,11.146-38.169,3.694-38.169,3.694L184.708,335.325z M74.266,384.619l26.284,0.121l16.26-4.442l25.818-7.218
	c-29.29,10.25-71.347,3.886-71.347,3.886l-9.993,3.332L74.266,384.619z"/>
<path fill="#1A1A1A" d="M397.158,171.185c-18.643,19.73-42.046,35.374-72.452,45.007c-4.414,1.398-8.362,3.064-0.127,1.093
	c3.286-0.787,7.043-1.773,11.102-2.981c-9.359,15.717-21.01,30.198-34.408,43.739c-2.169,2.192-1.544,2.798,0.924,0.84
	c16.172-12.827,30.005-28.607,41.625-47.187c4.229-1.454,8.652-3.135,13.138-5.071c-13.926,32.221-36.788,57.834-65.198,79.346
	c-2.459,1.862-1.926,2.55,0.795,0.963c32.239-18.803,58.318-48.19,78.704-87.362c4.229-2.382,8.382-5.016,12.338-7.932
	c-9.464,32.703-28.104,60.465-52.503,85.123c-2.171,2.193-1.545,2.797,0.923,0.84c29.569-23.454,51.361-56.732,65.977-99.076
	c1.051-1.202,2.076-2.428,3.048-3.696C429.028,138.331,397.158,171.185,397.158,171.185z"/>
<path fill="#1A1A1A" d="M238.525,126H236v-3.025c0-0.966-0.533-1.75-1.5-1.75c-0.966,0-1.5,0.784-1.5,1.75V126h-2.525
	c-0.966,0-1.75,0.534-1.75,1.5c0,0.967,0.784,1.5,1.75,1.5H233v2.025c0,0.966,0.534,1.75,1.5,1.75c0.967,0,1.5-0.784,1.5-1.75V129
	h2.525c0.966,0,1.75-0.533,1.75-1.5C240.275,126.534,239.492,126,238.525,126z"/>
<path fill="#1A1A1A" d="M349.525,126H347v-3.025c0-0.966-0.533-1.75-1.5-1.75s-1.5,0.784-1.5,1.75V126h-2.525
	c-0.966,0-1.75,0.534-1.75,1.5c0,0.967,0.784,1.5,1.75,1.5H344v2.025c0,0.966,0.533,1.75,1.5,1.75s1.5-0.784,1.5-1.75V129h2.525
	c0.967,0,1.75-0.533,1.75-1.5C351.275,126.534,350.492,126,349.525,126z"/>
<path fill="#1A1A1A" d="M304,138h-5v-2h5c0.828,0,1.5-0.671,1.5-1.5s-0.672-1.5-1.5-1.5h-5v-3c0-0.829-0.672-1.5-1.5-1.5
	s-1.5,0.671-1.5,1.5v3h-5v-3c0-0.829-0.672-1.5-1.5-1.5s-1.5,0.671-1.5,1.5v3h-4v-3c0-0.829-0.672-1.5-1.5-1.5s-1.5,0.671-1.5,1.5v3
	h-4c-0.828,0-1.5,0.671-1.5,1.5s0.672,1.5,1.5,1.5h4v2h-4c-0.828,0-1.5,0.671-1.5,1.5s0.672,1.5,1.5,1.5h4v2
	c0,0.829,0.672,1.5,1.5,1.5s1.5-0.671,1.5-1.5v-2h4v2c0,0.829,0.672,1.5,1.5,1.5s1.5-0.671,1.5-1.5v-2h5v2
	c0,0.829,0.672,1.5,1.5,1.5s1.5-0.671,1.5-1.5v-2h5c0.828,0,1.5-0.671,1.5-1.5S304.828,138,304,138z M284,138v-2h4v2H284z M291,138
	v-2h5v2H291z"/>
<path fill="#FDBA31" d="M214.492,187.664l-0.899-1.166c0,0-0.3-0.633-0.933-0.434c-0.632,0.2-1.398-0.816-0.899-1.516
	c0.5-0.699-0.999-1.591-2.132-1.291c-1.133,0.299-2.965,0.054-2.232-2.079c0.733-2.133,2.265-1.505,2.832-1.072
	c0,0-2.565-1.969-0.232-3.269c2.332-1.299,2.765,1.511,2.765,2.788c0,0,0.5-3.44,2.199-2.807c1.699,0.633-0.858,4.914,0.875,6.68
	c0.507,0.516,1.63,1.302,2.965,2.154c-0.435,0.812-0.805,1.711-1.073,2.791L217.357,190h1.091c-0.203,1-0.277,2.237,0.085,3.55
	l0.343,1.208l1.063-0.395c-0.004,0.539,0.059,1.044,0.186,1.565l0.317,1.293l1.256-0.457c0.106-0.039,0.211-0.073,0.314-0.102
	c0.03,0.43,0.088,0.869,0.166,1.321c-2.966-0.306-6.545-1.244-7.55-3.923c0.468-0.263,0.964-0.17,1.465,0
	c-1.154-1.168-2.152-2.357-2.998-3.565c0.549-0.269,1.151-0.308,1.799-0.15c-1.189-0.885-2.132-1.779-2.832-2.682
	C212.898,187.403,213.72,187.292,214.492,187.664z M282.835,196.685c0,0,1.225,0.25,0.524-0.75
	c-0.698-0.998-9.179-2.071-7.715-4.735c1.009,0.104,8.48,0.7,8.48-4.474c0-5.547-8.345-4.804-8.345-4.804l-22.64,0.097
	c0,0-8.896,0.664-8.896-2.55c0-3.215,6.446-3.1,11.044-0.001l-0.149-1.6c1.35,0.912,3.048,1.661,5.098,2.248
	c-0.222-0.424-0.366-0.839-0.45-1.249c0.948,0.518,2.175,0.942,4.049,1.15l-0.35-1.05c0.933,0.618,2.02,1.161,3.947,1.3
	c-0.303-0.438-0.486-0.884-0.449-1.349c0,0,13.144,1.999,17.141-3.274c-11.192,0.482-22.814,0.369-35.607-1.362
	c0,0-6.709,0.236-6.709,5.084c0,4.848,6.584,4.633,11.532,4.633c4.947,0,22.988,0,22.988,0s5.304,0.133,5.304,2.582
	c0,2.314-5.633,2.257-6.633,2.225v0.014c0,0-8.186-3.777-31.139-0.978c-2.481,0.303-4.512,0.422-6.382,0.383
	c-0.012,0.009,0.038,0.023,0.025,0.032c0.305,2.463,0.023,4.581-0.935,6.604l-0.667,1.443l-0.894-0.795
	c-0.636,1.107-1.438,2.146-2.615,2.914l-1.078,0.705l-0.548-0.99c-0.401,0.484-0.84,0.892-1.326,1.229l-1.096,0.764l-0.642-1.171
	c-0.052-0.096-0.109-0.189-0.169-0.277c-0.74,0.733-1.612,1.415-2.665,2.086l-1.129,0.695c-0.816,1.539-2.087,3.318-4.056,4.889
	c0,0-1.447,1.55-2.247-0.499c-0.799-2.049-3.197-0.699-2.747,0.55c0,0-2.349-0.9-2.399,1.599c-0.05,2.5,2.649,1.6,2.849,1.3
	c0,0,0.101,3.948,2.849,1.399c0,0,0.6-0.7,2.149-0.35c1.549,0.35,2.198,0.899,2.749-1.699c0.549-2.599,0.949-0.05,0.5,1.399
	c0,0,1.449-0.6,2.549-2.599l0.25,1.35c0,0,2.449-2.849,3.299-5.697c0,0,1.25,0.8,1.25,1.35l2.299-3.648c0,0,1.749-1.6,5.047-2.199
	c2.154-0.392,9.782-2.593,17.628-3.212c-1.111,1.958-2.252,5.175,2.296,5.128c6.53-0.067-2.665,6.53-5.131,7.396
	c0,0-1.333-2.999-3.132-1.999c-1.799,1,0.3,2.333,0.3,2.333s-2.965-0.4-2.965,2.033c0,2.432,3.531,0.7,3.93,0
	c0,0-1.466,2.232-0.066,2.499c1.399,0.266,2.666-1.5,3.431-1.932c0.767-0.434,2.833,2.198,3.1-0.667
	c0.266-2.866,2.064-1.234,1.332-0.1c1.329-0.447,2.112-2.109,2.632-4.098l0.966,2.166c0.814-1.417,1.259-2.921,1.533-4.464
	l0.899,1.266c0.663-2.186,0.763-4.374,0.567-6.563c-0.781-0.516-1.646-0.756-2.633-0.6c-0.01-0.797,0.121-1.595,0.331-2.393
	c1.587,0.156,3.112,0.429,4.517,0.86c0,0,3.148,3.498,8.896,2.999c5.747-0.5-0.549,11.794-2.649,5.997c0,0-0.499-1.149-1.898,0.15
	c-1.398,1.299-0.399,2.299-0.399,2.299s-2.499,0.599-1.5,2.799c1,2.199,3.698,0.75,3.698,0.75s-0.1,3.098,1.85,2.599
	s2.799-2.149,2.049-4.048l1.949-0.3c0,0,0.899,0.2,0.5-2.249c0,0,0-1.099,1.799,0.924c0.345-1.213,0.436-2.458,0.175-3.748
	l1.175,0.6c0.568-1.366,0.48-2.607,0-3.773l1.249,0.525C284.81,199.933,284.106,198.259,282.835,196.685z M237.337,183.827
	l2.508-0.386c-0.846,1.692-1.877,3.236-3.577,4.241c0.373,2.193,0.317,4.407-0.752,6.669l-0.862-0.761
	c-0.698,1.494-1.499,2.906-2.912,3.829c-0.274-0.494-0.693-0.825-1.198-1.058c-0.461,0.794-1.026,1.494-1.786,2.024
	c-0.322-0.589-0.748-1.063-1.258-1.444c-0.992,1.226-2.237,2.186-3.6,3.021l1.582-4.186c1.127-0.515,2.1-1.195,2.906-2.051
	c0.397,0.193,0.915,0.745,1.61,1.82c0.454-0.607,0.769-1.328,0.962-2.149c0.483,0.224,0.91,0.543,1.266,0.983
	c1.083-1.798,1.684-3.512,1.495-5.093c-0.668,1.169-1.373,2.313-2.353,3.27c-0.121-0.498-0.354-0.915-0.884-1.113
	c-0.174,0.752-0.521,1.443-0.93,2.112c-0.126-0.685-0.421-1.289-0.857-1.824c-0.733,0.941-1.623,1.691-2.579,2.359l2.152-5.695
	c3.263,0.787,4.81-3.594,4.81-3.594l-0.793-0.158l-1.551,1.456l0.393-1.687l-1.258-0.251l0.376-0.998l0.803,0.398l1.996-0.988
	l-0.562-0.289L230.842,182h-0.001l-1.555-1h-0.75l0.843,1.995l0.865,0.199l-0.377,0.981l-1.109-0.652l-0.822,1.521l-0.2-2.12
	l-0.7-0.407c0,0-1.739,4.308,1.228,5.877l-2.154,5.693c-0.276-1.133-0.447-2.284-0.373-3.475c-0.682,0.112-1.302,0.369-1.849,0.8
	c0.135-0.773,0.333-1.521,0.7-2.199c-0.53-0.203-0.979-0.043-1.4,0.25c-0.102-1.366,0.127-2.689,0.4-4.007
	c-1.188,1.059-1.872,2.743-2.249,4.807c0.558-0.095,1.089-0.052,1.6,0.1c-0.399,0.744-0.64,1.494-0.7,2.25
	c1.231-0.346,1.984-0.417,2.41-0.3c0.039,1.176,0.317,2.329,0.823,3.461l-1.583,4.186c-0.469-1.528-0.768-3.072-0.7-4.648
	c-0.635-0.052-1.268,0.022-1.899,0.25c-0.22-0.899-0.18-1.799,0-2.699c-0.533-0.16-1.066-0.222-1.599-0.032
	c-0.449-1.626-0.114-2.829,0.35-4.829h-1.149c0.695-2,2.118-4.067,3.849-5.466c-0.609-1.878-0.361-3.702,0.125-5.531l1.624,1.957
	c-0.312-1.659-0.288-3.285,0-4.894l1.6,1.751c-0.198-1.116-0.202-2.231,0-3.347l1.449,2.049c-0.004-1.23,0.306-2.366,0.8-3.447
	l1.624,2.898c0.016-1.303,0.45-2.581,1.012-3.848l0.906,3.648c0.688-1.405,1.861-2.584,3.294-3.643l0.002-0.007
	c0.001,0.002,0.001,0.003,0.001,0.005c0.001-0.001,0.002-0.002,0.004-0.003l-0.003,0.008c0.374,1.741,0.473,3.401,0.059,4.911
	l3.093-2.137c-0.418,1.323-0.936,2.568-1.788,3.555l3.136-1.099c-0.346,1.138-0.865,2.194-1.683,3.115l2.443-0.578
	c-0.587,0.971-1.329,1.805-2.216,2.511l2.356-0.253C239.73,181.552,238.669,182.791,237.337,183.827z M230.18,179l-2.623-2.35
	l-0.813,1.581l2.249,0.77H230.18z M236.664,179.992l-3.456-0.05l0.89,0.785l2.163,0.949L236.664,179.992z M213.553,176.25
	c0.284-0.19,0.614-0.308,1.002-0.308c0.225,0,0.456,0.043,0.684,0.128c0.262,0.098,0.467,0.233,0.626,0.399
	c-0.07-0.598-0.437-1.903-2.24-2.866C213.625,173.604,213.776,175.279,213.553,176.25z M214.194,205.273
	c0.405-0.575,1.07-1.079,1.762-1.127c-0.376-0.496-1.338-1.195-3.329-1.147c0,0,1.325,2,1.318,3c0.002,0,0.005,0,0.008,0
	C214.012,206,214.093,205.417,214.194,205.273z M206.64,180.919c0.069-0.198,0.145-0.372,0.225-0.535
	c-0.65,0.117-1.819,0.562-2.703,2.21c0,0,1.355-0.119,2.334,0.02C206.374,182.128,206.418,181.563,206.64,180.919z M209.605,176.141
	c0.335-0.187,0.659-0.308,0.971-0.375c-0.483-0.484-1.47-1.136-3.218-1.014c0,0,0.939,1.235,1.304,2.167
	C208.873,176.651,209.17,176.383,209.605,176.141z M249.353,205.222c0.364-0.202,0.744-0.306,1.129-0.306
	c0.006,0,0.013,0.001,0.02,0.001c-0.205-0.302-1.213-1.566-3.61-1.316c0,0,1.308,1.603,1.513,2.521
	C248.566,205.819,248.852,205.501,249.353,205.222z M268.961,204.179c0,0,1.105,0.767,1.771,1.497
	c0.164-0.295,0.393-0.581,0.688-0.856c0.325-0.302,0.64-0.517,0.946-0.655C271.766,203.849,270.616,203.51,268.961,204.179z
	 M250.792,213.571c-0.53-0.101-0.929-0.402-1.125-0.85c-0.084-0.194-0.124-0.403-0.128-0.617c-0.029,0.01-0.059,0.018-0.088,0.027
	c-0.258,0.562-0.609,1.842,0.382,3.583c0,0,0.7-1.369,1.378-2.104C251.07,213.609,250.93,213.597,250.792,213.571z M269.338,210.834
	c-0.427-0.939-0.338-1.667-0.15-2.153c-0.59,0.153-1.82,0.691-2.535,2.586c0,0,1.817-0.405,2.783-0.251
	C269.402,210.955,269.367,210.898,269.338,210.834z M273.831,214.123c-0.225-0.232-0.391-0.517-0.515-0.815
	c-0.177,0.476-0.524,1.911,0.847,3.66c0,0,0.483-1.432,1.041-2.263C274.674,214.704,274.199,214.503,273.831,214.123z
	 M216.414,212.36c-0.814,0-1.33-0.513-1.645-1.162l-0.324-0.184c0,0-1.147,1.525,0.205,3.9c0,0,1.437-2.815,2.191-2.539l-0.088-0.05
	C216.639,212.346,216.526,212.36,216.414,212.36z M246.277,210.287c0-0.412,0.071-0.791,0.207-1.129
	c-0.637,0.108-1.841,0.542-2.732,2.246c0,0,1.918-0.189,2.84,0.102C246.389,211.18,246.277,210.768,246.277,210.287z
	 M211.493,207.988c0.009-0.428,0.082-0.806,0.206-1.135l-0.016-0.163c0,0-1.907-0.071-3.083,2.396c0,0,2.315-0.316,3.092,0.09
	C211.556,208.834,211.484,208.441,211.493,207.988z"/>
</svg>
