<?xml version="1.0" encoding="utf-8"?>
<!-- Generator: Adobe Illustrator 16.0.3, SVG Export Plug-In . SVG Version: 6.00 Build 0)  -->
<!DOCTYPE svg PUBLIC "-//W3C//DTD SVG 1.1//EN" "http://www.w3.org/Graphics/SVG/1.1/DTD/svg11.dtd">
<svg version="1.1" id="Layer_1" xmlns="http://www.w3.org/2000/svg" xmlns:xlink="http://www.w3.org/1999/xlink" x="0px" y="0px"
	 width="500px" height="500px" viewBox="0 0 500 500" enable-background="new 0 0 500 500" xml:space="preserve">
<path fill="#221F1F" d="M296.42,282.656c59.195,10.668,68.482,40.802,68.482,40.802c1.021-48.972-28.906-104.746-28.906-104.746
	l-12.448,4.227c-5.186-8.604-12.325-16.948-21.277-23.863l11.51-14.721c12.885,6.634,20.855,12.422,20.855,12.422l10.032-16.154
	c-1.505-1.115-3.646-2.661-6.344-4.471c36.331-71.946,101.396-76.638,101.396-76.638c-26.696-11.733-59.174,4.421-59.174,4.421
	l33.668-20.575l-31.288,2.38l1.021-6.292l-11.393,5.441l2.891-6.972c-11.902-5.441-49.992-11.393-49.992-11.393l-8.672,6.972
	l4.081-12.413c-5.611,3.4-15.644,3.4-15.644,3.4l-34.688-2.72v-7.992l-15.474,15.644l1.189-8.842
	c-34.688,2.21-68.016,14.624-68.016,14.624l-4.761,7.482l-4.081-4.591l-7.142,12.413l-4.761-10.033l-4.421,11.223
	c-3.571,2.04-26.696,18.875-26.696,18.875v6.461l-3.741-1.19c-5.101,4.591-34.518,41.49-34.518,41.49l-13.264-1.19l13.264,15.644
	l-17.515-1.701l9.863,11.552l-18.705,3.922l20.065,11.733l-28.567,8.332l9.863,2.21l-3.231,4.591l3.231,3.401l-3.741,1.02
	l-2.891,9.183l4.421,3.4l-6.292,1.701l-4.081,19.895c10.542-9.692,28.227-15.474,28.227-15.474l-15.644,15.474
	c22.088-10.264,38.444-10.131,47.099-8.827c-2.02,5.487-2.888,8.827-2.888,8.827l17.004,6.121
	c2.568-5.065,5.047-12.441,8.628-20.919l15.978,7.65c-6.774,34.641,11.891,73.395,22.666,91.487c0,0,40.81-1.36,76.519,24.486
	c-2.381-7.142-2.381-16.664-2.381-16.664c4.761-18.364,13.264-5.102,13.943,2.381c0.681,7.481,6.121,48.972,6.121,48.972
	c19.726,20.064,89.442,51.692,89.442,51.692c10.542-39.79,0-107.126,0-107.126C319.314,335.042,302.167,300.125,296.42,282.656z"/>
<path fill="#CBA22C" d="M249.425,330.353c-1.529,2.33-2.905,5.328-3.993,9.229c-23.923-11.77-47.013-14.394-57.441-14.96
	c-9.303-16.946-27.647-56.629-15.752-87.994c3.054-8.044,8.03-15.123,14.861-21.217c-0.836-0.407-1.633-0.912-2.382-1.515
	c-6.861,6.265-11.894,13.525-15.023,21.767c-12.583,33.178,7.209,74.737,16.651,91.604c10.365,0.422,35.559,2.912,61.228,16.461
	v-1.592l0.259-1.007c0.856-3.297,1.937-6.063,3.23-8.307C250.438,332.063,249.887,331.234,249.425,330.353z"/>
<path fill="#DA1F35" d="M214.691,74.338c-10.376,2.626-18.371,5.246-21.979,6.491l-3.51,5.496l-4.829,7.604l-3.795-4.271
	l-2.435,4.231l-6.475,11.264l-3.932-8.298l-1.292,0.749c-1.932,1.102-12.937,8.923-23.275,16.432v12.297l-8.556-2.72
	c-6.475,7.292-21.657,26.009-31.193,37.954l-2.271,2.87l-0.381-0.042l2.53,2.993l10.842,12.787l-16.691-1.619l-0.735-0.082
	l6.366,7.469l-11.223,2.354l-1.441,0.299l4.829,2.816l13.644,7.985l-15.167,4.421l-8.361,2.435
	c1.025,0.621,30.357-6.012,30.357-6.012l-5.454-3.192l-12.368-7.238l5.744-1.205l4.484-0.94l-2.972-3.487l-1.99-2.334l10.717,1.04
	l6.674,0.647l-4.337-5.115l-10.839-12.784l-0.88-1.041l1.051-1.327c10.11-12.664,23.376-28.972,29.937-36.52l6.861,2.182
	l3.545,1.127v-14.63c9.193-6.667,17.433-12.509,20.681-14.675l2.639,5.57l2.226,4.699l2.591-4.508l6.474-11.262l0.551-0.958
	l1.288,1.449l2.396,2.697l1.934-3.045l4.825-7.598l2.998-4.694c3.735-1.267,11.09-3.631,20.483-6.021
	C214.838,76.166,214.74,75.254,214.691,74.338z"/>

	
		<path fill="#CBA22C" d="M220.368,243.878c-8.229,0-15.612,3.543-20.771,9.161c4.122-2.354,8.883-3.719,13.97-3.719
			c15.589,0,28.227,12.637,28.227,28.227c0,7.359-2.84,14.04-7.455,19.065c8.509-4.862,14.257-14.006,14.257-24.507
			C248.595,256.516,235.957,243.878,220.368,243.878z"/>
	
	<path fill="#CBA22C" d="M264.238,240.478l1.496,2.094l49.815-16.917c-11.484-18.097-33.088-35.857-65.12-35.861h-0.01
		c-9.782,0-20.089,1.705-30.633,5.067c-22.497,7.173-38.097,18.36-46.542,33.296C225.203,200.087,264.238,240.478,264.238,240.478z"
		/>
	<path fill="#CBA22C" d="M358.024,346.444c-31.054-4.813-48.846-23.117-58.45-38.146c-6.389-9.997-9.982-19.738-11.892-26.257
		l-1.686-0.983c-8.944-1.149-18.875-1.877-29.904-2.053c-2.421,12.549-11.301,22.822-23.037,27.203
		c1.784,10.607,6.169,23.292,16.754,29.125c2.792-6.369,6.878-9.603,12.204-9.603c9.173,0,15.066,11.089,15.795,19.094
		c0.556,6.114,4.477,36.327,5.714,45.804c14.947,13.511,53.73,33.336,75.875,43.873C364.535,403.75,360.028,361.924,358.024,346.444
		z"/>
	<path fill="#CBA22C" d="M256.725,270.855c52.913,0.927,82.142,14.39,98.019,27.152c-4.84-29.274-17.108-57.252-22.867-69.277
		l-79.1,26.859C255.136,260.201,256.539,265.375,256.725,270.855z"/>
	<path fill="#DA1F35" d="M248.372,68.088c-12.901,1.417-25.284,4.072-35.257,6.654c-1.43,12.064-2.217,28.945,1.245,44.894
		c0,0,1.36-17.458,9.522-27.434c0,0-6.349,29.701,4.987,46.705c0,0,12.244,0.227,20.179-8.389v6.348c0,0,20.632,2.041,29.021,3.401
		c8.388,1.36,18.59-3.401,28.792-9.976c0,0-4.308,9.522-7.481,12.243s25.394-16.097,36.275-26.073c0,0-17.458,23.806-25.393,29.927
		c-7.935,6.121,10.43,9.749,19.271-4.761c0,0,1.813,9.75,0,16.777c10.184-12.358,46.781-43.575,69.895-53.555
		c1.124-0.551,2.23-1.07,3.327-1.573c0.644-0.329,1.288-0.651,1.933-0.969c-9.821,1.563-38.766,9.448-38.766,9.448l20.242-19.441
		l-2.723,0.207l-8.612,0.656l0.323-1.992l-15.677,7.488l6.795-16.389l0.152-0.368c-10.957-3.235-29.256-6.581-39.065-8.196
		l-6.315,5.077l-17.895,14.385l7.171-21.811l0.132-0.4c-2.713,0.294-4.745,0.314-5.232,0.314h-0.266l-0.267-0.021l-34.688-2.721
		l-4.189-0.329l-5.918,5.982l-14.287,14.444l2.71-20.135L248.372,68.088z"/>

</svg>
