<?xml version="1.0" encoding="utf-8"?>
<!-- Generator: Adobe Illustrator 16.0.3, SVG Export Plug-In . SVG Version: 6.00 Build 0)  -->
<!DOCTYPE svg PUBLIC "-//W3C//DTD SVG 1.1//EN" "http://www.w3.org/Graphics/SVG/1.1/DTD/svg11.dtd">
<svg version="1.1" id="Layer_1" xmlns="http://www.w3.org/2000/svg" xmlns:xlink="http://www.w3.org/1999/xlink" x="0px" y="0px"
	 width="500px" height="500px" viewBox="0 0 500 500" enable-background="new 0 0 500 500" xml:space="preserve">
<path fill="#828A8F" d="M401.872,46.023v12.878v48.825c8.199,2.335,15.505,4.679,21.858,6.902v20.751
	c9.787,2.404,18.476,4.825,26.014,7.118v90.07c-7.212-2.825-23.403-8.628-47.872-14.432v13.359c0,2.043-0.12,37.012-14.818,78.144
	l-1.915,5.375l-5.271,2.189c-8.122,3.365-16.545,13.059-23.112,26.572c-6.431,13.229-10.277,28.4-10.277,40.583
	c0,1.785,0.095,3.614,0.275,5.417l0.575,5.847l-4.026,4.267c-23.894,25.311-54.218,42.902-90.139,52.303l-3.254,0.85l-3.263-0.85
	c-35.913-9.4-66.245-26.992-90.138-52.303l-4.026-4.267l0.583-5.847c0.172-1.812,0.266-3.632,0.266-5.417
	c0-12.183-3.837-27.354-10.268-40.583c-6.568-13.514-14.999-23.207-23.112-26.572l-5.271-2.189l-1.923-5.375
	c-14.698-41.132-14.819-76.101-14.81-78.144v-13.359c-24.478,5.804-40.669,11.607-47.873,14.432v-90.07
	c7.53-2.292,16.218-4.713,26.005-7.118v-20.751c6.362-2.223,13.66-4.567,21.868-6.902V58.901V46.023h12.878H249.91h139.084H401.872
	 M406.165,41.73h-4.293h-12.878H249.91H110.826H97.948h-4.293v4.293v12.878v45.596c-6.545,1.917-12.919,3.958-18.991,6.079
	l-2.876,1.005v3.047v17.396c-7.945,2.004-15.654,4.141-22.963,6.366l-3.042,0.926v3.181v90.07v6.295l5.86-2.299
	c6.769-2.653,20.858-7.701,42.013-12.967v7.898c-0.006,1.493,0.014,37.482,15.06,79.588l1.923,5.377l0.641,1.789l1.755,0.729
	l5.271,2.188c7.058,2.928,14.869,12.08,20.897,24.484c6.16,12.672,9.836,27.142,9.836,38.707c0,1.598-0.083,3.283-0.247,5.013
	l-0.582,5.825l-0.195,1.948l1.344,1.424l4.026,4.267c24.446,25.896,55.457,43.899,92.173,53.509l3.267,0.853l1.083,0.281
	l1.084-0.283l3.255-0.851c36.714-9.607,67.727-27.61,92.174-53.508l4.027-4.268l1.342-1.422l-0.192-1.945l-0.575-5.846
	c-0.169-1.69-0.254-3.37-0.254-4.997c0-11.553,3.681-26.023,9.846-38.706c6.029-12.409,13.841-21.561,20.894-24.483l5.275-2.19
	l1.758-0.73l0.639-1.793l1.915-5.376c14.645-40.983,15.067-75.754,15.067-79.584v-7.898c21.122,5.26,35.229,10.311,42.014,12.969
	l5.858,2.294v-6.292v-90.07v-3.182l-3.043-0.926c-7.329-2.229-15.041-4.365-22.971-6.365v-17.396v-3.045l-2.875-1.006
	c-6.025-2.109-12.398-4.149-18.983-6.079V58.901V46.023V41.73L406.165,41.73z"/>
<path fill="#FAAC36" d="M395.431,231.513V52.461H104.385V231.48c-0.007,1.433-0.011,35.552,14.437,75.995l0.96,2.688l2.636,1.094
	c21.038,8.729,37.355,46.464,37.355,73.1c0,1.999-0.102,4.036-0.303,6.058l-0.29,2.922l2.016,2.135
	c23.051,24.417,52.351,41.404,87.083,50.488l1.629,0.426l1.629-0.426c34.732-9.085,64.031-26.071,87.083-50.488l2.016-2.135
	l-0.291-2.922c-0.2-2.019-0.302-4.057-0.302-6.058c0-26.636,16.317-64.37,37.354-73.1l2.636-1.094l0.96-2.688
	C395.441,267.032,395.438,232.913,395.431,231.513z"/>
<path fill="#002E43" d="M388.991,58.9v172.612c0,0,0.172,33.955-14.062,73.796c-24.26,10.066-41.326,51.146-41.326,79.047
	c0,2.26,0.115,4.491,0.334,6.693c-19.928,21.108-47.065,39.012-84.03,48.68c-36.965-9.668-64.103-27.571-84.03-48.68
	c0.219-2.202,0.334-4.434,0.334-6.693c0-27.901-17.066-68.98-41.326-79.047c-14.233-39.841-14.062-73.796-14.062-73.796V58.9
	h139.084H388.991 M401.87,46.022h-12.879H249.908H110.824H97.945V58.9v172.594c-0.006,2.043,0.116,37.011,14.813,78.146l1.92,5.375
	l5.271,2.188c8.119,3.368,16.543,13.053,23.114,26.571c6.431,13.229,10.27,28.399,10.27,40.581c0,1.786-0.091,3.61-0.271,5.421
	l-0.581,5.843l4.031,4.271c23.892,25.308,54.218,42.903,90.135,52.298l3.259,0.853l3.259-0.853
	c35.917-9.395,66.242-26.99,90.135-52.298l4.031-4.271l-0.58-5.843c-0.18-1.808-0.271-3.631-0.271-5.421
	c0-12.182,3.839-27.352,10.27-40.581c6.57-13.519,14.995-23.203,23.113-26.571l5.272-2.188l1.92-5.375
	c14.695-41.136,14.818-76.103,14.813-78.146V58.9V46.022L401.87,46.022z"/>
<path fill="#B42431" d="M248.26,333.076l-0.002,0.003L248.26,333.076L248.26,333.076z M290.992,274.61l3.689-5.048l37.576-51.413
	l43.855-60.003V71.779h-22.639h-1.558l-87.879,221.522l-15.755,39.716l4.429-34.062l29.542-227.176h-1.381h-30.965H215.66
	l27.374,219.309l5.233,41.924l0.004,0.035h0l0.001,0.013l0,0.007l0.001,0.005l0,0.005l0,0.003l0-0.003l0-0.006l0.001-0.006
	l0.001-0.013L290.992,274.61z M248.258,333.079l0.005-0.003h-0.002L248.258,333.079z M360.338,243.639v3.246l4.383,1.949v-6.981
	l0.974-1.461v-2.478l3.325-2.694l0.41,7.444l1.785,3.247v2.76l2.272,3.247v6.95c2.594-16.279,2.627-27.124,2.626-27.309v-0.014
	v-0.033v-2.042v-1.092l-7.148,5.854l-3.271,2.678l-7.419,6.075l-1.023,0.837l-0.454,0.373l-108.521,88.867l110.833-89.813
	L360.338,243.639z M248.272,333.072l-0.002-0.003l-0.001-0.005l-0.002-0.006l-0.004-0.012l-12.596-31.751L144.615,71.779h-1.556
	h-19.357v90.858L227.03,304.013l21.23,29.047l0.003,0.005l0.003,0.003l0.002,0.003l0.002,0.003l0.002,0.003l0.002,0.003
	l-0.001-0.003L248.272,333.072z M248.269,333.074l-0.002-0.002l-0.002-0.002l-0.002-0.001l-0.002-0.003l-38.439-31.477l-9.49-7.771
	l-1.123-0.919l-0.567-0.465l-0.1-0.082l-74.839-61.285v0.445v0.033v0.032c0,0.022,0.001,0.218,0.006,0.559
	c0.049,2.922,0.488,17.182,4.379,36.507c0.053,0.264,0.111,0.534,0.166,0.801c0.06,0.294,0.122,0.59,0.184,0.886l4.536,1.556
	l0.406,1.056l3.491,2.517l0.892,6.169l0.044,0.432l11.158,5.153l4.384,2.024l0.574,0.265l94.338,43.57l0.002,0.001l0.001,0.001
	l0.001,0.001h0l0.002,0.001l0.003,0.001l0.005,0.003l-0.003-0.003L248.269,333.074z"/>
<path fill="#002E43" d="M371.215,248.671v-2.76l-1.785-3.247l-0.976-17.695h-2.76v15.423l-0.974,1.461v6.981l-4.383-1.949v-3.246
	l-3.086-0.975v1.624l-1.623-0.325v-4.221l-1.624-1.298v0.812l-0.812-0.163l-0.812-14.125l-1.136-4.059l-1.462-1.136h-6.006
	l-2.598-1.624h-11.364l-6.657,1.624l-4.869,0.325l-2.436-0.812l-11.202-1.137l-2.435,2.111l-4.222,2.111l-0.812,3.896l-0.812,4.058
	l-2.11,3.896l1.136,4.06l0.324,24.921l-1.46,2.84l0.812,6.819l-6.819,2.922l-11.201,7.143l-1.137,1.3l0.812,0.812l-20.941,13.637
	v-0.486l-3.896,0.974l-0.813-0.974l-1.136-11.689l-2.597-0.813l-1.299,0.813v3.084l-3.572,1.786v-0.812h-2.11l-1.461,1.298v7.307
	l-4.059,2.679h-2.922l-1.299,1.703l-3.734,0.488l-0.812-0.649l-12.987,0.161l-0.65-1.298l-2.435-0.648l-4.221-0.163l-2.354-0.974
	l-1.055-0.65v-2.923l-1.298-0.566l-1.136-3.815h-0.731v1.704l-0.649-2.029l-0.649,6.088l-0.649,0.361l-4.298-10.843l-1.572-11.648
	v-7.512v-3.864l-4.078-5.724l-7.297,0.787l-7.941-1.287l-8.514-0.358l-8.442,2.146v9.587l-1.932,7.941l-0.858,2.791l-0.945,3.51
	l-0.472-1.148h-0.731l-1.218,4.059v2.354l-6.169,0.567v0.569l-2.597,0.73l-0.649,0.486l-0.406,0.406l-0.406-3.978l-0.406-1.055
	l-0.569-5.521l-0.892-6.169l-3.491-2.517l-0.406-1.056l-4.536-1.556c1.658,7.95,3.893,16.693,6.918,25.826
	c11.895,6.874,22.703,19.549,30.874,36.357c1.699,3.495,3.244,7.119,4.639,10.805c5.22,13.788,8.223,28.496,8.223,41.037
	c0,0.587-0.006,1.176-0.02,1.767c19.182,18.927,42.972,32.451,70.838,40.265c27.866-7.814,51.656-21.338,70.838-40.265
	c-0.014-0.591-0.021-1.18-0.021-1.767c0-12.541,3.003-27.249,8.224-41.037c1.395-3.686,2.939-7.31,4.638-10.805
	c8.171-16.809,18.979-29.483,30.873-36.357c4.566-13.783,7.338-26.685,9.027-37.288v-6.95L371.215,248.671z"/>
<path fill="#828A8F" d="M287.117,364.133c-2.76-4.397-6.452-7.863-9.773-11.699c1.356-4.286,1.967-9.32,2.615-14.313
	c0.666,0.348,1.346,0.684,2.021,1.025c-4.748-6.974-11.723-12.306-19.9-14.978c0.48,0.496,0.923,1.026,1.225,1.701
	c-4.94,1.475-9.14,3.691-13.201,6.048c-4.061-2.356-8.26-4.573-13.202-6.048c0.302-0.675,0.747-1.205,1.226-1.701
	c-8.179,2.672-15.154,8.004-19.901,14.978c0.675-0.342,1.355-0.678,2.02-1.025c0.648,4.993,1.258,10.027,2.616,14.313
	c-3.321,3.836-7.014,7.302-9.773,11.699c-0.561-0.623-1.043-1.326-1.502-2.055c0.255,7.869,2.866,15.14,7.156,21.132
	c-0.078-0.858-0.118-1.702-0.149-2.56c4.572,1.208,9.437,2.125,14.728,2.615c2.103,4.735,4.838,9.567,7.157,13.626
	c-0.8,0.146-1.509,0.383-2.25,0.588c3.74,1.21,7.729,1.867,11.874,1.867c4.142,0,8.131-0.657,11.874-1.867
	c-0.743-0.205-1.448-0.442-2.251-0.588c2.319-4.059,5.056-8.891,7.157-13.626c5.292-0.49,10.155-1.407,14.729-2.615
	c-0.029,0.857-0.072,1.701-0.148,2.56c4.289-5.992,6.901-13.263,7.156-21.132C288.159,362.807,287.68,363.51,287.117,364.133z
	 M259.037,372.116h-17.87l-5.918-17.344l14.854-10.747l14.853,10.747L259.037,372.116z"/>

	<path fill="#FFFFFF" d="M277.819,339.241c-4.127-5.942-10.191-10.485-17.303-12.762c-3.278-1.05-6.778-1.619-10.414-1.619
		s-7.134,0.569-10.413,1.619c-7.112,2.276-13.177,6.819-17.304,12.762c-3.656,5.259-5.793,11.614-5.793,18.459
		c0,0.363,0.008,0.723,0.02,1.083c0.222,6.703,2.492,12.899,6.223,18.006c4.129,5.657,10.047,9.974,16.944,12.158
		c3.252,1.03,6.721,1.592,10.324,1.592c3.602,0,7.071-0.562,10.325-1.592c6.896-2.185,12.813-6.501,16.943-12.158
		c3.729-5.106,6-11.303,6.223-18.006c0.01-0.36,0.021-0.72,0.021-1.083C283.614,350.855,281.475,344.5,277.819,339.241z"/>

<path fill="#002E43" d="M213.089,364.133c-0.561-0.623-1.043-1.326-1.502-2.055c-0.015-0.421-0.023-0.844-0.023-1.271
	c0-8.032,2.458-15.49,6.663-21.662c0.675-0.342,1.355-0.678,2.02-1.025c0.648,4.993,1.258,10.027,2.616,14.313
	C219.541,356.27,215.849,359.735,213.089,364.133z M277.344,352.434c3.321,3.836,7.014,7.302,9.773,11.699
	c0.563-0.623,1.042-1.326,1.502-2.055c0.013-0.421,0.023-0.844,0.023-1.271c0-8.032-2.46-15.49-6.663-21.662
	c-0.675-0.342-1.354-0.678-2.021-1.025C279.311,343.113,278.7,348.147,277.344,352.434z M250.103,331.917
	c4.061-2.356,8.26-4.573,13.201-6.048c-0.302-0.675-0.744-1.205-1.225-1.701c-3.77-1.231-7.795-1.899-11.976-1.899
	c-4.181,0-8.205,0.668-11.976,1.899c-0.479,0.496-0.924,1.026-1.226,1.701C241.843,327.344,246.042,329.561,250.103,331.917z
	 M233.322,383.266c-5.291-0.49-10.155-1.407-14.728-2.615c0.031,0.857,0.071,1.701,0.149,2.56
	c4.749,6.639,11.555,11.704,19.486,14.27c0.741-0.205,1.45-0.442,2.25-0.588C238.16,392.833,235.425,388.001,233.322,383.266z
	 M266.883,383.266c-2.102,4.735-4.838,9.567-7.157,13.626c0.803,0.146,1.508,0.383,2.251,0.588
	c7.931-2.565,14.736-7.631,19.486-14.27c0.076-0.858,0.119-1.702,0.148-2.56C277.038,381.858,272.175,382.775,266.883,383.266z
	 M235.25,354.772l5.918,17.344h17.87l5.919-17.344l-14.853-10.747L235.25,354.772z"/>
<path fill="#828A8F" d="M268.017,297.959l10.589-7.727l5.724-3.577l-3.005-1.288l7.298-4.722l11.161-5.438v-6.01l2.862-9.302
	l-0.859-13.164l-1.86-12.449l2.72-5.723l3.863-4.722h6.725h8.586l-13.594,6.01l-2.29,10.302l1.002,6.439l5.438,5.724l-6.296,8.013
	l-0.144-4.579l-2.861,8.3l-1.288,5.151l2.004,4.722l1.717,1.001l3.72,0.717l4.723-1.861l-8.014,6.726l-8.871,2.29l-5.438,0.715
	l-2.003,4.293L268.017,297.959z M248.699,287.996l-1.073-0.268l-0.859,0.697l-0.268,2.575l-3.756,2.039l2.576-0.697l1.181,0.161
	l1.02,4.453l-0.107-5.58l-0.805,0.161l0.858-2.844L248.699,287.996z M240.865,292.343l-1.288,0.966v6.225L240.865,292.343z
	 M181.447,272.06l3.578,13.451l-3.578-0.144l4.65,7.154v-2.003l4.65,5.151l1.717,4.722l-0.286,1.86l3.434,1.574l2.433-2.29
	l-2.576,0.716l-1.574-1.86l-5.008-10.875l-1.145-13.308v-9.301l-3.291-3.148l-5.581,0.859l-4.722-1.718L181.447,272.06z
	 M137.161,288.587l-1.86-11.662l-2.719-1.145l-1.216-1.646L137.161,288.587z M200.084,294.489l-0.25,2.504l1.646,2.253v-1.681
	l-0.894-0.537l-0.358-1.681L200.084,294.489z M367.106,247.664l0.286-6.368l-1.287,2.29v10.445L367.106,247.664z"/>
<path fill="#828A8F" d="M269.105,386.246l-4.641,5.689c1.276-2.349,2.49-4.693,3.574-7.058c2.512-0.26,4.978-0.629,7.438-1.092
	L269.105,386.246z M279.676,350.379l2.933-6.881c-0.412-0.772-0.853-1.532-1.322-2.277
	C280.871,344.343,280.387,347.465,279.676,350.379z M218.919,341.221c-0.458,0.727-0.887,1.467-1.291,2.219l2.818,6.612
	C219.779,347.232,219.319,344.226,218.919,341.221z M224.729,383.786l6.37,2.46l4.624,5.668c-1.21-2.231-2.459-4.648-3.557-7.036
	C229.655,384.618,227.188,384.249,224.729,383.786z M261.666,355.768l-11.563-8.442l-11.563,8.442l11.563-5.295L261.666,355.768z"/>
<path fill="#FFFFFF" d="M413.86,190.029c-26.778-9.953-81.988-25.835-161.504-25.835c-0.568,0-2.455,0.01-2.455,0.01
	s-1.875-0.01-2.443-0.01c-79.516,0-134.726,15.883-161.503,25.835V121.71c33.076-10.849,87.705-23.625,161.503-23.625l2.461,0.01
	l2.437-0.01c73.799,0,128.427,12.775,161.504,23.625V190.029z"/>
<path fill="#FAAC36" d="M252.356,99.374c72.972,0,127.144,12.515,160.216,23.271v65.538c-27.471-10.01-82.182-25.277-160.216-25.277
	c-0.57,0-1.137,0.003-1.701,0.006l-0.735,0.004l-0.759-0.004c-0.566-0.003-1.132-0.006-1.703-0.006
	c-78.036,0-132.745,15.267-160.215,25.277v-65.538c33.071-10.756,87.243-23.271,160.215-23.271c0.435,0,0.867,0.002,1.302,0.005
	l1.176,0.005l1.122-0.005C251.489,99.376,251.922,99.374,252.356,99.374 M252.356,96.798c-0.44,0-0.877,0.002-1.313,0.005
	l-1.119,0.005l-1.153-0.005c-0.437-0.002-0.873-0.005-1.313-0.005c-73.666,0-128.405,12.606-162.791,23.981v71.109
	c25.926-9.836,81.671-26.406,162.791-26.406c0.566,0,1.127,0.003,1.688,0.006l0.761,0.003l0.761-0.003
	c0.561-0.003,1.122-0.006,1.688-0.006c81.118,0,136.864,16.57,162.791,26.406v-71.109
	C380.762,109.404,326.021,96.798,252.356,96.798L252.356,96.798z"/>
<path fill="#FFFFFF" d="M59.947,149.876c6.205-1.779,12.696-3.501,19.334-5.129v59.767h25.943v1.83
	c-20.055,4.358-35.43,8.932-45.277,12.194V149.876z M439.869,218.538c-9.85-3.263-25.227-7.836-45.278-12.195v-1.829h27.062v-59.494
	c6.225,1.54,12.34,3.17,18.217,4.856V218.538z"/>
<path fill="#FAAC36" d="M77.993,146.392v56.835v2.576h2.576h21.132c-17.438,3.907-31.129,7.919-40.466,10.958v-65.912
	C66.64,149.31,72.257,147.816,77.993,146.392 M422.94,146.668c5.329,1.336,10.57,2.737,15.641,4.179v65.913
	c-9.338-3.039-23.029-7.051-40.464-10.958h22.247h2.576v-2.576V146.668 M80.568,143.108c-7.957,1.926-15.272,3.88-21.909,5.799
	v71.42c10.872-3.67,26.924-8.439,47.853-12.944v-4.156H80.568V143.108L80.568,143.108z M420.364,143.377v59.85h-27.062v4.155
	c20.93,4.506,36.982,9.274,47.854,12.945v-71.42C434.829,147.078,427.892,145.216,420.364,143.377L420.364,143.377z"/>
<path fill="#002E43" d="M106.512,216.182c-29.291,6.413-48.42,13.24-56.438,16.385v-90.07c8.665-2.632,18.855-5.44,30.495-8.206
	v8.817c-7.957,1.926-15.272,3.88-21.909,5.799v71.42c10.872-3.67,26.924-8.439,47.853-12.944V216.182z M420.364,134.555v8.822
	c7.527,1.839,14.465,3.701,20.792,5.53v71.42c-10.871-3.67-26.924-8.439-47.854-12.945v8.8c29.291,6.413,48.421,13.24,56.439,16.385
	v-90.07C441.353,139.949,431.544,137.235,420.364,134.555z"/>
<path fill="#002E43" d="M106.512,189.777v26.9l-30.429-11.978L106.512,189.777z M393.303,189.777v26.9l30.431-11.978
	L393.303,189.777z"/>
<path fill="#002E43" d="M252.356,88.212c-0.821,0-1.632,0.008-2.449,0.01c-0.817-0.002-1.627-0.01-2.449-0.01
	c-80.219,0-138.376,14.892-171.376,26.417v90.07c15.023-6.772,74.859-30.632,171.376-30.632c0.822,0,1.632,0.006,2.449,0.01
	c0.817-0.003,1.627-0.01,2.449-0.01c96.517,0,156.354,23.86,171.377,30.632v-90.07C390.733,103.104,332.576,88.212,252.356,88.212z
	 M415.147,191.888c-25.927-9.836-81.673-26.406-162.791-26.406c-0.565,0-1.127,0.003-1.688,0.006l-0.761,0.003l-0.761-0.003
	c-0.561-0.003-1.122-0.006-1.688-0.006c-81.119,0-136.864,16.57-162.791,26.406v-71.109c34.386-11.375,89.125-23.981,162.791-23.981
	c0.44,0,0.877,0.002,1.313,0.005l1.153,0.005l1.119-0.005c0.436-0.002,0.872-0.005,1.313-0.005
	c73.665,0,128.405,12.606,162.791,23.981V191.888z"/>

	<path fill="#002E43" d="M104.014,153.396c-0.371,0.099-0.557,0.148-0.928,0.248c0,5.369,0,8.055,0,13.424
		c-3.341,0.893-5.008,1.354-8.339,2.298c0-12.117,0-24.234,0-36.351c3.516-0.998,5.276-1.48,8.803-2.421
		c9.796-2.611,15.454,0.292,15.454,7.521C119.004,145.293,113.347,150.917,104.014,153.396z M109.795,136.66
		c-1.122-0.542-2.893-0.451-5.831,0.33c-0.351,0.094-0.527,0.141-0.878,0.235c0,3.965-0.001,5.948-0.001,9.914
		c0.31-0.083,0.465-0.125,0.774-0.207c5.054-1.344,7.588-3.667,7.588-7.075C111.448,138.36,110.824,137.157,109.795,136.66z
		 M147.096,157.144c0-6.196,0-9.294,0-15.49c-5.762,1.062-8.638,1.631-14.38,2.841c0,6.196,0,9.295,0,15.491
		c-3.495,0.737-5.241,1.119-8.729,1.912c0-12.117,0-24.234,0-36.351c3.487-0.793,5.234-1.174,8.729-1.912c0,5.369,0,8.055,0,13.425
		c5.742-1.211,8.618-1.78,14.38-2.841c0-5.37,0-8.056,0-13.426c3.508-0.646,5.265-0.954,8.78-1.545
		c-0.001,12.116-0.001,24.233,0,36.35C152.361,156.188,150.604,156.498,147.096,157.144z M179.431,153.384
		c-10.003,1.376-18.461-6.309-18.355-16.811c0.109-10.831,7.92-20.633,18.355-22.017c10.147-1.345,18.503,6.95,18.408,17.413
		C197.741,142.837,189.813,151.956,179.431,153.384z M179.431,122.818c-5.619,0.704-9.342,5.689-9.342,12.402
		s3.723,10.608,9.342,9.904c5.62-0.704,9.356-5.534,9.356-12.246S185.051,122.114,179.431,122.818z M202.41,149.742
		c0-12.117,0-24.233,0-36.349c8.724-0.733,13.091-1.017,21.83-1.414c0,2.975,0.001,4.463,0.001,7.437
		c-5.193,0.235-7.789,0.382-12.977,0.737c0,2.686,0,4.027,0,6.712c4.303-0.294,6.456-0.42,10.761-0.632c0,2.974,0,4.461,0,7.436
		c-4.306,0.212-6.458,0.338-10.761,0.632c0,2.933,0.001,4.399,0.001,7.332c5.188-0.354,7.783-0.501,12.976-0.737
		c0,2.974,0,4.46,0,7.434C215.502,148.726,211.134,149.009,202.41,149.742z M263.688,149.156
		c-7.808-7.228-15.695-14.364-23.659-21.406c0,8.034,0.001,12.051,0.001,20.085c-3.211,0.055-4.817,0.095-8.027,0.196
		c0.001-12.529,0-25.059,0-37.588c0.379-0.012,0.57-0.019,0.95-0.03c7.962,6.979,15.849,14.05,23.657,21.213
		c0.001-8.076,0.001-12.113,0-20.188c3.212,0.038,4.816,0.069,8.026,0.152c0,12.53,0,25.06,0,37.589
		C264.257,149.17,264.066,149.165,263.688,149.156z M273.398,148.236c0.001-12.117,0-24.234,0-36.351
		c3.547,0.147,5.319,0.235,8.863,0.438c0,12.117,0.001,24.234,0,36.35C278.718,148.471,276.945,148.384,273.398,148.236z
		 M314.853,151.48c-3.659-5.378-5.49-8.052-9.153-13.371c-3.39,4.623-5.085,6.946-8.478,11.618
		c-3.899-0.326-5.847-0.473-9.749-0.732c5.316-7.165,7.971-10.716,13.277-17.756c-5.267-7.496-7.9-11.214-13.174-18.587
		c4.408,0.293,6.611,0.462,11.016,0.842c2.991,4.43,4.486,6.656,7.476,11.125c2.905-3.882,4.359-5.815,7.262-9.661
		c3.807,0.428,5.708,0.658,9.509,1.15c-4.725,6.039-7.093,9.082-11.825,15.219c4.867,7.137,9.698,14.302,14.503,21.484
		C321.255,152.239,319.12,151.972,314.853,151.48z M357.133,129.061c0,2.933,0,4.399,0,7.332c4.256,0.818,6.379,1.249,10.622,2.149
		c0,2.974,0,4.461,0,7.436c-4.243-0.9-6.366-1.332-10.622-2.149c0,5.659,0,8.488,0,14.147c-3.504-0.674-5.259-0.998-8.771-1.616
		c0-12.117,0-24.233,0-36.35c8.652,1.524,12.97,2.37,21.576,4.232c0,2.973,0,4.461,0,7.435
		C364.824,130.571,362.265,130.047,357.133,129.061z M404.348,167.406c-3.7,1.072-7.049,1.037-11.332-0.079
		c-2.839-0.739-5.543-1.823-7.647-3.224c-6.851-4.561-11.19-12.302-11.401-20.8c-0.263-10.655,8.877-17.586,18.636-14.911
		c1.676,0.459,3.476,1.106,5.156,1.984c2.362,1.231,3.607,2.06,6.488,4.474c-0.289,3.635-0.433,5.455-0.722,9.091
		c-0.719-0.925-1.287-1.607-1.801-2.206c-2.278-2.655-5.562-4.773-8.554-5.553c-6.142-1.601-10.287,2.016-10.287,8.78
		c0,7.074,4.249,12.563,10.957,14.319c2.581,0.676,5.221,0.8,7.318,0.42c1.479-0.268,2.264-0.561,3.909-1.591
		C404.78,161.829,404.637,163.687,404.348,167.406z"/>

</svg>
