<?xml version="1.0" encoding="utf-8"?>
<!-- Generator: Adobe Illustrator 16.0.3, SVG Export Plug-In . SVG Version: 6.00 Build 0)  -->
<!DOCTYPE svg PUBLIC "-//W3C//DTD SVG 1.1//EN" "http://www.w3.org/Graphics/SVG/1.1/DTD/svg11.dtd">
<svg version="1.1" id="Layer_1" xmlns="http://www.w3.org/2000/svg" xmlns:xlink="http://www.w3.org/1999/xlink" x="0px" y="0px"
	 width="500px" height="500px" viewBox="0 0 500 500" enable-background="new 0 0 500 500" xml:space="preserve">

	<path fill="#F1CC5D" d="M249.784,465.798l-4.447-2.146c-56.508-33.585-86.128-76.642-101.449-113.124l0,0
		c-15.539-36.97-16.54-67.179-16.546-74.522l0,0c0-0.835,0.013-1.374,0.021-1.598l0,0v-18.88l5.2,0.894
		c0.553,0.097,1.047,0.145,1.504,0.142l0,0c2.539-0.001,4.815-1.049,6.537-2.826l0,0c1.711-1.783,2.791-4.248,2.791-7.033l0,0
		c0-2.788-1.08-5.254-2.791-7.036l0,0c-1.722-1.778-3.999-2.826-6.537-2.829l0,0c-0.46,0-0.954,0.049-1.504,0.143l0,0l-5.2,0.897
		v-79.489v-17.01c-4.6-2.613-7.634-7.615-7.638-13.292l0,0c0.005-5.372,2.719-10.144,6.912-12.856l0,0
		c-0.006-0.058-0.011-0.121-0.019-0.19l0,0c-0.035-0.385-0.073-0.775-0.114-1.178l0,0c-0.009-0.101-0.019-0.202-0.03-0.303l0,0
		c-0.049-0.475-0.099-0.958-0.152-1.434l0,0c-0.012-0.107-0.023-0.209-0.034-0.307l0,0c-0.045-0.414-0.094-0.831-0.145-1.26l0,0
		c-0.015-0.129-0.03-0.25-0.045-0.375l0,0c-0.06-0.502-0.125-1.007-0.192-1.537l0,0c-0.006-0.049-0.017-0.131-0.032-0.237l0,0
		c-0.056-0.438-0.119-0.883-0.181-1.331l0,0c-0.02-0.15-0.041-0.295-0.062-0.434l0,0c-0.075-0.528-0.152-1.055-0.227-1.555l0,0
		c-0.005-0.035-0.017-0.101-0.03-0.182l0,0c-0.073-0.479-0.15-0.96-0.231-1.447l0,0c-0.024-0.156-0.052-0.316-0.079-0.476l0,0
		c-0.08-0.475-0.16-0.946-0.247-1.422l0,0c-0.016-0.105-0.028-0.173-0.038-0.217l0,0c-0.092-0.52-0.193-1.048-0.297-1.59l0,0
		c-0.028-0.141-0.058-0.296-0.091-0.468l0,0c-0.087-0.434-0.175-0.87-0.268-1.314l0,0c-0.03-0.144-0.053-0.257-0.071-0.345l0,0
		c-0.111-0.519-0.226-1.042-0.34-1.551l0,0c-0.036-0.155-0.073-0.313-0.113-0.481l0,0c-0.092-0.406-0.19-0.814-0.293-1.232l0,0
		c-0.038-0.158-0.074-0.299-0.102-0.421l0,0c-0.129-0.514-0.261-1.023-0.396-1.527l0,0c-0.03-0.114-0.069-0.251-0.112-0.413l0,0
		c-0.109-0.399-0.222-0.797-0.334-1.192l0,0c-0.051-0.177-0.094-0.327-0.132-0.453l0,0c-0.149-0.5-0.297-0.993-0.449-1.468l0,0
		c-0.023-0.071-0.061-0.184-0.109-0.333l0,0c-0.128-0.396-0.257-0.79-0.393-1.18l0,0c-0.057-0.162-0.105-0.308-0.15-0.437l0,0
		c-0.171-0.485-0.34-0.953-0.505-1.389l0,0c-0.009-0.024-0.038-0.094-0.086-0.218l0,0c-0.151-0.395-0.311-0.79-0.473-1.184l0,0
		c-0.056-0.137-0.112-0.272-0.169-0.404l0,0c-0.175-0.413-0.35-0.812-0.515-1.178l0,0c-0.035-0.074-0.056-0.121-0.064-0.141l0,0
		l0.778-0.342l-0.78,0.34c-0.186-0.404-0.383-0.812-0.592-1.226l0,0c-0.051-0.101-0.11-0.217-0.181-0.353l0,0
		c-0.174-0.336-0.351-0.666-0.529-0.986l0,0c-0.076-0.138-0.109-0.199-0.111-0.202l0,0c-0.203-0.359-0.415-0.712-0.641-1.071l0,0
		c-0.041-0.066-0.101-0.158-0.176-0.276l0,0c-0.183-0.282-0.365-0.555-0.549-0.819l0,0c-0.092-0.13-0.145-0.208-0.148-0.212l0,0
		c-0.222-0.311-0.448-0.607-0.681-0.898l0,0c-0.003-0.005-0.058-0.07-0.167-0.199l0,0c-0.186-0.226-0.375-0.446-0.575-0.662l0,0
		c-0.1-0.111-0.158-0.175-0.167-0.186l0,0c-0.236-0.251-0.47-0.483-0.697-0.696l0,0v0c-0.022-0.019-0.071-0.061-0.147-0.13l0,0
		c-0.191-0.172-0.391-0.34-0.599-0.506l0,0c-0.1-0.08-0.158-0.127-0.183-0.145l0,0c-0.241-0.184-0.465-0.345-0.65-0.465l0,0
		c-0.032-0.019-0.083-0.049-0.156-0.093l0,0c-0.193-0.123-0.406-0.242-0.639-0.362l0,0c-0.08-0.042-0.146-0.075-0.191-0.097l0,0
		c-0.29-0.143-0.532-0.248-0.729-0.323l0,0l-2.891-1.079v-3.084c0.008-0.348,0.019-1.563,0.632-3.214l0,0
		c0.589-1.625,1.983-3.79,4.489-5.103l0,0c1.65-0.878,3.647-1.335,5.864-1.331l0,0c5.135,0.047,11.593,2.159,21.338,7.797l0,0
		l0.567,0.329l0.377,0.406c0.013,0.011,0.032,0.027,0.057,0.047l0,0c0.104,0.086,0.313,0.24,0.609,0.404l0,0
		c0.602,0.325,1.506,0.684,2.853,0.688l0,0c1.647-0.01,4.153-0.527,7.796-3.129l0,0c2.109-1.459,3.909-2.525,6.529-2.605l0,0
		c1.816-0.1,4.125,1.05,5.105,2.68l0,0c1.024,1.584,1.18,3.056,1.199,4.362l0,0c-0.013,1.908-0.448,3.712-1.105,5.588l0,0
		c-0.666,1.862-1.586,3.76-2.739,5.586l0,0c-1.278,1.973-2.792,3.921-4.663,5.533l0,0c3.221,3.248,7.145,5.863,11.175,6.955l0,0
		c0.88,0.243,1.816,0.363,2.802,0.363l0,0c4.867,0.101,11.043-3.35,14.118-7.349l0,0c0.563-0.746,0.71-1.16,0.939-2.169l0,0
		c0.218-0.982,0.347-2.547,0.857-4.554l0,0c0.148-0.568,0.373-1.385,0.78-2.323l0,0c0.428-0.929,0.974-2.06,2.319-3.178l0,0
		c0.879-0.733,2.3-1.372,3.806-1.355l0,0c0.212,0,0.349,0.011,0.406,0.013l0,0c2.219,0.168,3.768,1.276,4.825,2.279l0,0
		c1.075,1.037,1.828,2.136,2.478,3.208l0,0c1.261,2.107,2.136,4.292,2.52,5.07l0,0c1.247,2.572,2.958,4.233,5.146,5.414l0,0
		c2.181,1.164,4.895,1.769,7.858,1.767l0,0c5.156,0.023,10.959-1.897,15.153-4.955l0,0c3.26-2.372,5.428-5.198,6.253-8.145l0,0
		c-3.75-1.304-9.787-3.679-14.825-6.994l0,0c-2.635-1.771-5.085-3.791-6.796-6.589l0,0c-0.918-1.523-1.591-3.364-1.645-5.374l0,0
		c-0.045-0.263-0.072-0.551-0.077-0.863l0,0c-0.009-0.855,0.249-1.827,0.707-2.602l0,0c0.455-0.785,1.049-1.374,1.651-1.821l0,0
		c1.224-0.885,2.512-1.358,4.243-1.802l0,0c3.02-0.734,7.526-1.254,15.101-1.38l0,0c0.163-0.544,0.348-1.133,0.556-1.753l0,0
		c1.003-2.917,2.419-6.492,4.834-9.533l0,0c0.885-1.092,1.974-2.191,3.329-3.036l0,0l4.445-1.516l4.449,1.516
		c1.354,0.845,2.444,1.944,3.329,3.036l0,0c1.623,2.03,2.76,4.29,3.669,6.441l0,0c0.735,1.756,1.303,3.448,1.721,4.843l0,0
		c4.597,0.077,8.071,0.304,10.756,0.629l0,0c3.328,0.413,5.425,0.914,7.16,1.714l0,0c1.133,0.544,2.254,1.278,3.078,2.661l0,0
		c0.458,0.777,0.714,1.748,0.705,2.604l0,0c-0.003,0.31-0.031,0.595-0.075,0.856l0,0c-0.054,2.013-0.725,3.854-1.646,5.38l0,0
		c-0.968,1.606-2.2,2.939-3.554,4.132l0,0c-2.711,2.369-5.948,4.222-9.117,5.767l0,0c-3.331,1.614-6.59,2.86-8.948,3.685l0,0
		c0.824,2.946,2.993,5.772,6.252,8.144l0,0c4.19,3.058,9.995,4.979,15.154,4.957l0,0c2.961,0,5.676-0.605,7.857-1.769l0,0
		c2.188-1.178,3.902-2.841,5.15-5.417l0,0c0.273-0.56,0.866-1.98,1.644-3.491l0,0c0.811-1.533,1.756-3.228,3.352-4.783l0,0
		c1.057-1.002,2.604-2.11,4.826-2.279l0,0v0c0.217-0.016,0.343-0.012,0.405-0.014l0,0c1.504-0.017,2.925,0.624,3.803,1.355l0,0
		c0.905,0.736,1.432,1.507,1.826,2.189l0,0c0.766,1.367,1.066,2.544,1.276,3.306l0,0c0.512,2.013,0.638,3.577,0.857,4.56l0,0
		c0.228,1.01,0.376,1.423,0.938,2.169l0,0c3.075,3.998,9.252,7.45,14.118,7.349l0,0c0.986,0,1.919-0.12,2.802-0.363l0,0
		c4.044-1.095,7.983-3.726,11.182-6.957l0,0c-1.017-0.882-1.931-1.859-2.762-2.872l0,0c-2.082-2.573-3.646-5.455-4.648-8.246l0,0
		c-0.658-1.875-1.09-3.68-1.103-5.589l0,0c0.018-1.305,0.174-2.776,1.198-4.361l0,0c0.979-1.631,3.291-2.78,5.104-2.68l0,0
		c2.623,0.081,4.422,1.146,6.531,2.603l0,0c3.643,2.605,6.146,3.122,7.796,3.133l0,0c2.158,0.008,3.354-1.001,3.522-1.145l0,0
		l0.373-0.402l0.568-0.329c9.743-5.639,16.203-7.75,21.34-7.797l0,0c2.215-0.004,4.212,0.453,5.862,1.331l0,0
		c1.651,0.869,2.866,2.135,3.62,3.35l0,0c1.507,2.467,1.478,4.516,1.501,4.967l0,0v3.084l-2.892,1.079
		c-0.197,0.076-0.439,0.181-0.731,0.323l0,0c-0.05,0.024-0.114,0.057-0.187,0.097l0,0c-0.233,0.12-0.446,0.238-0.689,0.393l0,0
		c-0.038,0.023-0.069,0.042-0.095,0.055l0,0c-0.198,0.129-0.42,0.287-0.646,0.457l0,0c-0.036,0.028-0.105,0.083-0.208,0.164l0,0
		c-0.197,0.16-0.394,0.326-0.613,0.521l0,0c-0.063,0.058-0.107,0.096-0.128,0.115l0,0c0,0,0,0,0.01-0.012l0,0
		c-0.232,0.216-0.468,0.452-0.692,0.692l0,0c-0.024,0.026-0.088,0.094-0.185,0.204l0,0c-0.192,0.21-0.382,0.428-0.574,0.661l0,0
		c-0.102,0.123-0.156,0.184-0.162,0.195l0,0c-0.232,0.288-0.456,0.586-0.682,0.899l0,0c0,0-0.053,0.075-0.145,0.207l0,0
		c-0.188,0.267-0.37,0.539-0.559,0.833l0,0c-0.073,0.117-0.132,0.201-0.166,0.259l0,0c-0.228,0.365-0.444,0.724-0.648,1.082l0,0
		c0,0-0.025,0.052-0.106,0.195l0,0c-0.177,0.319-0.356,0.654-0.524,0.98l0,0c-0.068,0.13-0.13,0.253-0.181,0.35l0,0
		c-0.214,0.425-0.414,0.836-0.584,1.204l0,0c0,0-0.016,0.033-0.059,0.134l0,0c-0.18,0.388-0.359,0.802-0.536,1.219l0,0
		c-0.056,0.133-0.108,0.261-0.163,0.396l0,0c-0.168,0.404-0.331,0.81-0.481,1.203l0,0c-0.047,0.121-0.072,0.184-0.072,0.188l0,0
		c-0.175,0.456-0.346,0.928-0.521,1.429l0,0c-0.043,0.123-0.09,0.254-0.134,0.389l0,0c-0.143,0.412-0.281,0.825-0.425,1.269l0,0
		c-0.034,0.107-0.06,0.182-0.084,0.255l0,0c-0.155,0.49-0.309,0.991-0.465,1.521l0,0c-0.029,0.098-0.063,0.218-0.107,0.376l0,0
		c-0.123,0.42-0.243,0.843-0.354,1.254l0,0c-0.044,0.167-0.077,0.287-0.099,0.364l0,0c-0.142,0.524-0.275,1.05-0.412,1.594l0,0
		c-0.018,0.068-0.042,0.171-0.077,0.313l0,0c-0.11,0.452-0.218,0.906-0.326,1.369l0,0c-0.029,0.125-0.056,0.243-0.083,0.363l0,0
		c-0.124,0.543-0.243,1.086-0.358,1.631l0,0c-0.012,0.04-0.024,0.115-0.043,0.213l0,0c-0.104,0.491-0.203,0.981-0.308,1.494l0,0
		c-0.019,0.104-0.04,0.219-0.064,0.343l0,0c-0.217,1.12-0.417,2.236-0.604,3.358l0,0c-0.017,0.09-0.032,0.203-0.053,0.31l0,0
		c-0.184,1.124-0.356,2.241-0.514,3.355l0,0c-0.009,0.062-0.022,0.152-0.035,0.24l0,0c-0.076,0.545-0.15,1.085-0.218,1.613l0,0v0
		l-0.002,0.012c-0.072,0.56-0.142,1.118-0.209,1.656l0,0c-0.005,0.056-0.013,0.109-0.019,0.17l0,0
		c-0.065,0.527-0.123,1.049-0.183,1.572l0,0l-0.004,0.031c-0.06,0.548-0.116,1.089-0.169,1.626l0,0h-0.003l-0.005,0.055l0.008-0.05
		c-0.056,0.533-0.106,1.052-0.152,1.556l0,0v0.003c4.209,2.71,6.932,7.491,6.937,12.874l0,0c-0.005,5.687-3.049,10.699-7.666,13.307
		l0,0v16.996v79.485l-5.198-0.894c-0.551-0.093-1.041-0.143-1.495-0.143l0,0c-2.538,0.003-4.814,1.051-6.539,2.829l0,0
		c-1.71,1.781-2.791,4.248-2.791,7.036l0,0c0,2.785,1.081,5.25,2.791,7.033l0,0c1.725,1.777,4.001,2.825,6.539,2.829l0,0
		c0.454,0,0.947-0.048,1.499-0.143l0,0l5.194-0.89v18.894c0.007,0.226,0.02,0.758,0.02,1.578l0,0
		c-0.006,7.342-1.007,37.553-16.546,74.52l0,0c-15.319,36.485-44.938,79.541-101.445,113.127l0,0L249.784,465.798L249.784,465.798z
		 M136.254,274.558l-0.003,0.089c0,0.002-0.005,0.077-0.008,0.305l0,0c-0.006,0.228-0.009,0.583-0.009,1.055l0,0
		c-0.006,6.527,0.924,35.595,15.85,71.074l0,0c14.744,35.016,42.985,76.287,97.699,108.869l0,0
		c54.715-32.58,82.956-73.854,97.699-108.869l0,0c14.928-35.479,15.856-64.548,15.851-71.074l0,0
		c-0.001-0.475-0.005-0.832-0.008-1.063l0,0c-0.006-0.231-0.008-0.312-0.008-0.312l0,0l-0.003-0.103v-9.213
		c-9.126-1.138-16.006-9.129-16.023-18.612l0,0c0.018-9.485,6.897-17.48,16.023-18.616l0,0v-69.697V135.09l3.251-0.908
		c2.443-0.673,4.418-3.084,4.412-6.094l0,0c0.006-2.898-1.829-5.251-4.14-6.017l0,0l1.41-4.215l4.432,0.34l-4.432-0.34l-1.41,4.215
		l-3.29-1.101l0.269-3.457c0.074-0.98,0.161-2.014,0.262-3.096l0,0v-0.011l0.005-0.048l0.002-0.003
		c0.047-0.526,0.098-1.056,0.153-1.593l0,0l0,0l0.001-0.015c0.058-0.553,0.114-1.12,0.182-1.708l0,0l0.002-0.028
		c0.063-0.542,0.124-1.092,0.188-1.636l0,0c0.009-0.056,0.014-0.108,0.021-0.175l0,0c0.068-0.561,0.139-1.132,0.216-1.712l0,0
		l0.002-0.025l0.003-0.028c0.075-0.563,0.153-1.131,0.234-1.725l0,0c0.01-0.064,0.022-0.152,0.039-0.25l0,0
		c0.163-1.159,0.343-2.338,0.544-3.556l0,0c0.016-0.086,0.031-0.2,0.053-0.318l0,0c0.197-1.182,0.411-2.372,0.643-3.569l0,0
		c0.024-0.125,0.051-0.261,0.077-0.385l0,0c0.102-0.529,0.211-1.059,0.324-1.597l0,0c0.007-0.041,0.022-0.114,0.045-0.217l0,0
		c0.123-0.594,0.256-1.187,0.388-1.759l0,0c0.031-0.148,0.063-0.286,0.095-0.41l0,0c0.112-0.49,0.229-0.983,0.35-1.475l0,0
		c0.021-0.087,0.051-0.213,0.089-0.358l0,0c0.145-0.577,0.293-1.154,0.446-1.728l0,0c0.046-0.167,0.078-0.291,0.104-0.385l0,0
		c0.131-0.476,0.265-0.947,0.395-1.4l0,0c0.038-0.132,0.081-0.286,0.128-0.439l0,0c0.166-0.564,0.34-1.131,0.51-1.666l0,0
		c0.051-0.156,0.09-0.278,0.108-0.338l0,0c0.153-0.474,0.309-0.94,0.47-1.407l0,0c0.051-0.143,0.103-0.296,0.158-0.451l0,0
		c0.187-0.538,0.384-1.083,0.595-1.635l0,0c0.047-0.122,0.072-0.184,0.079-0.206l0,0c0.186-0.482,0.377-0.956,0.563-1.408l0,0
		c0.064-0.156,0.127-0.309,0.193-0.467l0,0c0.205-0.48,0.418-0.972,0.632-1.439l0,0c0,0,0.016-0.034,0.064-0.143l0,0
		c0.242-0.53,0.489-1.03,0.738-1.526l0,0c0.07-0.14,0.137-0.269,0.21-0.408l0,0c0.218-0.419,0.439-0.836,0.675-1.257l0,0
		c0,0,0.042-0.079,0.135-0.243l0,0c0.277-0.49,0.559-0.957,0.833-1.398l0,0c0.102-0.159,0.185-0.287,0.239-0.372l0,0
		c0.242-0.376,0.49-0.746,0.756-1.125l0,0c0.013-0.018,0.074-0.113,0.194-0.28l0,0c0.315-0.438,0.638-0.861,0.968-1.275l0,0
		c0.129-0.16,0.215-0.259,0.244-0.296l0,0c0.283-0.341,0.566-0.67,0.854-0.984l0,0c0.052-0.058,0.14-0.155,0.271-0.297l0,0
		c0.364-0.385,0.737-0.759,1.139-1.133l0,0c0.132-0.12,0.211-0.188,0.228-0.202l0,0c0.107-0.097,0.216-0.192,0.326-0.287l0,0
		c-2.637,0.189-7.751,1.68-15.748,6.315l0,0c-1.257,1.1-4.403,3.314-9.371,3.335l0,0c-3.048,0.008-6.566-0.89-10.342-3.083l0,0
		c0.313,0.643,0.674,1.294,1.073,1.921l0,0c1.51,2.473,3.673,4.405,5.054,4.867l0,0c0.608,0.149,0.821,0.346,0.838,0.319l0,0
		l-1.74,4.315l0.753,0.791l2.184,1.954c0,0,0,0-0.009,0.01l0,0c-0.002,0-0.002,0.002-0.002,0.003l0,0
		c-0.017,0.019-0.043,0.048-0.075,0.086l0,0c-0.128,0.156-0.347,0.43-0.578,0.724l0,0c-0.468,0.598-0.995,1.28-1.267,1.629l0,0
		c-0.107,0.133-0.082,0.113-0.347,0.419l0,0c-4.255,4.68-9.808,8.845-16.485,10.697l0,0c-1.709,0.47-3.444,0.681-5.156,0.681l0,0
		c-8.483-0.102-16.257-4.747-21.085-10.718l0,0c-1.591-1.971-2.342-4.173-2.678-5.883l0,0c-0.08-0.395-0.146-0.766-0.206-1.117l0,0
		c-0.389,0.823-0.744,1.638-1.058,2.306l0,0c-2.03,4.268-5.268,7.461-8.996,9.426l0,0c-3.73,1.979-7.889,2.806-12.031,2.808l0,0
		c-7.235-0.023-14.542-2.459-20.366-6.643l0,0c-5.761-4.15-10.282-10.411-10.305-18.064l0,0c0-0.19,0.005-0.379,0.013-0.57l0,0
		l0.127-3.207l3.08-0.889c0,0,0.115-0.032,0.382-0.115l0,0c0.269-0.08,0.665-0.206,1.17-0.37l0,0
		c1.003-0.329,2.427-0.817,4.048-1.443l0,0c3.245-1.241,7.314-3.064,10.35-5.09l0,0c1.688-1.104,3.015-2.297,3.73-3.226l0,0
		c-2.523-0.48-7.326-0.944-15.43-0.938l0,0h-3.612l-0.739-3.533c0-0.002-0.009-0.051-0.045-0.205l0,0
		c-0.035-0.156-0.091-0.393-0.17-0.695l0,0c-0.149-0.605-0.384-1.471-0.694-2.464l0,0c-0.615-1.981-1.576-4.486-2.682-6.313l0,0
		c-0.627-1.067-1.316-1.863-1.784-2.242l0,0c-0.159,0.126-0.345,0.299-0.559,0.533l0,0c-0.681,0.74-1.471,2-2.139,3.413l0,0
		c-1.36,2.833-2.272,6.205-2.567,7.458l0,0c-0.086,0.36-0.116,0.513-0.119,0.513l0,0l-0.74,3.535h-3.609
		c-6.267,0-10.542,0.266-13.34,0.616l0,0c-0.819,0.098-1.512,0.21-2.085,0.321l0,0c0.216,0.283,0.489,0.597,0.833,0.937l0,0
		c1.289,1.29,3.384,2.72,5.703,3.968l0,0c4.646,2.524,10.122,4.397,12.231,5.062l0,0c0.605,0.192,0.906,0.278,0.906,0.278l0,0
		l3.125,0.902l0.088,3.251c0.003,0.181,0.006,0.352,0.006,0.511l0,0c-0.023,7.654-4.544,13.915-10.306,18.064l0,0
		c-5.823,4.184-13.131,6.62-20.364,6.643l0,0c-4.146-0.002-8.302-0.831-12.033-2.811l0,0c-3.728-1.964-6.966-5.156-8.992-9.422l0,0
		c-0.324-0.682-0.671-1.486-1.061-2.31l0,0c-0.06,0.352-0.126,0.723-0.205,1.12l0,0c-0.338,1.713-1.09,3.912-2.678,5.882l0,0
		c-4.831,5.973-12.604,10.617-21.085,10.719l0,0c-1.711,0-3.447-0.211-5.157-0.681l0,0c-6.677-1.852-12.228-6.017-16.492-10.705l0,0
		c-0.231-0.265-0.204-0.244-0.295-0.355l0,0c-0.065-0.082-0.141-0.178-0.225-0.29l0,0c-0.04-0.049-0.081-0.102-0.123-0.157l0,0
		l-0.295,0.092l-1.845-2.771c-0.083-0.128-0.195-0.29-0.369-0.67l0,0c-0.127-0.387-0.524-1.015-0.311-2.575l0,0
		c0.13-1.028,0.962-2.335,1.863-2.891l0,0c0.548-0.35,1-0.532,1.365-0.632l0,0c1.014-0.356,2.479-1.449,3.76-3.056l0,0
		c0.908-1.111,1.729-2.436,2.363-3.726l0,0c-3.776,2.192-7.294,3.088-10.341,3.081l0,0c-4.966-0.021-8.11-2.234-9.368-3.334l0,0
		c-7.998-4.634-13.115-6.127-15.749-6.316l0,0c0.11,0.095,0.218,0.19,0.326,0.288l0,0c0,0.002,0.06,0.049,0.233,0.209l0,0
		c0.396,0.367,0.771,0.745,1.132,1.128l0,0c0.137,0.145,0.225,0.245,0.267,0.292l0,0c0.289,0.316,0.575,0.646,0.858,0.99l0,0
		c0.028,0.034,0.113,0.131,0.243,0.293l0,0c0.331,0.412,0.654,0.837,0.973,1.284l0,0c0.111,0.156,0.179,0.256,0.208,0.295l0,0
		c0.252,0.36,0.496,0.725,0.737,1.1l0,0c0.062,0.095,0.143,0.219,0.238,0.372l0,0c0.28,0.449,0.562,0.915,0.836,1.4l0,0
		c0.09,0.158,0.136,0.249,0.144,0.26l0,0c0.229,0.412,0.451,0.825,0.665,1.238l0,0c0.066,0.126,0.141,0.273,0.223,0.438l0,0
		c0.239,0.476,0.483,0.974,0.716,1.477l0,0c0.036,0.079,0.059,0.132,0.07,0.156l0,0l-0.144,0.064l0.151-0.049
		c0.218,0.479,0.425,0.955,0.626,1.43l0,0c0.067,0.158,0.134,0.316,0.199,0.476l0,0c0.186,0.45,0.37,0.91,0.551,1.378l0,0
		c0.011,0.03,0.041,0.104,0.094,0.244l0,0c0.206,0.54,0.4,1.077,0.586,1.607l0,0c0.064,0.181,0.121,0.348,0.173,0.499l0,0
		c0.15,0.442,0.298,0.887,0.447,1.344l0,0c0.024,0.075,0.064,0.191,0.118,0.36l0,0c0.172,0.551,0.342,1.1,0.502,1.646l0,0
		c0.058,0.192,0.105,0.357,0.147,0.502l0,0c0.125,0.437,0.25,0.877,0.372,1.323l0,0c0.034,0.126,0.075,0.272,0.122,0.449l0,0
		c0.148,0.556,0.293,1.115,0.434,1.677l0,0c0.043,0.174,0.083,0.334,0.115,0.468l0,0c0.107,0.442,0.214,0.886,0.317,1.333l0,0
		c0.038,0.161,0.075,0.327,0.118,0.511l0,0c0.126,0.557,0.25,1.118,0.368,1.677l0,0c0.034,0.161,0.061,0.293,0.079,0.386l0,0
		c0.098,0.468,0.194,0.938,0.286,1.41l0,0c0.032,0.154,0.066,0.325,0.1,0.502l0,0c0.109,0.562,0.214,1.126,0.316,1.686l0,0
		c0.022,0.122,0.035,0.205,0.043,0.244l0,0c0.09,0.508,0.177,1.01,0.261,1.513l0,0c0.028,0.163,0.054,0.329,0.083,0.5l0,0
		c0.084,0.513,0.167,1.023,0.248,1.549l0,0c0.002,0.013,0.01,0.059,0.025,0.158l0,0c0.086,0.562,0.167,1.115,0.247,1.665l0,0
		c0.02,0.156,0.042,0.309,0.064,0.461l0,0c0.065,0.465,0.127,0.932,0.191,1.406l0,0c0.007,0.062,0.02,0.156,0.034,0.261l0,0
		c0.069,0.542,0.137,1.075,0.199,1.593l0,0c0.019,0.149,0.033,0.288,0.048,0.409l0,0c0.053,0.443,0.104,0.88,0.15,1.308l0,0
		c0.014,0.104,0.025,0.205,0.036,0.317l0,0c0.056,0.51,0.109,1.015,0.16,1.515l0,0c0.012,0.112,0.022,0.222,0.034,0.321l0,0
		c0.041,0.419,0.081,0.829,0.116,1.22l0,0c0.011,0.11,0.022,0.229,0.032,0.341l0,0c0.045,0.476,0.086,0.944,0.126,1.404l0,0
		c0.007,0.085,0.013,0.167,0.018,0.229l0,0c0.035,0.402,0.066,0.795,0.094,1.171l0,0c0.006,0.057,0.009,0.111,0.013,0.161l0,0
		l0.276,3.458l-3.283,1.11c-2.306,0.77-4.135,3.119-4.13,6.011l0,0c-0.005,3.002,1.964,5.412,4.4,6.09l0,0l3.238,0.913v23.3v69.695
		c9.131,1.132,16.017,9.13,16.032,18.618l0,0c-0.016,9.485-6.901,17.482-16.032,18.614l0,0V274.558L136.254,274.558z M151.39,89.514
		l-0.196,0.062c0.136-0.036,0.283-0.083,0.443-0.145l0,0C151.555,89.459,151.473,89.487,151.39,89.514L151.39,89.514z
		 M351.504,89.237l-1.793-3.533v0.002L351.504,89.237L351.504,89.237z"/>
	<path fill="#A62C3A" d="M387.208,68.311c0-0.011-0.001-0.019-0.001-0.035c-0.002-0.028-0.004-0.064-0.008-0.108
		c-0.003-0.021-0.004-0.038-0.006-0.063c-0.006-0.052-0.012-0.112-0.021-0.178c-0.004-0.023-0.005-0.042-0.009-0.066
		c-0.014-0.094-0.032-0.198-0.056-0.312c-0.003-0.01-0.005-0.021-0.008-0.03c-0.021-0.103-0.048-0.211-0.081-0.326
		c-0.009-0.036-0.021-0.072-0.031-0.108c-0.029-0.096-0.061-0.194-0.098-0.295c-0.015-0.043-0.03-0.085-0.048-0.128
		c-0.044-0.117-0.097-0.234-0.153-0.355c-0.013-0.027-0.022-0.053-0.036-0.08c-0.072-0.149-0.156-0.298-0.249-0.449
		c-0.02-0.029-0.041-0.058-0.06-0.088c-0.077-0.119-0.162-0.237-0.255-0.355c-0.035-0.046-0.071-0.09-0.109-0.135
		c-0.089-0.106-0.187-0.21-0.289-0.313c-0.041-0.042-0.082-0.084-0.126-0.126c-0.137-0.127-0.283-0.25-0.444-0.369
		c-0.015-0.011-0.028-0.024-0.044-0.035c-0.177-0.128-0.372-0.248-0.58-0.36c-0.056-0.03-0.118-0.058-0.176-0.086
		c-0.159-0.081-0.326-0.155-0.504-0.225c-0.079-0.031-0.16-0.06-0.242-0.088c-0.184-0.063-0.377-0.119-0.578-0.17
		c-0.082-0.02-0.159-0.043-0.244-0.061c-0.291-0.063-0.595-0.116-0.925-0.152c-0.018-0.002-0.037-0.002-0.055-0.003
		c-0.311-0.032-0.642-0.047-0.988-0.051c-0.04,0-0.073-0.006-0.113-0.006c-0.206,0-0.423,0.008-0.641,0.019
		c-0.027,0.001-0.053,0-0.08,0.002c-0.308,0.017-0.63,0.047-0.964,0.086c-0.097,0.011-0.197,0.026-0.296,0.039
		c-0.261,0.035-0.529,0.077-0.805,0.125c-0.103,0.018-0.205,0.035-0.31,0.056c-0.372,0.071-0.755,0.153-1.154,0.251
		c-0.054,0.013-0.109,0.029-0.162,0.042c-0.355,0.089-0.724,0.191-1.103,0.301c-0.129,0.038-0.261,0.078-0.393,0.118
		c-0.346,0.107-0.704,0.224-1.072,0.349c-0.111,0.039-0.219,0.073-0.331,0.113c-0.473,0.166-0.962,0.348-1.468,0.547
		c-0.111,0.043-0.229,0.093-0.341,0.138c-0.411,0.166-0.833,0.341-1.267,0.529c-0.162,0.07-0.325,0.142-0.491,0.214
		c-0.467,0.207-0.945,0.426-1.437,0.659c-0.1,0.047-0.194,0.09-0.296,0.138c-0.587,0.282-1.194,0.584-1.818,0.903
		c-0.164,0.084-0.334,0.175-0.501,0.261c-0.489,0.255-0.99,0.522-1.502,0.801c-0.192,0.104-0.385,0.208-0.579,0.316
		c-0.681,0.376-1.373,0.765-2.093,1.185c0,0-0.039,0.041-0.098,0.095c-0.005,0.006-0.013,0.012-0.018,0.018
		c-0.072,0.067-0.175,0.159-0.313,0.271c-0.001,0.001-0.002,0.002-0.004,0.003c-0.137,0.11-0.309,0.24-0.508,0.378
		c-0.016,0.011-0.033,0.022-0.05,0.034c-0.202,0.137-0.435,0.283-0.699,0.429c-0.008,0.005-0.017,0.01-0.025,0.015
		c-0.268,0.147-0.571,0.293-0.9,0.433c-0.027,0.011-0.056,0.022-0.083,0.034c-0.326,0.134-0.684,0.259-1.067,0.368
		c-0.021,0.006-0.038,0.012-0.06,0.018c-0.396,0.11-0.823,0.2-1.278,0.267c-0.038,0.005-0.076,0.009-0.114,0.014
		c-0.446,0.06-0.92,0.096-1.421,0.098c-0.038,0-0.076,0.002-0.115,0.002c-0.292-0.001-0.593-0.015-0.904-0.04
		c-0.076-0.005-0.155-0.015-0.234-0.022c-0.276-0.027-0.559-0.064-0.848-0.112c-0.06-0.01-0.118-0.017-0.178-0.027
		c-0.334-0.06-0.68-0.137-1.031-0.227c-0.09-0.023-0.183-0.049-0.273-0.074c-0.321-0.089-0.65-0.189-0.986-0.306
		c-0.054-0.018-0.105-0.033-0.159-0.052c-0.377-0.134-0.766-0.292-1.16-0.464c-0.101-0.043-0.203-0.089-0.305-0.136
		c-0.379-0.173-0.765-0.359-1.161-0.568c-0.032-0.019-0.065-0.033-0.101-0.051c-0.423-0.227-0.855-0.482-1.295-0.754
		c-0.109-0.067-0.218-0.137-0.329-0.207c-0.45-0.287-0.908-0.59-1.377-0.928c-0.396-0.285-0.762-0.522-1.111-0.733
		c-0.109-0.065-0.208-0.116-0.312-0.175c-0.237-0.133-0.465-0.254-0.683-0.354c-0.104-0.049-0.207-0.094-0.309-0.135
		c-0.203-0.083-0.396-0.149-0.579-0.203c-0.084-0.024-0.171-0.053-0.25-0.071c-0.222-0.051-0.428-0.078-0.62-0.083
		c-0.021,0-0.048-0.009-0.068-0.009c-0.005,0-0.008,0.001-0.012,0.001c-0.021,0-0.04,0.005-0.062,0.006
		c-0.149,0.005-0.288,0.022-0.416,0.055c-0.047,0.012-0.09,0.032-0.136,0.047c-0.095,0.033-0.186,0.071-0.269,0.119
		c-0.045,0.026-0.085,0.055-0.126,0.085c-0.074,0.054-0.144,0.115-0.208,0.183c-0.034,0.037-0.07,0.073-0.101,0.112
		c-0.063,0.08-0.117,0.168-0.168,0.261c-0.021,0.04-0.047,0.077-0.066,0.12c-0.062,0.132-0.113,0.274-0.154,0.428
		c-0.003,0.011-0.008,0.02-0.011,0.03c-0.044,0.17-0.075,0.354-0.096,0.549c-0.005,0.044-0.007,0.092-0.011,0.138
		c-0.013,0.152-0.02,0.308-0.02,0.471c0,0.068,0.004,0.139,0.006,0.209c0.004,0.15,0.014,0.305,0.028,0.464
		c0.006,0.079,0.014,0.157,0.023,0.236c0.02,0.165,0.045,0.334,0.073,0.508c0.013,0.077,0.023,0.152,0.038,0.23
		c0.038,0.203,0.084,0.41,0.135,0.622c0.011,0.052,0.02,0.102,0.033,0.155c0.067,0.271,0.144,0.547,0.229,0.829
		c0.009,0.027,0.019,0.055,0.027,0.083c0.076,0.249,0.161,0.5,0.252,0.756c0.031,0.085,0.064,0.172,0.098,0.258
		c0.073,0.202,0.151,0.403,0.235,0.607c0.04,0.1,0.082,0.199,0.123,0.298c0.084,0.197,0.171,0.394,0.261,0.592
		c0.046,0.101,0.091,0.2,0.14,0.301c0.099,0.209,0.204,0.42,0.311,0.631c0.043,0.085,0.085,0.169,0.129,0.254
		c0.311,0.591,0.647,1.179,1.012,1.756c0.051,0.079,0.104,0.156,0.154,0.234c0.135,0.207,0.27,0.413,0.41,0.616
		c0.068,0.097,0.138,0.193,0.207,0.29c0.131,0.183,0.264,0.363,0.398,0.542c0.074,0.099,0.15,0.197,0.229,0.295
		c0.139,0.176,0.28,0.349,0.423,0.519c0.076,0.091,0.151,0.181,0.228,0.27c0.168,0.192,0.34,0.379,0.514,0.563
		c0.056,0.059,0.108,0.12,0.164,0.178c0.231,0.239,0.468,0.47,0.708,0.692c0.051,0.046,0.104,0.09,0.157,0.136
		c0.189,0.17,0.381,0.336,0.576,0.494c0.086,0.07,0.174,0.135,0.261,0.202c0.166,0.128,0.331,0.252,0.501,0.37
		c0.096,0.067,0.194,0.133,0.292,0.197c0.166,0.108,0.334,0.211,0.502,0.311c0.099,0.058,0.197,0.116,0.297,0.169
		c0.182,0.099,0.366,0.188,0.551,0.274c0.087,0.041,0.174,0.084,0.26,0.123c0.273,0.117,0.549,0.223,0.827,0.31c0,0,0,0-0.001,0
		c-0.006,0-0.039,0.038-0.056,0.053c-0.021,0.021-0.033,0.025-0.07,0.067c-0.027,0.029-0.07,0.083-0.103,0.121
		c-0.054,0.062-0.099,0.115-0.167,0.197c-0.073,0.09-0.162,0.202-0.248,0.31c-0.041,0.05-0.073,0.09-0.115,0.143
		c-0.666,0.84-1.539,1.983-1.624,2.078c-3.829,4.225-8.786,7.861-14.369,9.396c-0.584,0.161-1.179,0.27-1.776,0.355
		c-0.175,0.025-0.351,0.042-0.525,0.06c-0.45,0.048-0.902,0.077-1.356,0.086c-0.196,0.003-0.394,0.013-0.591,0.01
		c-0.171-0.002-0.341-0.011-0.514-0.019c-0.302-0.014-0.604-0.035-0.906-0.065c-0.173-0.017-0.345-0.034-0.518-0.056
		c-0.315-0.041-0.632-0.091-0.945-0.147c-0.153-0.027-0.307-0.05-0.458-0.081c-0.426-0.086-0.851-0.187-1.274-0.301
		c-0.037-0.01-0.073-0.017-0.11-0.027c-0.46-0.126-0.918-0.272-1.372-0.43c-0.141-0.049-0.278-0.104-0.418-0.156
		c-0.315-0.116-0.628-0.236-0.938-0.366c-0.164-0.068-0.326-0.14-0.488-0.212c-0.287-0.127-0.571-0.26-0.854-0.398
		c-0.159-0.079-0.32-0.158-0.479-0.24c-0.294-0.152-0.584-0.311-0.872-0.474c-0.135-0.077-0.271-0.151-0.405-0.229
		c-0.395-0.233-0.783-0.475-1.163-0.728c-0.021-0.014-0.043-0.027-0.064-0.041c-0.399-0.267-0.788-0.546-1.17-0.832
		c-0.121-0.091-0.237-0.186-0.356-0.278c-0.258-0.201-0.512-0.404-0.761-0.612c-0.135-0.114-0.266-0.23-0.398-0.345
		c-0.227-0.199-0.449-0.401-0.667-0.606c-0.126-0.12-0.253-0.24-0.375-0.361c-0.225-0.221-0.439-0.445-0.651-0.672
		c-0.102-0.108-0.205-0.213-0.304-0.323c-0.303-0.336-0.595-0.677-0.87-1.024c-2.152-2.716-1.798-5.227-2.615-8.373
		c-0.04-0.155-0.089-0.328-0.142-0.51c-0.013-0.041-0.027-0.084-0.04-0.125c-0.045-0.146-0.09-0.292-0.145-0.445
		c-0.022-0.064-0.051-0.129-0.076-0.194c-0.05-0.134-0.1-0.266-0.158-0.398c-0.032-0.075-0.073-0.146-0.109-0.219
		c-0.057-0.12-0.114-0.239-0.179-0.352c-0.044-0.077-0.096-0.143-0.144-0.215c-0.067-0.101-0.131-0.205-0.204-0.296
		c-0.056-0.067-0.119-0.12-0.18-0.181c-0.075-0.079-0.151-0.162-0.235-0.228c-0.066-0.051-0.143-0.083-0.215-0.125
		c-0.088-0.052-0.174-0.108-0.271-0.142c-0.078-0.028-0.167-0.032-0.252-0.046c-0.084-0.015-0.163-0.047-0.254-0.047
		c-0.035,0-0.073,0.001-0.11,0.004c-2.917,0.194-5.146,6.029-6.108,8.039c-0.253,0.529-0.532,1.026-0.825,1.509
		c-0.083,0.138-0.172,0.271-0.258,0.406c-0.235,0.363-0.48,0.713-0.737,1.049c-0.082,0.108-0.161,0.22-0.246,0.325
		c-0.334,0.417-0.686,0.814-1.053,1.188c-0.075,0.078-0.159,0.148-0.236,0.225c-0.305,0.296-0.617,0.579-0.939,0.847
		c-0.121,0.101-0.244,0.201-0.368,0.297c-0.343,0.268-0.695,0.522-1.057,0.76c-0.072,0.048-0.142,0.102-0.214,0.147
		c-0.432,0.274-0.876,0.524-1.33,0.758c-0.129,0.067-0.261,0.127-0.393,0.191c-0.352,0.17-0.709,0.33-1.072,0.478
		c-0.139,0.056-0.276,0.115-0.417,0.168c-0.48,0.182-0.969,0.35-1.467,0.493c-0.061,0.018-0.123,0.03-0.185,0.047
		c-0.448,0.125-0.903,0.233-1.362,0.329c-0.155,0.033-0.313,0.062-0.469,0.091c-0.411,0.076-0.826,0.14-1.243,0.193
		c-0.124,0.017-0.247,0.036-0.371,0.05c-0.528,0.059-1.062,0.101-1.6,0.125c-0.13,0.006-0.262,0.006-0.391,0.01
		c-0.445,0.014-0.892,0.017-1.341,0.008c-0.121-0.002-0.241-0.004-0.363-0.008c-0.534-0.018-1.07-0.05-1.606-0.1
		c-0.105-0.01-0.21-0.023-0.314-0.034c-0.481-0.049-0.963-0.111-1.443-0.185c-0.099-0.015-0.198-0.028-0.299-0.044
		c-0.538-0.088-1.076-0.192-1.612-0.309c-0.12-0.026-0.241-0.056-0.36-0.083c-0.507-0.116-1.012-0.244-1.514-0.386
		c-0.048-0.014-0.097-0.025-0.146-0.039c-0.536-0.156-1.069-0.328-1.598-0.511c-0.119-0.042-0.238-0.083-0.357-0.126
		c-0.528-0.19-1.055-0.39-1.572-0.607c-0.031-0.013-0.063-0.028-0.094-0.042c-0.493-0.209-0.981-0.433-1.462-0.666
		c-0.105-0.051-0.21-0.102-0.313-0.153c-0.496-0.247-0.984-0.504-1.464-0.776c-0.073-0.042-0.146-0.086-0.219-0.128
		c-0.432-0.251-0.857-0.511-1.274-0.782c-0.078-0.051-0.159-0.102-0.237-0.153c-0.454-0.3-0.896-0.613-1.325-0.935
		c-0.085-0.063-0.167-0.128-0.251-0.191c-0.402-0.31-0.794-0.627-1.173-0.955c-0.038-0.032-0.076-0.063-0.114-0.095
		c-0.402-0.352-0.786-0.716-1.158-1.089c-0.078-0.079-0.157-0.159-0.234-0.238c-0.37-0.38-0.729-0.767-1.065-1.167
		c-0.006-0.008-0.012-0.016-0.018-0.023c-0.329-0.392-0.637-0.795-0.932-1.205c-0.063-0.087-0.126-0.174-0.187-0.262
		c-0.288-0.415-0.561-0.837-0.81-1.268c-0.035-0.061-0.068-0.124-0.102-0.185c-0.222-0.394-0.427-0.795-0.616-1.202
		c-0.038-0.084-0.081-0.169-0.119-0.253c-0.197-0.448-0.374-0.902-0.53-1.363c-0.031-0.092-0.058-0.187-0.087-0.279
		c-0.136-0.426-0.253-0.857-0.35-1.294c-0.014-0.064-0.031-0.127-0.045-0.191c-0.099-0.478-0.167-0.964-0.218-1.454
		c-0.013-0.113-0.021-0.225-0.03-0.338c-0.038-0.502-0.061-1.008-0.048-1.521c0,0,24.131-6.964,23.627-16.417
		c0,0,2.517-3.482-20.609-3.482c0,0-3.112-14.867-9.728-15.747v-0.002c-0.001,0.001-0.003,0.001-0.003,0.001
		c-0.001,0-0.001,0-0.002-0.001v0.002c-6.615,0.879-9.728,15.747-9.728,15.747c-23.126,0-20.611,3.482-20.611,3.482
		c-0.504,9.452,23.628,16.417,23.628,16.417c0.014,0.514-0.009,1.02-0.049,1.522c-0.009,0.113-0.018,0.226-0.029,0.338
		c-0.05,0.489-0.12,0.974-0.218,1.452c-0.014,0.067-0.033,0.131-0.047,0.198c-0.095,0.433-0.212,0.861-0.345,1.284
		c-0.03,0.096-0.058,0.193-0.09,0.289c-0.155,0.458-0.33,0.909-0.527,1.353c-0.04,0.091-0.084,0.18-0.126,0.27
		c-0.186,0.399-0.386,0.792-0.604,1.179c-0.038,0.067-0.073,0.136-0.111,0.204c-0.248,0.427-0.518,0.844-0.803,1.254
		c-0.065,0.094-0.133,0.187-0.2,0.28c-0.286,0.398-0.585,0.79-0.903,1.17c-0.015,0.019-0.028,0.037-0.043,0.055
		c-0.332,0.393-0.686,0.774-1.049,1.149c-0.084,0.087-0.17,0.174-0.256,0.26c-0.367,0.366-0.745,0.725-1.14,1.071
		c-0.047,0.042-0.098,0.082-0.146,0.123c-0.366,0.315-0.745,0.622-1.132,0.92c-0.093,0.072-0.184,0.144-0.278,0.214
		c-0.423,0.317-0.857,0.624-1.303,0.919c-0.089,0.059-0.181,0.116-0.271,0.174c-0.403,0.261-0.814,0.513-1.233,0.756
		c-0.083,0.048-0.165,0.098-0.249,0.146c-0.471,0.267-0.952,0.521-1.44,0.764c-0.114,0.058-0.229,0.112-0.345,0.168
		c-0.466,0.225-0.937,0.442-1.415,0.645c-0.044,0.019-0.088,0.039-0.132,0.058c-0.511,0.214-1.031,0.412-1.554,0.6
		c-0.125,0.045-0.25,0.089-0.375,0.133c-0.524,0.181-1.053,0.353-1.585,0.506c-0.055,0.016-0.111,0.029-0.165,0.045
		c-0.495,0.14-0.992,0.265-1.492,0.381c-0.123,0.028-0.247,0.058-0.371,0.085c-0.534,0.117-1.07,0.22-1.607,0.308
		c-0.101,0.017-0.202,0.03-0.303,0.045c-0.48,0.073-0.959,0.135-1.439,0.184c-0.105,0.011-0.211,0.024-0.316,0.034
		c-0.537,0.049-1.072,0.082-1.606,0.1c-0.122,0.004-0.243,0.006-0.364,0.008c-0.449,0.009-0.896,0.006-1.341-0.008
		c-0.129-0.003-0.259-0.003-0.388-0.009c-0.539-0.025-1.074-0.066-1.604-0.125c-0.122-0.014-0.241-0.033-0.362-0.048
		c-0.421-0.054-0.84-0.119-1.254-0.195c-0.154-0.029-0.307-0.058-0.459-0.089c-0.468-0.097-0.932-0.208-1.387-0.335
		c-0.053-0.015-0.108-0.025-0.161-0.041c-0.501-0.146-0.993-0.314-1.477-0.498c-0.135-0.051-0.266-0.107-0.399-0.161
		c-0.373-0.15-0.738-0.313-1.097-0.488c-0.125-0.06-0.25-0.118-0.373-0.181c-0.458-0.236-0.907-0.489-1.34-0.766
		c-0.066-0.041-0.127-0.089-0.192-0.131c-0.37-0.244-0.731-0.504-1.082-0.779c-0.12-0.093-0.237-0.189-0.354-0.286
		c-0.329-0.272-0.647-0.56-0.956-0.861c-0.075-0.073-0.152-0.14-0.225-0.214c-0.369-0.375-0.72-0.773-1.057-1.192
		c-0.083-0.104-0.161-0.214-0.242-0.32c-0.258-0.338-0.504-0.69-0.741-1.055c-0.086-0.134-0.172-0.267-0.255-0.404
		c-0.292-0.482-0.573-0.98-0.826-1.509c-0.964-2.01-3.191-7.845-6.109-8.039c-0.037-0.003-0.074-0.004-0.11-0.004
		c-0.091,0-0.169,0.032-0.254,0.047c-0.085,0.014-0.173,0.018-0.252,0.046c-0.096,0.034-0.183,0.09-0.272,0.142
		c-0.071,0.042-0.146,0.074-0.213,0.125c-0.084,0.065-0.159,0.148-0.236,0.228c-0.06,0.061-0.124,0.114-0.178,0.182
		c-0.073,0.09-0.138,0.194-0.205,0.295c-0.048,0.072-0.1,0.139-0.144,0.215c-0.064,0.112-0.12,0.23-0.178,0.349
		c-0.036,0.075-0.077,0.146-0.11,0.223c-0.058,0.131-0.106,0.262-0.156,0.393c-0.025,0.066-0.054,0.133-0.077,0.199
		c-0.054,0.152-0.1,0.298-0.144,0.443c-0.013,0.042-0.029,0.086-0.041,0.127c-0.054,0.182-0.101,0.355-0.141,0.51
		c-0.817,3.146-0.464,5.656-2.617,8.373c-0.275,0.347-0.568,0.688-0.871,1.025c-0.096,0.107-0.198,0.211-0.297,0.317
		c-0.214,0.229-0.433,0.457-0.659,0.68c-0.121,0.119-0.245,0.236-0.369,0.354c-0.221,0.208-0.446,0.413-0.676,0.615
		c-0.129,0.113-0.258,0.226-0.39,0.337c-0.252,0.211-0.51,0.417-0.771,0.621c-0.116,0.09-0.229,0.183-0.348,0.271
		c-0.382,0.287-0.772,0.567-1.173,0.835c-0.017,0.011-0.034,0.021-0.051,0.032c-0.384,0.255-0.777,0.5-1.175,0.735
		c-0.133,0.079-0.271,0.152-0.406,0.229c-0.288,0.163-0.578,0.322-0.871,0.474c-0.159,0.082-0.319,0.161-0.479,0.24
		c-0.282,0.138-0.566,0.271-0.853,0.397c-0.163,0.073-0.326,0.145-0.491,0.214c-0.309,0.129-0.62,0.249-0.932,0.363
		c-0.142,0.053-0.282,0.109-0.424,0.158c-0.453,0.157-0.91,0.302-1.369,0.429c-0.042,0.012-0.084,0.019-0.126,0.03
		c-0.418,0.113-0.838,0.212-1.259,0.297c-0.154,0.031-0.307,0.054-0.461,0.082c-0.313,0.056-0.628,0.106-0.942,0.147
		c-0.173,0.021-0.346,0.039-0.52,0.056c-0.302,0.03-0.604,0.051-0.905,0.065c-0.171,0.008-0.343,0.017-0.514,0.019
		c-0.198,0.003-0.395-0.006-0.592-0.01c-0.453-0.01-0.903-0.038-1.351-0.086c-0.178-0.019-0.355-0.035-0.532-0.06
		c-0.597-0.085-1.191-0.194-1.774-0.355c-5.584-1.535-10.539-5.171-14.368-9.396c-0.117-0.13-1.719-2.233-2.228-2.813
		c-0.008-0.009-0.022-0.026-0.03-0.035c-0.04-0.045-0.052-0.05-0.074-0.071c-0.016-0.015-0.047-0.051-0.053-0.051c0,0,0,0-0.001,0
		c0.278-0.087,0.553-0.192,0.827-0.31c0.088-0.038,0.174-0.082,0.262-0.123c0.185-0.086,0.368-0.176,0.55-0.274
		c0.099-0.055,0.198-0.112,0.296-0.169c0.169-0.099,0.335-0.202,0.501-0.311c0.099-0.065,0.196-0.13,0.294-0.199
		c0.168-0.118,0.334-0.241,0.5-0.369c0.087-0.067,0.175-0.133,0.262-0.203c0.194-0.158,0.385-0.323,0.574-0.492
		c0.053-0.047,0.107-0.091,0.159-0.139c0.24-0.221,0.476-0.452,0.707-0.69c0.058-0.059,0.113-0.123,0.17-0.183
		c0.171-0.182,0.341-0.366,0.506-0.557c0.08-0.091,0.157-0.184,0.234-0.277c0.141-0.167,0.279-0.336,0.415-0.508
		c0.08-0.102,0.159-0.203,0.236-0.306c0.133-0.174,0.263-0.35,0.39-0.529c0.072-0.101,0.144-0.2,0.214-0.302
		c0.136-0.195,0.267-0.393,0.396-0.593c0.056-0.086,0.114-0.171,0.168-0.257c0.181-0.287,0.356-0.575,0.523-0.865
		c0.016-0.026,0.029-0.054,0.044-0.08c0.151-0.264,0.296-0.529,0.436-0.795c0.052-0.099,0.101-0.199,0.151-0.298
		c0.099-0.195,0.196-0.391,0.289-0.586c0.053-0.111,0.103-0.222,0.154-0.334c0.084-0.185,0.166-0.368,0.243-0.551
		c0.048-0.112,0.094-0.223,0.139-0.334c0.077-0.188,0.148-0.375,0.218-0.561c0.038-0.102,0.077-0.202,0.112-0.302
		c0.08-0.224,0.152-0.444,0.222-0.663c0.018-0.059,0.04-0.118,0.057-0.175c0.083-0.272,0.156-0.54,0.222-0.802
		c0.02-0.08,0.035-0.156,0.053-0.233c0.042-0.184,0.083-0.365,0.116-0.541c0.018-0.095,0.032-0.186,0.047-0.278
		c0.025-0.155,0.048-0.307,0.065-0.456c0.011-0.094,0.021-0.186,0.029-0.277c0.013-0.143,0.021-0.281,0.025-0.418
		c0.003-0.084,0.007-0.168,0.007-0.249c0-0.144-0.008-0.281-0.019-0.416c-0.004-0.063-0.005-0.128-0.012-0.188
		c-0.021-0.188-0.052-0.367-0.094-0.533c-0.008-0.029-0.02-0.054-0.027-0.082c-0.039-0.134-0.083-0.262-0.137-0.378
		c-0.022-0.049-0.051-0.092-0.076-0.139c-0.048-0.086-0.1-0.168-0.157-0.243c-0.034-0.044-0.072-0.083-0.109-0.122
		c-0.062-0.064-0.128-0.123-0.199-0.175c-0.043-0.031-0.086-0.063-0.133-0.089c-0.081-0.047-0.17-0.083-0.262-0.115
		c-0.047-0.017-0.091-0.037-0.141-0.049c-0.127-0.032-0.266-0.049-0.413-0.055c-0.022,0-0.042-0.006-0.064-0.006
		c-0.004,0-0.007-0.001-0.011-0.001c-0.021,0-0.049,0.009-0.071,0.009c-0.19,0.005-0.396,0.032-0.616,0.083
		c-0.082,0.019-0.171,0.048-0.258,0.074c-0.18,0.053-0.369,0.117-0.568,0.199c-0.104,0.042-0.209,0.088-0.318,0.139
		c-0.214,0.099-0.439,0.218-0.673,0.35c-0.106,0.06-0.207,0.112-0.317,0.178c-0.351,0.212-0.716,0.448-1.111,0.732
		c-0.469,0.337-0.926,0.641-1.378,0.928c-0.11,0.07-0.219,0.139-0.328,0.206c-0.44,0.272-0.875,0.528-1.297,0.754
		c-0.033,0.018-0.064,0.031-0.097,0.049c-0.397,0.21-0.784,0.397-1.166,0.571c-0.101,0.046-0.202,0.092-0.301,0.135
		c-0.396,0.172-0.786,0.33-1.164,0.465c-0.051,0.018-0.1,0.032-0.15,0.049c-0.34,0.118-0.672,0.219-0.997,0.309
		c-0.089,0.024-0.179,0.05-0.268,0.073c-0.354,0.09-0.699,0.167-1.035,0.228c-0.058,0.011-0.114,0.017-0.172,0.027
		c-0.292,0.048-0.576,0.084-0.853,0.112c-0.078,0.008-0.157,0.017-0.233,0.022c-0.31,0.025-0.612,0.039-0.904,0.04
		c-0.039,0-0.076-0.002-0.116-0.002c-0.5-0.002-0.974-0.038-1.419-0.098c-0.039-0.005-0.078-0.009-0.116-0.014
		c-0.454-0.066-0.881-0.156-1.276-0.266c-0.022-0.006-0.043-0.013-0.064-0.02c-0.382-0.108-0.736-0.233-1.061-0.366
		c-0.029-0.012-0.06-0.024-0.088-0.036c-0.328-0.138-0.629-0.284-0.896-0.431c-0.011-0.005-0.021-0.012-0.032-0.018
		c-0.261-0.145-0.491-0.289-0.692-0.424c-0.018-0.013-0.037-0.025-0.055-0.038c-0.198-0.136-0.369-0.265-0.504-0.375
		c-0.002-0.002-0.004-0.004-0.006-0.005c-0.136-0.111-0.238-0.203-0.309-0.27c-0.007-0.006-0.015-0.013-0.021-0.02
		c-0.056-0.054-0.096-0.094-0.096-0.094c-0.719-0.418-1.411-0.808-2.09-1.184c-0.198-0.109-0.391-0.214-0.586-0.32
		c-0.508-0.276-1.003-0.541-1.489-0.792c-0.171-0.089-0.346-0.182-0.515-0.268c-0.621-0.318-1.226-0.62-1.811-0.9
		c-0.105-0.051-0.205-0.095-0.309-0.144c-0.486-0.229-0.958-0.446-1.419-0.65c-0.171-0.076-0.339-0.149-0.506-0.221
		c-0.425-0.183-0.839-0.356-1.243-0.519c-0.12-0.048-0.244-0.1-0.362-0.146c-0.501-0.197-0.986-0.377-1.456-0.542
		c-0.121-0.043-0.236-0.081-0.355-0.121c-0.358-0.122-0.708-0.236-1.047-0.34c-0.137-0.042-0.273-0.084-0.408-0.124
		c-0.37-0.108-0.73-0.207-1.078-0.294c-0.059-0.015-0.123-0.034-0.183-0.048c-0.398-0.098-0.779-0.179-1.148-0.25
		c-0.11-0.021-0.214-0.039-0.321-0.058c-0.272-0.048-0.536-0.089-0.793-0.123c-0.101-0.014-0.204-0.029-0.302-0.04
		c-0.332-0.039-0.655-0.069-0.961-0.086c-0.028-0.001-0.053-0.001-0.081-0.002c-0.219-0.011-0.434-0.019-0.641-0.019
		c-0.04,0-0.073,0.005-0.113,0.006c-0.344,0.003-0.673,0.019-0.981,0.05c-0.021,0.002-0.043,0.002-0.064,0.004
		c-0.328,0.036-0.63,0.088-0.919,0.15c-0.089,0.02-0.171,0.044-0.257,0.065c-0.195,0.05-0.384,0.104-0.562,0.165
		c-0.087,0.03-0.173,0.061-0.256,0.093c-0.17,0.067-0.331,0.139-0.484,0.215c-0.064,0.032-0.133,0.062-0.195,0.095
		c-0.204,0.111-0.395,0.229-0.57,0.354c-0.029,0.021-0.052,0.044-0.081,0.064c-0.145,0.109-0.28,0.221-0.405,0.336
		c-0.051,0.048-0.098,0.096-0.146,0.145c-0.094,0.095-0.184,0.191-0.267,0.29c-0.043,0.051-0.086,0.102-0.126,0.154
		c-0.083,0.107-0.16,0.215-0.231,0.324c-0.026,0.039-0.055,0.078-0.079,0.118c-0.091,0.145-0.171,0.291-0.242,0.434
		c-0.021,0.041-0.036,0.079-0.054,0.12c-0.05,0.106-0.096,0.211-0.136,0.313c-0.02,0.051-0.038,0.101-0.056,0.151
		c-0.033,0.092-0.063,0.181-0.089,0.268c-0.013,0.044-0.027,0.088-0.039,0.131c-0.028,0.1-0.051,0.195-0.071,0.286
		c-0.005,0.022-0.011,0.046-0.016,0.068c-0.022,0.11-0.04,0.209-0.054,0.3c-0.004,0.03-0.007,0.054-0.01,0.082
		c-0.008,0.061-0.015,0.116-0.02,0.165c-0.003,0.026-0.005,0.046-0.006,0.069c-0.003,0.043-0.006,0.077-0.007,0.104
		c0,0.016-0.002,0.024-0.002,0.035c-0.001,0.028-0.001,0.045-0.001,0.045c0.382,0.143,0.755,0.311,1.122,0.491
		c0.097,0.047,0.192,0.095,0.288,0.145c0.321,0.167,0.638,0.345,0.948,0.538c0.043,0.028,0.089,0.052,0.133,0.08
		c0.345,0.221,0.682,0.461,1.014,0.713c0.086,0.066,0.172,0.135,0.258,0.204c0.274,0.218,0.545,0.446,0.81,0.686
		c0.061,0.056,0.125,0.109,0.186,0.166c0.312,0.29,0.617,0.594,0.916,0.912c0.074,0.079,0.147,0.162,0.221,0.243
		c0.241,0.264,0.478,0.538,0.71,0.82c0.07,0.085,0.141,0.167,0.21,0.254c0.28,0.349,0.554,0.709,0.822,1.082
		c0.061,0.085,0.12,0.173,0.18,0.259c0.218,0.312,0.432,0.63,0.642,0.958c0.07,0.109,0.141,0.217,0.21,0.328
		c0.251,0.401,0.498,0.811,0.737,1.233c0.044,0.078,0.086,0.159,0.131,0.238c0.202,0.361,0.399,0.73,0.592,1.104
		c0.068,0.131,0.136,0.263,0.203,0.396c0.225,0.446,0.445,0.897,0.659,1.36c0.021,0.047,0.042,0.096,0.063,0.143
		c0.196,0.429,0.387,0.867,0.574,1.309c0.062,0.147,0.124,0.293,0.185,0.441c0.174,0.424,0.346,0.852,0.513,1.286
		c0.028,0.073,0.058,0.145,0.086,0.219c0.188,0.495,0.37,0.998,0.548,1.504c0.054,0.155,0.107,0.311,0.161,0.466
		c0.143,0.416,0.283,0.836,0.42,1.259c0.037,0.116,0.076,0.232,0.114,0.349c0.164,0.518,0.324,1.04,0.479,1.566
		c0.045,0.153,0.09,0.308,0.134,0.462c0.122,0.421,0.241,0.844,0.357,1.269c0.039,0.142,0.079,0.285,0.117,0.427
		c0.143,0.533,0.282,1.069,0.416,1.606c0.037,0.145,0.071,0.292,0.107,0.437c0.105,0.43,0.208,0.861,0.308,1.292
		c0.037,0.161,0.075,0.321,0.112,0.482c0.123,0.542,0.243,1.085,0.358,1.629c0.025,0.119,0.049,0.239,0.074,0.358
		c0.096,0.456,0.188,0.912,0.278,1.368c0.031,0.16,0.063,0.32,0.094,0.479c0.106,0.553,0.21,1.105,0.31,1.655
		c0.011,0.058,0.021,0.115,0.03,0.172c0.092,0.513,0.18,1.024,0.265,1.533c0.024,0.146,0.049,0.292,0.073,0.438
		c0.087,0.53,0.172,1.059,0.253,1.583c0.004,0.028,0.009,0.057,0.013,0.084c0.084,0.552,0.165,1.101,0.243,1.646
		c0.021,0.142,0.04,0.282,0.06,0.423c0.066,0.472,0.13,0.941,0.191,1.407c0.01,0.075,0.02,0.15,0.03,0.225
		c0.07,0.539,0.136,1.072,0.2,1.599c0.013,0.107,0.025,0.214,0.039,0.321c0.055,0.462,0.107,0.92,0.158,1.372
		c0.009,0.077,0.018,0.155,0.026,0.231c0.057,0.519,0.111,1.029,0.163,1.532c0.008,0.079,0.015,0.156,0.023,0.234
		c0.044,0.442,0.086,0.877,0.126,1.306c0.007,0.082,0.016,0.163,0.022,0.244c0.045,0.487,0.088,0.965,0.127,1.431
		c0.004,0.041,0.006,0.079,0.01,0.119c0.036,0.431,0.07,0.851,0.102,1.263c0.003,0.043,0.007,0.086,0.01,0.129
		c-4.149,1.402-7.15,5.446-7.15,10.225c0,4.961,3.239,9.126,7.638,10.369v11.04v83.105c0.736-0.127,1.487-0.208,2.258-0.208
		c7.607,0,13.775,6.406,13.775,14.308c0,7.902-6.167,14.309-13.775,14.309c-0.771,0-1.522-0.081-2.258-0.208v13.669
		c0,0-4.446,115.257,117.973,186.636v0.004c0.001,0,0.001,0,0.002,0c0,0,0.001,0,0.003,0v-0.004
		C372.205,389.729,367.76,274.473,367.76,274.473v-13.667c-0.733,0.125-1.48,0.206-2.248,0.206c-7.605,0-13.773-6.406-13.773-14.309
		c0-7.902,6.168-14.308,13.773-14.308c0.768,0,1.515,0.081,2.248,0.207V149.5v-11.034c4.412-1.232,7.665-5.404,7.665-10.375
		c0-4.788-3.013-8.84-7.177-10.234c0.185-2.391,0.439-5.111,0.787-8.02c0.002-0.022,0.005-0.045,0.009-0.068
		c0.135-1.127,0.285-2.283,0.451-3.458c0.008-0.063,0.018-0.125,0.025-0.188c0.164-1.15,0.343-2.319,0.539-3.499
		c0.014-0.089,0.028-0.179,0.044-0.269c0.193-1.165,0.406-2.339,0.634-3.516c0.02-0.106,0.04-0.212,0.062-0.319
		c0.106-0.539,0.215-1.08,0.329-1.619c0.01-0.049,0.019-0.097,0.029-0.146c0.122-0.577,0.25-1.154,0.382-1.73
		c0.026-0.117,0.053-0.233,0.081-0.35c0.112-0.49,0.229-0.979,0.349-1.466c0.025-0.101,0.049-0.203,0.074-0.304
		c0.141-0.562,0.285-1.122,0.435-1.678c0.03-0.109,0.061-0.217,0.089-0.326c0.128-0.467,0.259-0.931,0.392-1.394
		c0.036-0.125,0.073-0.25,0.108-0.374c0.16-0.544,0.326-1.084,0.496-1.619c0.027-0.09,0.058-0.178,0.087-0.268
		c0.146-0.454,0.297-0.903,0.45-1.35c0.047-0.137,0.095-0.275,0.143-0.412c0.183-0.519,0.368-1.033,0.561-1.539
		c0.021-0.054,0.042-0.107,0.063-0.162c0.176-0.455,0.354-0.903,0.537-1.348c0.057-0.136,0.114-0.273,0.172-0.409
		c0.194-0.462,0.395-0.919,0.6-1.368c0.014-0.03,0.026-0.06,0.04-0.09c0.215-0.468,0.439-0.924,0.665-1.375
		c0.065-0.127,0.13-0.254,0.195-0.38c0.197-0.383,0.399-0.76,0.606-1.13c0.04-0.072,0.079-0.146,0.119-0.216
		c0.24-0.424,0.488-0.836,0.741-1.24c0.068-0.109,0.137-0.214,0.206-0.322c0.211-0.329,0.428-0.65,0.646-0.963
		c0.06-0.084,0.117-0.171,0.177-0.254c0.269-0.374,0.543-0.734,0.822-1.083c0.07-0.086,0.142-0.169,0.211-0.254
		c0.232-0.281,0.469-0.554,0.709-0.818c0.075-0.082,0.148-0.165,0.223-0.245c0.299-0.317,0.603-0.621,0.915-0.91
		c0.062-0.058,0.126-0.112,0.189-0.169c0.264-0.237,0.532-0.464,0.806-0.681c0.086-0.069,0.172-0.139,0.26-0.206
		c0.332-0.252,0.668-0.492,1.012-0.712c0.046-0.029,0.092-0.053,0.137-0.081c0.309-0.193,0.624-0.37,0.943-0.536
		c0.097-0.049,0.192-0.099,0.291-0.147c0.367-0.179,0.738-0.346,1.12-0.489C387.209,68.356,387.209,68.339,387.208,68.311z
		 M309.148,393.196c-15.971,19.815-35.914,37.229-59.364,51.844c-23.193-14.454-42.961-31.65-58.84-51.195
		c-13.92-17.134-24.931-36.141-32.727-56.492c-13.378-34.923-12.662-62.12-12.655-62.349l0.01-0.266v-0.266v-2.266
		c9.456-4.45,16.033-14.209,16.033-25.504c0-11.294-6.577-21.052-16.033-25.503v-61.134c0.593,0.073,1.194,0.123,1.806,0.123
		c8.453,0,15.306-7.119,15.306-15.899c0-1.313-0.169-2.581-0.458-3.8c27.623-6.832,57.032-10.537,87.558-10.537
		c30.482,0,59.851,3.695,87.439,10.508c-0.291,1.229-0.466,2.507-0.466,3.829c0,8.78,6.853,15.899,15.307,15.899
		c0.655,0,1.297-0.056,1.932-0.139v61.155c-9.451,4.453-16.021,14.208-16.021,25.498c0,11.291,6.57,21.046,16.021,25.498v2.271
		v0.266l0.011,0.265c0.01,0.26,0.853,26.44-12.21,61.176C334.074,356.716,323.091,375.899,309.148,393.196z"/>
	<path fill="#123960" d="M336.758,144.29c0-1.322,0.175-2.6,0.466-3.829c-27.588-6.813-56.957-10.508-87.439-10.508
		c-30.526,0-59.935,3.706-87.558,10.537c0.289,1.219,0.458,2.487,0.458,3.8c0,8.78-6.853,15.899-15.306,15.899
		c-0.612,0-1.212-0.05-1.806-0.123V221.2c9.456,4.451,16.033,14.208,16.033,25.503c0,11.295-6.577,21.054-16.033,25.504v2.266v0.266
		l-0.01,0.266c-0.007,0.229-0.724,27.426,12.655,62.349c7.796,20.352,18.807,39.358,32.727,56.492
		c15.879,19.545,35.647,36.741,58.84,51.195c23.45-14.615,43.393-32.028,59.364-51.844c13.942-17.297,24.926-36.48,32.648-57.018
		c13.063-34.735,12.22-60.916,12.21-61.176l-0.011-0.265v-0.266v-2.271c-9.451-4.452-16.021-14.207-16.021-25.498
		c0-11.291,6.57-21.045,16.021-25.498V160.05c-0.635,0.083-1.276,0.139-1.932,0.139C343.61,160.189,336.758,153.07,336.758,144.29z"
		/>
	<path fill="#F1CC5D" d="M306.062,228.276c-0.035-0.053-0.079-0.088-0.134-0.106c-0.071-0.018-0.177,0.071-0.312,0.258
		c-0.133,0.187-0.283,0.338-0.463,0.436c-0.247,0.151-0.567,0.249-0.969,0.284c-0.399,0.036-0.799,0-1.208-0.098
		c-0.4-0.098-0.668-0.222-0.792-0.382c-0.124-0.151-0.195-0.489-0.195-1.005c0-0.773,0-1.165,0-1.938
		c0-0.293,0.045-0.472,0.117-0.542c0.07-0.071,0.202-0.08,0.408-0.035c0.186,0.044,0.284,0.071,0.479,0.116
		c0.382,0.097,0.657,0.213,0.836,0.346c0.178,0.143,0.312,0.347,0.4,0.613c0.035,0.098,0.063,0.231,0.08,0.392
		c0.034,0.231,0.116,0.356,0.249,0.391c0.07,0.018,0.124,0.009,0.159-0.018c0.035-0.027,0.055-0.089,0.055-0.169
		c0-0.018-0.01-0.099-0.02-0.222c-0.053-0.498-0.079-0.97-0.079-1.415c0-0.285,0.009-0.56,0.035-0.827
		c0.009-0.063,0.009-0.098,0.009-0.106c0-0.098-0.018-0.168-0.044-0.213c-0.036-0.053-0.08-0.08-0.151-0.098
		c-0.123-0.035-0.24,0.054-0.339,0.267c-0.07,0.142-0.134,0.249-0.187,0.312c-0.114,0.124-0.257,0.195-0.418,0.222
		c-0.159,0.026-0.382,0.009-0.657-0.062c-0.159-0.036-0.24-0.054-0.399-0.098c-0.188-0.045-0.32-0.116-0.41-0.213
		c-0.079-0.098-0.124-0.249-0.124-0.435c0-0.774,0-1.166,0-1.939c0-0.267,0.08-0.444,0.223-0.507
		c0.152-0.071,0.409-0.063,0.782,0.026c0.623,0.151,1.094,0.32,1.396,0.499c0.312,0.187,0.534,0.427,0.65,0.711
		c0.043,0.106,0.07,0.267,0.088,0.462c0.019,0.196,0.098,0.311,0.23,0.338c0.072,0.026,0.125,0.018,0.152-0.009
		c0.035-0.027,0.044-0.089,0.044-0.188c0-0.018,0-0.062,0-0.125c0-0.329-0.009-0.64-0.009-0.933c0-0.107,0-0.16,0-0.267
		c0-0.187-0.026-0.311-0.08-0.374c-0.054-0.071-0.186-0.124-0.418-0.187c-0.071-0.018-0.497-0.107-1.271-0.267
		c-0.765-0.16-1.503-0.32-2.204-0.489c-0.677-0.161-1.325-0.347-1.957-0.542c-0.098-0.027-0.151-0.044-0.169-0.054
		c-0.097-0.018-0.178-0.018-0.231,0.018c-0.063,0.036-0.088,0.099-0.088,0.178c0,0.133,0.124,0.258,0.382,0.355h0.009
		c0.186,0.071,0.32,0.133,0.418,0.196c0.098,0.062,0.187,0.133,0.268,0.222c0.124,0.142,0.203,0.302,0.258,0.48
		c0.044,0.169,0.069,0.462,0.069,0.88c0,1.947,0,2.925,0,4.882c0,0.292-0.043,0.524-0.115,0.693
		c-0.079,0.178-0.212,0.302-0.382,0.365c-0.026,0.008-0.062,0.018-0.115,0.035c-0.054,0.018-0.09,0.027-0.107,0.036
		c-0.133,0.035-0.238,0.062-0.284,0.106c-0.035,0.036-0.053,0.099-0.053,0.178c0,0.071,0.027,0.133,0.079,0.177
		c0.044,0.054,0.125,0.09,0.214,0.107c0.009,0.01,0.231,0.036,0.668,0.099c0.435,0.071,0.862,0.151,1.279,0.249
		c0.338,0.081,0.764,0.196,1.28,0.355c0.507,0.161,0.845,0.268,1.014,0.302c0.393,0.099,0.711,0.125,0.979,0.081
		c0.259-0.054,0.471-0.179,0.641-0.374c0.134-0.161,0.247-0.365,0.336-0.623c0.099-0.249,0.145-0.453,0.145-0.623
		C306.107,228.392,306.088,228.33,306.062,228.276z M292.432,226.942c-0.151-0.071-0.293-0.16-0.417-0.275
		c-0.117-0.098-0.259-0.25-0.4-0.435c-0.144-0.188-0.303-0.41-0.472-0.677c-0.926-1.431-1.387-2.142-2.322-3.565
		c-0.061-0.098-0.115-0.187-0.142-0.258c-0.035-0.08-0.053-0.142-0.053-0.196c0-0.035,0.026-0.08,0.07-0.134
		c0.035-0.061,0.106-0.115,0.196-0.187c0.524-0.417,0.792-0.622,1.324-1.03c0.33-0.258,0.64-0.473,0.943-0.658
		c0.303-0.179,0.542-0.302,0.701-0.356c0.099-0.036,0.231-0.053,0.384-0.072c0.203-0.018,0.311-0.089,0.311-0.222
		c0-0.081-0.027-0.143-0.07-0.187c-0.046-0.045-0.116-0.072-0.223-0.089c-0.072-0.018-0.231-0.035-0.498-0.054
		c-0.276-0.018-0.508-0.053-0.721-0.088c-0.188-0.036-0.427-0.098-0.729-0.178c-0.294-0.081-0.499-0.133-0.604-0.151
		c-0.099-0.018-0.161-0.018-0.196,0.008c-0.035,0.019-0.053,0.063-0.053,0.125c0,0.168,0.097,0.275,0.284,0.329
		c0.062,0.018,0.106,0.036,0.142,0.044c0.09,0.036,0.17,0.089,0.223,0.16c0.053,0.063,0.081,0.134,0.081,0.223
		c0,0.142-0.152,0.381-0.454,0.702c-0.303,0.32-0.712,0.685-1.235,1.084c-0.561,0.445-0.845,0.658-1.414,1.103
		c-0.035,0.026-0.081,0.053-0.125,0.062c-0.044,0.018-0.08,0.027-0.107,0.018c-0.054-0.009-0.089-0.035-0.106-0.08
		c-0.018-0.045-0.025-0.143-0.025-0.285c0-0.836,0-1.245,0-2.08c0-0.045,0-0.071,0-0.116c0-0.355,0.025-0.596,0.078-0.729
		c0.046-0.143,0.135-0.249,0.251-0.338c0.079-0.053,0.203-0.107,0.364-0.142c0.018,0,0.035-0.008,0.044-0.008
		c0.107-0.027,0.196-0.054,0.231-0.089c0.035-0.027,0.053-0.08,0.053-0.134c0-0.079-0.018-0.133-0.062-0.187
		c-0.037-0.053-0.098-0.08-0.179-0.098c-0.018,0-0.07,0-0.159-0.009c-0.035,0-0.063,0-0.09-0.008c-0.026,0-0.079,0-0.15-0.009
		c-0.498-0.027-0.961-0.08-1.36-0.151c-0.329-0.053-0.676-0.124-1.032-0.212c-0.355-0.099-0.551-0.143-0.587-0.152
		c-0.099-0.009-0.169,0-0.231,0.036c-0.052,0.044-0.088,0.107-0.088,0.178c0,0.143,0.143,0.258,0.436,0.347
		c0.284,0.088,0.506,0.213,0.649,0.364c0.125,0.133,0.214,0.285,0.257,0.454c0.056,0.168,0.071,0.462,0.071,0.88
		c0,1.681,0,2.525,0,4.205c0,0.16,0,0.24,0,0.4c0,0.409-0.016,0.694-0.071,0.862c-0.043,0.169-0.142,0.302-0.257,0.4
		c-0.08,0.062-0.196,0.115-0.347,0.169c-0.026,0.009-0.044,0.018-0.055,0.018c-0.142,0.044-0.229,0.089-0.275,0.133
		c-0.043,0.044-0.062,0.098-0.062,0.178c0,0.071,0.026,0.124,0.079,0.178c0.055,0.044,0.125,0.071,0.224,0.089
		c0.063,0.009,0.285,0.026,0.667,0.053c0.373,0.027,0.72,0.063,1.03,0.116c0.277,0.045,0.578,0.117,0.917,0.205
		c0.347,0.097,0.541,0.151,0.604,0.16c0.098,0.018,0.168,0.01,0.205-0.026c0.043-0.026,0.062-0.098,0.062-0.204
		c0-0.134-0.116-0.25-0.348-0.347c-0.008-0.01-0.008-0.01-0.008-0.01c-0.099-0.035-0.18-0.07-0.24-0.106
		c-0.07-0.036-0.134-0.081-0.187-0.133c-0.161-0.134-0.269-0.302-0.339-0.507c-0.062-0.204-0.097-0.56-0.097-1.066
		c0-0.098,0-0.151,0-0.25c0-0.248,0-0.373,0-0.621c0-0.179,0.017-0.303,0.043-0.375c0.018-0.08,0.063-0.133,0.124-0.169
		c0.162-0.115,0.232-0.169,0.392-0.285c0.054-0.035,0.099-0.062,0.135-0.08c0.035-0.018,0.053-0.027,0.07-0.027
		c0.018,0.009,0.036,0.018,0.054,0.036c0.018,0.018,0.053,0.071,0.105,0.151c1.032,1.609,1.539,2.427,2.57,4.054
		c0.081,0.125,0.159,0.231,0.258,0.32c0.088,0.081,0.18,0.125,0.258,0.143c0.053,0.009,0.151,0.018,0.303,0.026
		c0.16,0.009,0.284,0.018,0.373,0.045c0.099,0.018,0.258,0.054,0.473,0.125c0.212,0.063,0.372,0.106,0.488,0.125
		c0.105,0.026,0.187,0.017,0.229-0.018c0.046-0.036,0.063-0.098,0.063-0.205C292.662,227.094,292.582,227.014,292.432,226.942z
		 M277.11,224.471c-0.008-0.009-0.018-0.009-0.035-0.018c-0.061-0.018-0.116-0.044-0.142-0.054c-0.177-0.088-0.32-0.186-0.428-0.319
		c-0.115-0.134-0.221-0.32-0.319-0.569c-1.271-3.13-1.911-4.686-3.192-7.79c-0.026-0.071-0.062-0.125-0.107-0.169
		c-0.043-0.044-0.078-0.071-0.124-0.08c-0.079-0.009-0.15,0.044-0.194,0.15c-0.631,1.352-1.103,2.357-1.584,3.37
		c-0.47,1.015-0.943,2.028-1.572,3.38c-0.161,0.355-0.304,0.604-0.41,0.755c-0.106,0.143-0.231,0.258-0.364,0.339
		c-0.053,0.026-0.142,0.062-0.249,0.088c-0.179,0.054-0.277,0.142-0.277,0.259c0,0.08,0.028,0.142,0.072,0.186
		c0.045,0.054,0.115,0.081,0.205,0.089c0.009,0,0.125-0.008,0.365-0.026c0.239-0.018,0.479-0.009,0.719,0.009
		c0.313,0.035,0.649,0.08,1.014,0.161c0.356,0.071,0.562,0.115,0.604,0.115c0.089,0.009,0.161,0,0.215-0.044
		c0.043-0.036,0.071-0.098,0.071-0.187c0-0.072-0.028-0.125-0.081-0.169c-0.053-0.044-0.188-0.116-0.364-0.143
		c-0.018-0.009-0.035-0.009-0.035-0.009c-0.01-0.009-0.018-0.009-0.018-0.018c-0.195-0.115-0.517-0.187-0.658-0.32
		c-0.134-0.125-0.204-0.285-0.204-0.463c0-0.062,0.009-0.115,0.018-0.186c0.018-0.072,0.043-0.143,0.079-0.231
		c0.133-0.365,0.205-0.551,0.338-0.916c0.081-0.205,0.17-0.338,0.275-0.4c0.107-0.063,0.339-0.071,0.694-0.036
		c0.658,0.063,0.978,0.098,1.636,0.169c0.053,0,0.08,0.008,0.134,0.008c0.293,0.036,0.479,0.089,0.578,0.169
		c0.097,0.081,0.186,0.232,0.274,0.462c0.143,0.356,0.215,0.534,0.356,0.881c0.044,0.098,0.07,0.187,0.088,0.284
		c0.028,0.098,0.036,0.195,0.036,0.276c0,0.16-0.045,0.285-0.124,0.382c-0.08,0.098-0.258,0.169-0.453,0.24
		c-0.01,0-0.027,0.009-0.035,0.019c-0.196,0.071-0.286,0.151-0.286,0.23c0,0.072,0.018,0.133,0.063,0.187
		c0.035,0.054,0.08,0.089,0.142,0.089c0.018,0.009,0.081,0.009,0.179,0c0.47-0.009,0.941,0.009,1.404,0.062
		c0.319,0.036,0.676,0.099,1.067,0.187c0.391,0.08,0.622,0.133,0.685,0.142c0.097,0.01,0.16,0,0.186-0.026
		c0.028-0.027,0.046-0.089,0.046-0.187C277.396,224.666,277.298,224.551,277.11,224.471z M273.376,220.763
		c-0.069,0.026-0.168,0.026-0.302,0.009c-0.569-0.062-0.862-0.088-1.44-0.151c-0.223-0.018-0.373-0.044-0.454-0.08
		c-0.071-0.036-0.106-0.089-0.106-0.16c0-0.027,0.011-0.071,0.028-0.133c0.018-0.054,0.035-0.116,0.062-0.169
		c0.373-0.845,0.561-1.262,0.942-2.098c0.018-0.053,0.053-0.098,0.079-0.125c0.036-0.027,0.072-0.045,0.107-0.036
		c0.025,0,0.063,0.026,0.089,0.071c0.035,0.044,0.063,0.098,0.089,0.178c0.356,0.88,0.533,1.316,0.89,2.206
		c0.036,0.08,0.063,0.16,0.08,0.231c0.026,0.071,0.034,0.125,0.034,0.151C273.474,220.71,273.439,220.746,273.376,220.763z
		 M261.551,221.27c-0.081,0-0.178,0.107-0.311,0.321c-0.134,0.213-0.294,0.382-0.463,0.524c-0.258,0.205-0.587,0.364-0.994,0.471
		c-0.411,0.116-0.828,0.161-1.247,0.143c-0.391-0.018-0.648-0.089-0.781-0.205c-0.142-0.125-0.205-0.445-0.205-0.987
		c0-2.009,0-3.014,0-5.024c0-0.417,0.026-0.702,0.071-0.845c0.053-0.151,0.143-0.275,0.267-0.382
		c0.081-0.063,0.196-0.125,0.348-0.178c0.025-0.017,0.043-0.017,0.061-0.026c0.116-0.036,0.197-0.08,0.233-0.116
		c0.035-0.036,0.044-0.08,0.044-0.143c0-0.071-0.02-0.133-0.055-0.177c-0.044-0.045-0.096-0.071-0.177-0.071
		c-0.026,0-0.115,0-0.249,0.009c-0.532,0.044-1.049,0.053-1.529,0.035c-0.329-0.018-0.677-0.044-1.041-0.088
		c-0.363-0.045-0.56-0.072-0.595-0.072c-0.098,0-0.178,0.019-0.231,0.063c-0.054,0.044-0.08,0.107-0.08,0.188
		c0,0.142,0.134,0.24,0.392,0.284c0,0,0,0.009,0.008,0.009c0.17,0.026,0.312,0.062,0.41,0.106c0.097,0.045,0.194,0.098,0.266,0.169
		c0.134,0.124,0.223,0.275,0.275,0.444c0.053,0.169,0.081,0.454,0.081,0.854c0,1.947,0,2.925,0,4.881
		c0,0.293-0.035,0.534-0.125,0.72c-0.08,0.187-0.213,0.347-0.373,0.437c-0.046,0.017-0.098,0.044-0.152,0.07
		c-0.061,0.027-0.088,0.036-0.096,0.045c-0.153,0.053-0.251,0.115-0.286,0.159c-0.044,0.045-0.063,0.107-0.063,0.188
		c0,0.07,0.028,0.124,0.092,0.168c0.053,0.036,0.133,0.063,0.229,0.063c0.009,0,0.23-0.009,0.676-0.035
		c0.445-0.019,0.872-0.019,1.299,0c0.347,0.009,0.782,0.045,1.297,0.106c0.518,0.062,0.864,0.098,1.032,0.106
		c0.4,0.018,0.737-0.026,1.013-0.124c0.269-0.098,0.498-0.267,0.659-0.498c0.143-0.178,0.249-0.409,0.347-0.685
		c0.09-0.266,0.143-0.479,0.143-0.64c0-0.071-0.018-0.134-0.053-0.187C261.649,221.297,261.604,221.27,261.551,221.27z
		 M238.256,214.646c-0.054-0.045-0.178-0.063-0.392-0.054c-0.071,0-0.356,0.026-0.845,0.071c-0.489,0.045-0.933,0.08-1.351,0.098
		c-1.192,0.062-1.788,0.098-2.97,0.177c-0.4,0.027-0.836,0.045-1.299,0.054c-0.462,0-0.72,0.009-0.773,0.009
		c-0.133,0.018-0.222,0.044-0.266,0.106c-0.053,0.063-0.081,0.205-0.098,0.444c-0.027,0.454-0.098,0.925-0.178,1.423
		c-0.017,0.133-0.035,0.214-0.035,0.24c0,0.089,0.018,0.169,0.054,0.205c0.026,0.044,0.08,0.062,0.151,0.053
		c0.16-0.009,0.276-0.159,0.347-0.444c0.063-0.249,0.142-0.453,0.214-0.622c0.115-0.258,0.293-0.444,0.542-0.56
		c0.258-0.117,0.694-0.196,1.325-0.24c0.382-0.018,0.614,0,0.703,0.053c0.08,0.054,0.125,0.214,0.125,0.472c0,2.249,0,3.378,0,5.637
		c0,0.329-0.054,0.595-0.169,0.8c-0.106,0.204-0.285,0.373-0.516,0.48c-0.054,0.018-0.125,0.045-0.205,0.071
		c-0.08,0.026-0.133,0.053-0.16,0.062c0,0,0,0-0.009,0c-0.25,0.08-0.374,0.178-0.374,0.311c0,0.081,0.036,0.142,0.099,0.187
		c0.062,0.036,0.151,0.054,0.258,0.054c0.088-0.009,0.363-0.044,0.817-0.115c0.453-0.072,0.854-0.117,1.201-0.134
		c0.328-0.026,0.702-0.026,1.093-0.009c0.399,0.018,0.632,0.018,0.685,0.018c0.106-0.009,0.187-0.026,0.24-0.08
		c0.053-0.045,0.081-0.107,0.081-0.196c0-0.142-0.134-0.241-0.4-0.285c-0.009,0-0.009,0-0.018-0.009c-0.009,0-0.018,0-0.036,0
		c-0.142-0.036-0.276-0.044-0.347-0.071c-0.249-0.089-0.418-0.231-0.525-0.418c-0.106-0.187-0.159-0.454-0.159-0.792
		c0-2.232,0-3.343,0-5.566c0-0.258,0.044-0.426,0.133-0.498c0.089-0.079,0.364-0.133,0.818-0.15c0.035-0.01,0.062-0.01,0.106-0.01
		c0.561-0.026,0.952-0.008,1.183,0.072c0.231,0.071,0.409,0.213,0.516,0.417c0.053,0.106,0.097,0.231,0.142,0.392
		c0.063,0.205,0.161,0.293,0.312,0.293c0.08-0.01,0.125-0.018,0.142-0.044c0.027-0.027,0.036-0.107,0.036-0.24
		c0-0.044,0-0.062,0-0.106c-0.044-0.507-0.062-0.765-0.106-1.272C238.335,214.788,238.3,214.69,238.256,214.646z M224.527,222.061
		c-0.071,0.009-0.177,0.134-0.312,0.365c-0.133,0.239-0.285,0.436-0.462,0.604c-0.258,0.249-0.586,0.453-0.987,0.631
		c-0.409,0.178-0.817,0.284-1.235,0.337c-0.392,0.045-0.658,0.019-0.792-0.08c-0.134-0.097-0.196-0.418-0.196-0.959
		c0-2.01,0-3.014,0-5.024c0-0.409,0.018-0.703,0.071-0.854c0.054-0.16,0.142-0.293,0.267-0.418c0.08-0.081,0.196-0.159,0.338-0.24
		c0.035-0.018,0.053-0.026,0.062-0.036c0.116-0.053,0.195-0.107,0.23-0.151c0.036-0.044,0.053-0.088,0.053-0.151
		c0-0.071-0.017-0.133-0.062-0.168c-0.044-0.036-0.098-0.054-0.178-0.044c-0.026,0.008-0.106,0.026-0.24,0.053
		c-0.542,0.125-1.049,0.213-1.529,0.276c-0.329,0.035-0.676,0.062-1.032,0.079c-0.364,0.01-0.56,0.019-0.596,0.019
		c-0.098,0.018-0.169,0.054-0.222,0.107c-0.053,0.053-0.08,0.115-0.08,0.195c0,0.142,0.125,0.214,0.382,0.222
		c0.008,0,0.008,0,0.008,0c0.178,0,0.312,0.018,0.41,0.044s0.195,0.071,0.267,0.134c0.133,0.098,0.222,0.24,0.275,0.4
		c0.053,0.16,0.08,0.444,0.08,0.835c0,1.957,0,2.935,0,4.882c0,0.293-0.044,0.542-0.125,0.738c-0.08,0.205-0.213,0.382-0.373,0.498
		c-0.044,0.027-0.098,0.063-0.151,0.098c-0.063,0.036-0.098,0.053-0.098,0.053c-0.151,0.089-0.24,0.16-0.285,0.214
		c-0.044,0.053-0.062,0.116-0.062,0.195c0,0.071,0.027,0.125,0.09,0.151c0.053,0.036,0.133,0.044,0.23,0.036
		c0.009-0.008,0.232-0.053,0.667-0.143c0.444-0.098,0.871-0.168,1.298-0.213c0.347-0.045,0.774-0.081,1.29-0.097
		c0.515-0.027,0.862-0.045,1.031-0.063c0.399-0.044,0.738-0.133,1.004-0.284c0.267-0.143,0.498-0.338,0.667-0.596
		c0.134-0.205,0.24-0.454,0.338-0.738c0.098-0.285,0.142-0.516,0.142-0.676c0-0.071-0.018-0.125-0.053-0.169
		C224.625,222.079,224.581,222.061,224.527,222.061z M210.889,225.626c0-0.009,0-0.009,0-0.009c-0.01,0-0.019,0-0.036,0
		c-0.063-0.009-0.116-0.009-0.143-0.018c-0.168-0.035-0.311-0.097-0.426-0.196c-0.106-0.098-0.213-0.257-0.311-0.48
		c-1.272-2.756-1.912-4.135-3.174-6.873c-0.027-0.063-0.063-0.107-0.107-0.142c-0.044-0.036-0.081-0.045-0.133-0.036
		c-0.081,0.009-0.143,0.08-0.188,0.195v0.01c-1.253,3.049-1.876,4.579-3.121,7.646c-0.169,0.4-0.302,0.693-0.409,0.872
		c-0.107,0.177-0.222,0.319-0.355,0.435c-0.062,0.053-0.143,0.107-0.249,0.169c-0.187,0.106-0.275,0.222-0.275,0.329
		c0,0.08,0.026,0.143,0.07,0.169c0.045,0.035,0.117,0.044,0.205,0.026c0,0,0.125-0.045,0.356-0.125c0.24-0.089,0.48-0.15,0.72-0.195
		c0.302-0.062,0.64-0.106,0.995-0.133c0.356-0.027,0.561-0.045,0.596-0.054c0.099-0.018,0.161-0.053,0.214-0.098
		c0.044-0.054,0.071-0.125,0.071-0.213c0-0.071-0.027-0.115-0.08-0.143c-0.054-0.035-0.188-0.062-0.357-0.053
		c-0.017,0.008-0.035,0.008-0.044,0.008s-0.009-0.008-0.017-0.008c-0.169-0.062-0.499-0.045-0.641-0.134
		c-0.142-0.088-0.212-0.222-0.212-0.409c0-0.053,0.008-0.116,0.026-0.187c0.018-0.081,0.044-0.161,0.071-0.258
		c0.143-0.4,0.204-0.604,0.338-1.014c0.08-0.222,0.169-0.382,0.275-0.471c0.107-0.097,0.338-0.177,0.694-0.24
		c0.64-0.124,0.96-0.177,1.609-0.292c0.053-0.01,0.08-0.018,0.132-0.027c0.294-0.053,0.49-0.053,0.579,0
		c0.098,0.054,0.187,0.178,0.275,0.383c0.143,0.312,0.213,0.471,0.356,0.783c0.035,0.08,0.071,0.168,0.089,0.257
		c0.017,0.089,0.027,0.178,0.027,0.267c0,0.161-0.036,0.293-0.116,0.418c-0.08,0.124-0.25,0.24-0.454,0.364
		c-0.009,0.009-0.026,0.018-0.035,0.027c-0.187,0.125-0.285,0.231-0.285,0.312c0,0.079,0.018,0.133,0.063,0.177
		c0.036,0.045,0.08,0.063,0.142,0.045c0.018,0,0.081-0.018,0.169-0.045c0.48-0.151,0.952-0.267,1.405-0.347
		c0.321-0.053,0.676-0.088,1.067-0.125c0.391-0.026,0.614-0.044,0.676-0.053c0.098-0.018,0.16-0.044,0.187-0.071
		c0.027-0.036,0.045-0.106,0.045-0.195C211.172,225.733,211.074,225.653,210.889,225.626z M207.171,222.986
		c-0.062,0.035-0.169,0.071-0.294,0.089c-0.569,0.106-0.863,0.16-1.431,0.267c-0.223,0.036-0.374,0.053-0.444,0.044
		c-0.071-0.018-0.107-0.062-0.107-0.133c0-0.026,0.008-0.071,0.018-0.133c0.018-0.062,0.036-0.125,0.063-0.196
		c0.374-0.942,0.561-1.414,0.934-2.365c0.026-0.063,0.054-0.107,0.089-0.143c0.026-0.044,0.062-0.062,0.098-0.071
		c0.026-0.008,0.062,0.009,0.088,0.045c0.036,0.035,0.063,0.088,0.098,0.151c0.347,0.782,0.525,1.174,0.881,1.956
		c0.035,0.071,0.053,0.142,0.08,0.213c0.018,0.062,0.026,0.107,0.026,0.133C207.269,222.897,207.233,222.941,207.171,222.986z
		 M194.741,224.729c-0.258-0.196-0.792-0.355-1.592-0.472c-0.142-0.018-0.257-0.036-0.329-0.044c-0.658-0.089-1.111-0.231-1.36-0.4
		c-0.24-0.179-0.365-0.436-0.365-0.774c0-0.356,0.134-0.676,0.383-0.969c0.258-0.302,0.586-0.499,0.978-0.596
		c0.392-0.098,0.765-0.08,1.129,0.035c0.357,0.125,0.649,0.338,0.854,0.631c0.142,0.205,0.249,0.444,0.32,0.694
		c0.081,0.249,0.178,0.364,0.302,0.338c0.071-0.018,0.115-0.045,0.142-0.089c0.027-0.044,0.044-0.115,0.044-0.222
		c0-0.133-0.026-0.374-0.089-0.729c-0.052-0.356-0.08-0.631-0.08-0.836c0-0.053,0-0.133,0.009-0.231
		c0.009-0.089,0.009-0.16,0.009-0.204c0-0.107-0.018-0.169-0.044-0.205c-0.036-0.035-0.098-0.044-0.178-0.018
		c-0.018,0-0.089,0.045-0.186,0.125c-0.107,0.08-0.214,0.133-0.33,0.16c-0.106,0.018-0.347,0.009-0.729-0.044
		c-0.382-0.044-0.755-0.026-1.111,0.062c-0.694,0.169-1.272,0.542-1.726,1.111c-0.462,0.578-0.684,1.2-0.684,1.867
		c0,1.076,0.8,1.751,2.41,2.054c0.008,0,0.008,0,0.008,0c0.08,0.019,0.116,0.026,0.196,0.036c1.219,0.24,1.822,0.667,1.822,1.29
		c0,0.488-0.159,0.923-0.471,1.297c-0.32,0.382-0.72,0.631-1.219,0.747c-0.382,0.098-0.764,0.063-1.129-0.107
		c-0.373-0.177-0.685-0.453-0.943-0.844c-0.124-0.196-0.23-0.417-0.329-0.676c-0.098-0.249-0.187-0.356-0.275-0.329
		c-0.099,0.018-0.161,0.054-0.196,0.106c-0.036,0.045-0.054,0.134-0.054,0.24c0,0.009,0.009,0.036,0.018,0.08
		c0.01,0.045,0.018,0.089,0.027,0.134c0.16,0.675,0.24,1.014,0.4,1.689c0,0.009,0,0.018,0,0.018c0.009,0.01,0.009,0.019,0.009,0.019
		c0.071,0.187,0.195,0.311,0.391,0.302c0.018,0,0.036,0,0.062-0.009c0.027,0,0.045,0,0.063,0c0.088,0,0.356,0,0.773,0.035
		c0.418,0.036,0.792,0.018,1.111-0.062c0.8-0.195,1.449-0.613,1.948-1.245c0.498-0.64,0.755-1.369,0.755-2.213
		c0-0.391-0.071-0.737-0.195-1.041C195.168,225.147,194.981,224.907,194.741,224.729z"/>
	
		<path fill="#FFFFFF" d="M339.067,203.87c-0.17-0.294-0.393-0.472-0.658-0.534c-0.392-0.089-0.926,0.347-1.592,1.333
			c-0.666,0.978-1.44,1.752-2.329,2.321c-1.299,0.835-2.97,1.36-5.024,1.609c-2.054,0.241-4.151,0.151-6.277-0.258
			c-1.993-0.391-3.326-0.924-4.01-1.636c-0.685-0.702-1.031-2.445-1.031-5.219c0-8.616,0-17.232,0-25.848
			c0-2.125,0.133-3.547,0.39-4.277c0.26-0.72,0.721-1.307,1.354-1.752c0.391-0.275,0.978-0.516,1.742-0.702
			c0.142-0.036,0.249-0.062,0.31-0.071c0.589-0.098,0.988-0.25,1.165-0.418c0.17-0.16,0.269-0.4,0.269-0.711
			c0-0.374-0.107-0.694-0.312-0.952c-0.212-0.258-0.506-0.427-0.908-0.507c-0.142-0.027-0.559-0.063-1.234-0.107
			c-2.731-0.187-5.326-0.498-7.78-0.898c-1.681-0.285-3.45-0.648-5.309-1.111c-1.849-0.454-2.863-0.686-3.023-0.712
			c-0.506-0.072-0.888,0-1.174,0.195c-0.283,0.205-0.427,0.517-0.427,0.934c0,0.702,0.668,1.262,2.001,1.68
			c0.018,0.009,0.018,0.009,0.037,0.009c0.897,0.249,1.6,0.525,2.106,0.81c0.506,0.285,0.969,0.631,1.36,1.049
			c0.665,0.711,1.128,1.547,1.396,2.454c0.275,0.907,0.408,2.383,0.408,4.419c0,8.367,0,16.733,0,25.101
			c0,1.503-0.205,2.712-0.622,3.628c-0.418,0.916-1.084,1.663-1.929,2.01c-0.196,0.08-0.472,0.16-0.774,0.267
			c-0.302,0.098-0.472,0.159-0.516,0.168c-0.729,0.231-1.227,0.445-1.43,0.667c-0.216,0.222-0.313,0.542-0.313,0.96
			c0,0.346,0.143,0.648,0.436,0.889c0.294,0.24,0.684,0.392,1.183,0.472c0.045,0,1.2,0.071,3.45,0.24
			c2.259,0.169,4.464,0.444,6.624,0.818c1.76,0.311,3.956,0.8,6.589,1.502c2.631,0.694,4.375,1.147,5.235,1.334
			c2.029,0.418,3.728,0.498,5.097,0.204c1.369-0.285,2.507-0.943,3.352-1.965c0.675-0.826,1.253-1.92,1.726-3.218
			c0.472-1.307,0.71-2.374,0.71-3.209C339.333,204.483,339.244,204.163,339.067,203.87z M298.282,205.221
			c-0.011-0.009-0.018-0.018-0.028-0.035c-0.025,0-0.078-0.018-0.159-0.044c-0.329-0.125-0.587-0.231-0.756-0.312
			c-0.862-0.426-1.6-0.96-2.169-1.618c-0.578-0.667-1.122-1.636-1.646-2.925c-5.424-13.23-10.892-26.443-16.414-39.629
			c-0.151-0.347-0.329-0.632-0.551-0.854c-0.223-0.223-0.444-0.338-0.676-0.355c-0.417-0.027-0.755,0.23-1.004,0.782
			c0,0.009,0,0.018,0,0.027c-5.442,11.87-10.856,23.758-16.236,35.655c-0.862,1.903-1.563,3.254-2.125,4.046
			c-0.552,0.8-1.182,1.431-1.867,1.876c-0.293,0.187-0.738,0.382-1.29,0.587c-0.941,0.356-1.421,0.853-1.421,1.44
			c0,0.418,0.124,0.729,0.364,0.952c0.239,0.222,0.594,0.329,1.057,0.329c0.019,0,0.65-0.088,1.886-0.267s2.473-0.258,3.717-0.231
			c1.591,0.026,3.326,0.169,5.192,0.444c1.867,0.267,2.898,0.418,3.113,0.428c0.48,0.017,0.842-0.081,1.101-0.285
			c0.25-0.205,0.374-0.543,0.374-0.996c0-0.356-0.133-0.64-0.41-0.854c-0.266-0.204-0.969-0.533-1.849-0.649
			c-0.098-0.018-0.187-0.018-0.223-0.027c-0.044-0.009-0.079-0.045-0.097-0.053c-0.96-0.542-2.623-0.818-3.353-1.44
			c-0.72-0.613-1.085-1.387-1.085-2.32c0-0.293,0.045-0.614,0.125-0.97c0.09-0.356,0.214-0.756,0.383-1.209
			c0.702-1.929,1.058-2.898,1.761-4.818c0.399-1.076,0.871-1.788,1.413-2.143c0.551-0.356,1.743-0.507,3.592-0.418
			c3.353,0.151,5.033,0.249,8.395,0.471c0.275,0.018,0.408,0.026,0.692,0.053c1.503,0.098,2.499,0.356,2.997,0.747
			c0.488,0.391,0.969,1.174,1.422,2.338c0.73,1.779,1.094,2.676,1.823,4.463c0.214,0.48,0.373,0.969,0.472,1.467
			c0.106,0.498,0.159,0.96,0.159,1.406c0,0.809-0.214,1.476-0.631,1.992c-0.417,0.515-1.279,0.897-2.355,1.289
			c-0.036,0.009-0.098,0.044-0.187,0.08c-0.961,0.4-1.441,0.81-1.441,1.228c0,0.399,0.098,0.728,0.294,0.996
			c0.204,0.257,0.444,0.409,0.736,0.426c0.108,0.009,0.419,0.009,0.917-0.018c2.446-0.134,4.882-0.115,7.246,0.125
			c1.654,0.169,3.485,0.454,5.504,0.881c2.011,0.417,3.184,0.657,3.521,0.702c0.498,0.062,0.819,0.026,0.952-0.116
			c0.134-0.133,0.205-0.453,0.205-0.951C299.723,206.199,299.243,205.638,298.282,205.221z M279.04,186.513
			c-0.347,0.125-0.853,0.16-1.52,0.116c-2.97-0.205-4.454-0.293-7.425-0.436c-1.175-0.053-1.947-0.16-2.32-0.311
			c-0.382-0.151-0.569-0.409-0.569-0.783c0-0.151,0.036-0.373,0.124-0.667c0.08-0.302,0.188-0.604,0.313-0.916
			c1.938-4.428,2.907-6.642,4.845-11.052c0.125-0.285,0.275-0.498,0.445-0.658c0.16-0.16,0.347-0.231,0.533-0.223
			c0.142,0.009,0.303,0.125,0.471,0.337c0.169,0.223,0.321,0.525,0.472,0.908c1.832,4.445,2.757,6.677,4.588,11.149
			c0.169,0.427,0.302,0.827,0.408,1.201c0.107,0.373,0.152,0.622,0.152,0.747C279.557,186.193,279.387,186.397,279.04,186.513z
			 M247.627,193.253c-0.401,0.008-0.943,0.586-1.636,1.742c-0.694,1.156-1.521,2.125-2.427,2.899
			c-1.316,1.121-3.023,2.098-5.113,2.854c-2.089,0.748-4.196,1.183-6.34,1.298c-2.089,0.116-3.477-0.124-4.143-0.72
			c-0.676-0.604-1.005-2.231-1.005-4.873c0-3.992,0-5.983,0-9.976c0-1.502,0.187-2.49,0.561-2.961
			c0.382-0.471,1.094-0.739,2.143-0.801c1.005-0.062,1.503-0.097,2.517-0.151c2.01-0.106,3.477,0.08,4.401,0.534
			c0.924,0.444,1.654,1.307,2.107,2.525c0.169,0.462,0.311,1.111,0.436,1.92c0.169,1.12,0.604,1.671,1.298,1.645
			c0.355-0.008,0.622-0.115,0.809-0.32c0.195-0.204,0.285-0.515,0.285-0.933c0-0.125-0.027-0.498-0.089-1.121
			c-0.267-2.481-0.409-4.881-0.409-7.175c0-1.44,0.036-2.898,0.187-4.287c0.035-0.328,0.062-0.533,0.062-0.595
			c0-0.48-0.081-0.827-0.249-1.022c-0.169-0.205-0.436-0.302-0.791-0.293c-0.649,0.018-1.245,0.658-1.788,1.903
			c-0.364,0.827-0.685,1.449-0.978,1.85c-0.596,0.818-1.343,1.414-2.188,1.787c-0.854,0.365-2.009,0.587-3.477,0.666
			c-0.827,0.045-1.245,0.072-2.072,0.125c-0.987,0.053-1.698-0.107-2.125-0.499c-0.426-0.391-0.641-1.058-0.641-2.018
			c0-4.001,0-6.001,0-10.003c0-1.378,0.383-2.356,1.147-2.952c0.765-0.586,2.117-0.952,4.073-1.049c3.29-0.178,5.744,0,7.354,0.489
			c1.618,0.489,2.774,1.404,3.405,2.72c0.231,0.48,0.392,1.236,0.48,2.223c0.098,0.987,0.489,1.468,1.183,1.458
			c0.4-0.008,0.675-0.097,0.817-0.267c0.151-0.169,0.223-0.516,0.223-1.04c0-0.081,0-0.302,0-0.649
			c-0.018-1.655-0.063-3.264-0.063-4.785c0-0.542,0-0.809,0-1.342c0-0.96-0.133-1.574-0.391-1.841
			c-0.267-0.267-0.996-0.391-2.188-0.355c-0.4,0.009-2.623,0.125-6.677,0.453c-4.045,0.33-7.905,0.632-11.568,0.898
			c-3.538,0.268-6.971,0.383-10.233,0.427c-0.499,0-0.792,0.019-0.872,0.027c-0.525,0.054-0.934,0.213-1.227,0.489
			c-0.294,0.267-0.436,0.614-0.436,1.032c0,0.711,0.658,1.102,1.974,1.2c0.026-0.009,0.036-0.009,0.062-0.009
			c0.943,0.026,1.671,0.125,2.178,0.284c0.516,0.16,0.979,0.392,1.369,0.712c0.641,0.534,1.094,1.228,1.343,2.036
			c0.258,0.809,0.383,2.276,0.383,4.401c0,8.367,0,16.742,0,25.109c0,1.494-0.205,2.756-0.614,3.77
			c-0.409,1.014-1.066,1.877-1.965,2.499c-0.133,0.098-0.355,0.222-0.622,0.382c-0.276,0.161-0.463,0.294-0.569,0.356
			c-0.685,0.418-1.227,0.747-1.441,1.014c-0.204,0.275-0.311,0.622-0.311,1.04c0,0.356,0.134,0.613,0.409,0.783
			c0.267,0.169,0.649,0.231,1.129,0.187c0.063-0.009,1.227-0.223,3.495-0.613c2.267-0.391,4.499-0.658,6.677-0.818
			c1.779-0.124,4.011-0.177,6.695-0.133c2.677,0.044,4.463,0.071,5.344,0.036c2.036-0.08,3.734-0.427,5.113-1.041
			c1.369-0.622,2.498-1.564,3.378-2.818c0.711-1.014,1.316-2.232,1.796-3.655c0.48-1.422,0.729-2.552,0.729-3.388
			c0-0.373-0.089-0.675-0.258-0.916S247.902,193.253,247.627,193.253z M207.954,203.345c-0.098,0.009-0.338,0.062-0.721,0.151
			c-0.373,0.089-0.684,0.142-0.934,0.178c-0.854,0.107-1.601-0.08-2.241-0.551c-0.631-0.463-1.432-1.494-2.392-3.068
			c-2.587-4.437-3.885-6.642-6.464-11.035c-0.436-0.765-0.817-1.316-1.156-1.653c-0.329-0.329-1.058-0.658-1.058-0.685
			c0,0,4.891-3.006,6.259-4.891c1.361-1.885,2.045-4.099,2.045-6.668c0-3.85-1.298-6.65-3.885-8.35
			c-2.597-1.698-6.287-2.177-11.052-1.324c-1.494,0.266-3.548,0.737-6.153,1.449c-2.605,0.711-4.455,1.2-5.548,1.431
			c-2.169,0.454-4.517,0.845-7.015,1.183c-0.658,0.089-1.067,0.151-1.209,0.187c-0.517,0.115-0.907,0.32-1.183,0.604
			c-0.275,0.285-0.418,0.641-0.418,1.058c0,0.729,0.613,1.05,1.85,0.96c0.026,0,0.035,0,0.062-0.009
			c0.045,0.009,0.099,0,0.151-0.008c1.219-0.161,2.339,0.169,2.935,0.639c0.578,0.454,0.987,1.076,1.227,1.859
			c0.232,0.773,0.347,2.241,0.347,4.383c0.009,8.367,0.009,16.734,0,25.101c0,1.502-0.196,2.792-0.596,3.859
			c-0.4,1.067-1.049,2.009-1.929,2.747c-0.143,0.116-0.356,0.276-0.623,0.471c-0.267,0.196-0.454,0.347-0.551,0.426
			c-0.685,0.508-1.218,0.907-1.423,1.201c-0.204,0.303-0.311,0.658-0.311,1.076c0,0.356,0.133,0.596,0.399,0.738
			c0.268,0.133,0.641,0.143,1.112,0.036c0.232-0.054,1.316-0.409,3.272-1.032c1.965-0.623,3.771-1.103,5.424-1.44
			c1.502-0.32,3.103-0.543,4.801-0.686c1.698-0.142,2.64-0.222,2.828-0.257c0.56-0.106,0.951-0.275,1.182-0.524
			c0.231-0.258,0.347-0.64,0.347-1.165c0-0.702-0.604-1.093-1.805-1.165c-0.026-0.009-0.044-0.009-0.063-0.018
			c-0.026,0-0.071,0-0.16,0c-0.64-0.054-1.111-0.116-1.396-0.205c-0.969-0.311-1.689-0.942-2.142-1.885
			c-0.454-0.943-0.685-2.267-0.685-3.975c0-3.761,0-5.646,0-9.407c0-0.88,0.187-1.511,0.542-1.894
			c0.364-0.382,1.076-0.675,2.125-0.88c1.493-0.285,2.533-0.391,3.112-0.329c0.578,0.054,1.102,0.249,1.556,0.56
			c0.684,0.48,2.151,2.899,4.418,7.273c0.133,0.276,0.204,0.418,0.347,0.693c2.071,3.93,3.921,6.615,5.548,8.047
			c1.627,1.431,3.388,2.018,5.309,1.76c1.689-0.231,3.246-0.782,4.676-1.663c1.432-0.88,2.144-1.716,2.144-2.507
			c0-0.33-0.072-0.561-0.214-0.677C208.495,203.354,208.273,203.31,207.954,203.345z M184.116,187.056
			c-2.09,0.383-3.432,0.489-4.019,0.275c-0.596-0.204-0.889-1.004-0.889-2.4c0-4.125,0-6.188,0-10.314
			c0-2.063,0.285-3.495,0.854-4.286c0.569-0.783,1.583-1.325,3.032-1.592c3.228-0.604,5.771-0.08,7.62,1.556
			c1.85,1.626,2.774,4.143,2.774,7.522c0,2.73-0.711,4.793-2.134,6.206C189.93,185.428,187.512,186.424,184.116,187.056z"/>
	
	<path fill="#F1CC5D" d="M229.14,385.808c-31.26-14.897-44.524-52.317-29.625-83.579c14.898-31.261,52.316-44.525,83.577-29.626
		c12.126,5.777,21.539,14.943,27.658,25.826c-6.271-12.85-16.767-23.746-30.672-30.374c-32.663-15.566-71.757-1.707-87.322,30.953
		c-15.565,32.662-1.707,71.755,30.953,87.32c13.907,6.628,28.981,7.918,42.91,4.694C254.313,393.125,241.265,391.584,229.14,385.808
		z"/>
	<path fill="#A62C3A" d="M228.332,376.521c27.223,12.973,59.803,1.422,72.775-25.799c12.972-27.222,1.424-59.802-25.798-72.775
		c-10.557-5.031-21.919-6.371-32.633-4.541c12.128-2.806,25.253-1.686,37.365,4.087c28.438,13.556,40.504,47.595,26.95,76.034
		c-13.554,28.44-47.594,40.506-76.033,26.953c-12.111-5.771-21.25-15.26-26.708-26.447
		C209.578,363.508,217.775,371.488,228.332,376.521z"/>
	
		<path fill="#FFFFFF" d="M284.366,324.48c-0.045-0.578-0.104-1.158-0.181-1.74c-0.637-4.836-2.311-9.276-4.757-13.143l-15.89,0.177
			l-4.942-14.651c-3.512-0.737-7.202-0.913-10.963-0.416c-1.224,0.161-2.419,0.394-3.588,0.685l-4.866,14.366l-14.803-0.182
			c-2.832,4.467-4.596,9.635-4.98,15.107l11.9,8.71l-4.656,14.178c3.187,3.905,7.244,7.025,11.833,9.106l12.455-8.673l12.488,9.458
			c4.896-1.848,9.18-4.816,12.58-8.567l-4.706-15.176L284.366,324.48z"/>
	
	<polygon fill="#123960" points="258.639,316.86 244.006,316.895 239.519,330.822 251.38,339.395 263.195,330.766 	"/>
	<path fill="#F1CC5D" d="M231.832,348.144c1.902,1.799,4.035,3.358,6.345,4.595l6.193-4.313
		C241.087,348.843,236.188,349.146,231.832,348.144z M222.979,323.09l5.298,3.875c-1.334-2.785-2.922-6.747-3.472-10.713
		C223.929,318.453,223.295,320.747,222.979,323.09z M277.499,313.023l-8.304,0.091c3.477,1.848,8.618,5.09,11.489,9.301
		C280.158,319.096,279.1,315.945,277.499,313.023z M248.08,298.08c-0.472,0.063-0.949,0.139-1.43,0.228l-2.262,6.681
		c2.565-2.344,6.446-5.401,10.595-6.978c-1.026-0.109-2.054-0.18-3.081-0.18C250.633,297.831,249.346,297.913,248.08,298.08z
		 M264.399,353.33c2.843-1.353,5.48-3.158,7.751-5.353l-2.545-8.206C268.913,343.485,267.421,349.257,264.399,353.33z"/>

</svg>
