<?xml version="1.0" encoding="utf-8"?>
<!-- Generator: Adobe Illustrator 16.0.3, SVG Export Plug-In . SVG Version: 6.00 Build 0)  -->
<!DOCTYPE svg PUBLIC "-//W3C//DTD SVG 1.1//EN" "http://www.w3.org/Graphics/SVG/1.1/DTD/svg11.dtd">
<svg version="1.1" id="Layer_1" xmlns="http://www.w3.org/2000/svg" xmlns:xlink="http://www.w3.org/1999/xlink" x="0px" y="0px"
	 width="500px" height="500px" viewBox="0 0 500 500" enable-background="new 0 0 500 500" xml:space="preserve">
<path fill="#CCCCCC" d="M427.472,128.445c-17.888-6.766-35.863-12.5-53.88-17.225l-0.319-2.099l-0.044-0.278l-0.066-0.272
	c-0.896-3.59-1.784-6.221-1.821-6.331c-1.585-4.859-11.343-16.139-15.463-20.761l-1.167-1.279l-1.472-1.612h-2.078h-0.567h-1.381
	l-1.187,0.773l-19.685,12.835l-0.039,0.025l-0.04,0.027l-4.426,3.008V67.433c0-7.163,0.488-10.27,12.694-14.765l2.064-0.566
	l3.807-1.045v-4.305v-2.776v-5.515h-5.025h-7.029h-3.377h-0.197l-0.194,0.017c-14.685,1.258-33.761,8.984-41.569,21.253
	c0.131-1.941,0.199-4.002,0.199-6.188v-0.149l-0.009-0.149l-0.563-11.42l-0.256-5.216h-4.761h-3.935h-5.026v5.514v4.938
	c0,1.101-0.021,2.036-0.058,2.826c-8.169-8.188-15.121-12.044-21.637-12.044h-2.251h-0.417l-0.411,0.075l-3.375,0.618l-0.577,0.106
	l-0.539,0.248c-10.513,4.838-16.303,14.975-16.303,28.543v0.057l0.001,0.056l0.453,24.361l0.07,3.749
	c-1.139,0.06-2.279,0.134-3.419,0.203c-3.329-5.504-7.792-10.602-13.432-15.243l-1.34-1.103h-1.675h-0.562h-1.606l-1.308,1.021
	l-23.844,18.618v-1.469v-1.415l-0.621-1.24c-3.073-6.142-9.022-10.64-17.681-13.373c-4.886-2.173-6.491-3.78-6.95-4.358l0.01-0.09
	c1.059-0.657,4.695-2.281,15.474-3.036l4.704-0.331v-5.173v-3.704v-5.514h-5.024h-5.345h-1.125H158.5
	c-21.586,0-34.841,20.47-34.841,35.146c0,6.493,1.407,11.917,4.183,16.26c-18.548,4.789-37.075,10.653-55.527,17.587l-7.272,2.731
	l4.978,5.964l16.924,20.277c0.652,9.605,1.567,19.375,2.724,29.068c3.445,28.823,10.824,71.408,26.422,110.607
	c19.681,49.479,54.27,91.346,79.82,117.757c25.34,26.202,46.66,42.517,50.676,45.521l3.312,2.478l3.307-2.486
	c5.721-4.303,26.287-20.302,50.669-45.513c25.556-26.422,60.15-68.299,79.823-117.759c15.606-39.219,22.98-81.795,26.416-110.605
	c1.16-9.705,2.077-19.481,2.734-29.089l16.905-20.256l4.967-5.95L427.472,128.445z M261.34,89.923c7.26,0,15.448-2.806,20.1-13.583
	v0.043v6.748v1.175v5.558v1.027v3.703v0.042h-10.323c-6.513-0.61-11.355-1.501-15.208-2.801
	c-8.759-3.492-14.012-7.504-15.681-11.965C248.127,86.713,254.899,89.923,261.34,89.923z"/>
<path fill="#211F15" d="M374.021,117.025l0.441,12.857l0.004,0.104v0.104v3.088v0.615v0.928v1.852v1.233v4.94v3.704v0.927v0.616
	c0,0.196-0.004,0.378-0.004,0.571c1.835,0.517,3.671,1.022,5.504,1.563l-0.19,2.947c-0.615,9.478-1.51,19.165-2.662,28.802
	c-2.547,21.357-7.41,50.832-16.559,79.99l-190.661,65.643c-8.864-13.875-16.962-28.867-23.241-44.649
	c-14.079-35.38-20.814-74.449-23.985-100.985c-1.147-9.617-2.039-19.297-2.65-28.77l-0.188-2.917
	c5.869-1.722,11.741-3.309,17.613-4.797v-26.055c-2.114-1.066-3.975-2.338-5.606-3.796c-19.183,4.85-38.376,10.848-57.583,18.064
	l18.074,21.654v-0.001c0.544,8.421,1.415,18.825,2.816,30.572c3.731,31.223,11.185,71.814,26.07,109.221
	c18.714,47.049,51.023,87.396,78.66,115.962c25.167,26.023,46.385,42.226,50.015,44.941c3.611-2.716,24.845-18.909,50.021-44.941
	c27.631-28.566,59.949-68.913,78.664-115.962c14.885-37.406,22.34-77.998,26.064-109.221c1.403-11.758,2.278-22.167,2.825-30.592
	l18.057-21.633C408.363,127.114,391.195,121.604,374.021,117.025z M202.674,373.271c-1.618,0.52-4.055-0.967-4.389-2.671
	c-0.339-1.699-0.161-4.049,1.357-6.288c1.725-2.346,5.167-4.496,7.277-5.944c2.116-1.447,6.046-4.223,6.838-6.384
	c0.796-2.157,2.117-8.826,3.611-13.335c3.184-9.636,10.438-15.064,10.438-15.064s1.025,0.779,0.616,2.835
	c-0.243,1.229-2.755,8.977-1.458,16.961c0.682,4.179,6.502-0.471,7.776-2.219c0.876-1.206,2.521-7.577,3.878-11.67
	c3.408-10.305,10.633-16.526,10.633-16.526s0.525,1.281,0.54,1.985c0.014,0.711-3.184,16.984-1.804,18.878
	c1.372,1.899,5.354,0.815,7.833-4.019c2.484-4.834,5.197-11.946,8.367-16.35c4.171-5.793,7.941-6.676,7.941-6.676
	s0.321,3.319-2.072,9.426c-1.267,3.219-1.992,7.841,1.274,8.222c3.443,0.407,7.504-3.535,9.192-5.978
	c1.695-2.448,6.38-10.908,8.588-14.178c6.387-9.45,12.682-9.246,12.682-9.246s-1.382,2.544-3.549,6.385
	c-4.534,8.01-3.793,12.287-3.793,12.287s5.889-1.566,9.721-2.386c3.997-0.857,8.055-1.324,7.905,0.521
	c-0.131,1.591-7.567,4.508-13.328,7.245c-5.764,2.732-37.043,17.604-54.338,27.191C218.794,360.479,204.288,372.757,202.674,373.271
	z M307.114,381.646c-0.796,0.557-7.405,3.677-10.166,5.001c-2.763,1.319-15.978,7.928-22.116,11.169
	c-6.143,3.236-15.125,8.363-18.518,10.587c-3.39,2.219-9.038,6.809-11.03,6.994c-1.994,0.195-5.254-3.341-2.897-5.572
	c2.358-2.226,5.152-4.453,6.339-5.275c1.193-0.827,3.134-2.176,3.667-2.863c0.537-0.688,2.747-6.359,3.662-8.86
	c0.915-2.497,2.204-6.022,3.138-7.817c0.938-1.808,2.423-3.682,3.373-4.414c1.279-0.977,3.448-1.707,3.448-1.707
	s-0.345,1.915-0.677,3.238c-0.328,1.316-1.782,7.292-1.795,8.601c-0.006,1.305-0.182,3.841,3.378,3.241
	c3.183-0.533,3.833-5.006,4.393-6.291c0.551-1.284,2.271-7.48,3.176-9.027c0.904-1.539,1.598-3.193,3.464-4.8
	c1.27-1.092,3.069-1.559,3.069-1.559s-0.633,2.382-1.14,4.484c-0.513,2.102-2.52,9.266-0.713,10.608
	c3.146,2.334,4.414-1.551,5.238-4.01c0.826-2.461,2.512-6.14,3.104-7.931c1.928-5.864,7.001-6.902,7.001-6.902
	s-3.217,9.245-2.793,10.184c0.955,2.118,2.343,3.055,4.371,2.971c2.031-0.083,8.604-1.825,9.666-1.889
	C306.821,379.747,307.909,381.102,307.114,381.646z M315.057,347.064c-0.99,0.628-19.106,8.447-25.22,11.437
	c-6.11,2.99-19.127,9.559-30.916,15.866c-14.151,7.567-28.188,17.291-30.75,18.886c-2.564,1.604-4.529,0.889-5.537,0.45
	c-1.009-0.433-3.668-4.789,0.212-7.979c1.172-0.957,9.601-6.911,10.923-8.674c1.318-1.765,4.409-9.854,5.866-13.227
	c4.224-9.792,9.332-11.204,9.332-11.204s0.517,1.587,0.25,2.757c-0.269,1.178-1.265,5.245-1.625,7.462
	c-0.366,2.225-1.273,6.299,0.74,5.943c2.203-0.388,4.381-1.838,5.921-4.582c1.542-2.739,3.413-6.452,4.592-9.813
	c2.583-7.362,8.23-9.459,8.23-9.459s0.325,1.648,0.147,2.794c-0.169,1.131-1.745,7.094-1.754,9.056
	c-0.011,1.964,0.779,4.198,2.105,3.979c2.061-0.332,3.058-2.084,4.429-5.177c1.379-3.09,3.863-8.811,5.414-10.792
	c3.472-4.448,6.55-5.299,6.55-5.299s0.349,1.402,0.107,1.971c-0.253,0.576-1.48,3.612-1.94,5.694
	c-0.45,2.08-0.975,6.612,1.045,7.011c2.023,0.397,3.628,1.013,6.599-5.316c2.964-6.335,4.771-9.167,6.08-10.404
	c1.617-1.522,4.275-2.328,4.275-2.328s0.036,1.115-0.077,1.754c-0.118,0.638-2.947,7.744-1.634,9.128
	c1.321,1.384,5.978-0.086,7.489-0.441c1.506-0.355,8.049-2.858,8.751-2.366C315.367,344.689,316.046,346.438,315.057,347.064z"/>
<path fill="#601428" d="M224.317,157.252v1.236v6.789c0,10.187-2.252,16.67-7.032,19.754c-2.58,1.651-9.777,4.751-21.436,9.015
	l-17.74,6.112l-0.484,0.167l-10.526,3.626l-18.445-13.98c-3.525-2-10.958-5.576-17.722-6.792v-4.013
	c9.108,1.029,11.772-8.319,11.534-13.89v-2.466v-47.225c-9.283-3.398-13.783-10.187-13.783-20.991
	c0-11.11,10.688-29.632,29.816-29.632h3.374h1.125h5.345v3.704c-13.219,0.927-20.087,3.335-20.087,7.348l-0.164,1.605
	c0,3.084,3.375,6.173,10.408,9.259c7.561,2.34,12.518,6.027,14.908,10.804v27.746c0,0.013-0.002,0.021-0.002,0.034v43.827
	c1.125,2.161,6.47,6.483,15.751,13.89l2.814,3.088v-67.598c-0.563-6.483-3.376-9.568-8.72-9.568c-1.081,0-2.041,0.213-2.947,0.522
	v-5.166l24.887-19.432h0.562c12.377,10.186,18.565,22.224,18.565,36.729V157.252z M369.441,130.091v3.088v0.615v0.928v1.852v1.233
	v4.94v3.704v0.927v0.616c0,16.978-1.407,28.088-4.502,33.335c-3.373,4.63-12.092,8.953-26.434,13.274
	c-9.008,4.319-16.319,9.567-16.319,9.567l-7.878,6.174c-3.653-4.94-7.312-7.41-9.841-9.877l-6.468-5.25l-11.534-6.173v-2.056
	v-82.077c-9.633,4.488-17.813,8.513-17.813,8.513l-7.313,66.051c0,0-3.213,26.07-3.607,28.964l-0.098,0.668
	c-0.168,1.243-0.341,2.474-0.513,3.704l-0.088,0.618c-0.311,2.189-2.806,18.422-2.806,18.422s-0.235,1.4-0.351,2.093l-1.163,6.372
	c-0.148,0.863-0.307,1.728-0.472,2.588l-0.398,2.188c0,0-1.93,8.946-2.879,12.218v-0.268c-1.108,4.138-1.958,6.886-1.958,6.886
	c-1.162-2.705-2.386-8.404-3.493-14.749c-0.025-0.133-0.05-0.244-0.075-0.377l-0.018-0.155c-0.816-4.724-1.566-9.763-2.179-14.177
	l-0.153-0.668l-0.383-2.875c-0.163-1.274-0.326-2.572-0.487-3.889c0,0-0.02-0.291-0.056-0.693c-0.093-0.741-0.178-1.403-0.244-1.972
	c-0.016-0.062-0.023-0.13-0.037-0.186c-0.048-0.414-0.093-0.854-0.145-1.273c-0.073-0.6-0.112-0.94-0.112-0.94l0.009,0.013
	c-0.397-3.512-0.786-7.111-1.162-10.839c0,0-1.445-15.385-1.966-21.689l-0.161-1.957c-0.107-1.332-0.216-2.671-0.321-4.009
	l-1.155-15.436c-0.915-12.963-1.689-25.591-2.321-36.729c0,0,0.096-1.781-0.152-2.668c-1.197-21.544-1.82-36.866-1.82-36.866h-0.003
	l-0.453-24.36c0-11.419,4.501-19.445,13.22-23.458l3.375-0.619h2.251c5.906,0,12.937,4.631,21.375,13.89
	c0.7,0.751,1.544,0.943,2.529,0.618c1.973,0,2.816-3.703,2.816-10.804v-4.938h3.935l0.563,11.42
	c0,20.682-6.188,30.865-18.845,30.865c-5.905,0-12.656-3.704-20.814-11.42c-1.407-1.481-2.812-1.549-4.218-0.619
	c-0.741,0.355-1.29,0.993-1.688,1.855v2.466c0,8.335,6.468,15.127,19.688,20.373c4.816,1.641,10.518,2.525,16.596,3.085h15.562
	v-0.306v-5.25v-3.703v-1.027v-5.558v-1.175v-6.748v-4.938c0-14.199,22.504-25.928,40.505-27.47h3.377h7.029v2.776l-2.255,0.618
	c-13.497,4.94-16.312,9.569-16.312,20.063v34.263c0,0-0.284,1.858,0.328,3.237l0.585-0.396l5.091-3.459l6.095-4.14l19.685-12.835
	h0.567l1.123,1.233c0,0,12.938,14.508,14.347,18.827c0,0,0.838,2.47,1.686,5.865l0.562,3.707L369.441,130.091z M335.122,112.498
	c0-3.085-1.684-4.628-4.774-4.628c-0.756-0.077-1.507-0.071-2.255,0c-1.404,0-4.495,1.234-9.282,3.395v59.263
	c0.847,1.852,6.188,6.789,16.312,15.124v-5.556v-32.717v-0.927v-3.704v-1.236V112.498z"/>
</svg>
